<ttFont>
          <CharString index="0">
            rmoveto
            -164 -89 -32 -144 -80 50 -49 67 hvcurveto
            93 hlineto
            72 66 15 35 42 hvcurveto
            -12 vlineto
            -27 callsubr
            13 23 5 37 vhcurveto
            296 vlineto
            89 -22 41 -88 vhcurveto
            -155 hlineto
            -117 -80 -22 -89 -38 21 -7 14 30 7 20 25 29 25 10 107 hvcurveto
            141 -32 callgsubr
            -9 -33 hvcurveto
            -42 vlineto
            -72 vmoveto
            -66 -15 -95 -165 vhcurveto
            -93 hlineto
            -19 -26 23 29 99 38 10 143 hvcurveto
            return
          </CharString>
          <CharString index="1">
            314 305 -107 callsubr
            return
          </CharString>
          <CharString index="2">
            -29 hlineto
            -140 -29 callgsubr
            245 vlineto
            33 -19 9 -18 17 callsubr
            166 vhcurveto
            29 hlineto
            73 66 16 34 42 hvcurveto
            return
          </CharString>
          <CharString index="3">
            rmoveto
            -106 callgsubr
            170 -94 callsubr
            return
          </CharString>
          <CharString index="4">
            rmoveto
            -82 hlineto
            -237 -599 rlineto
            -2 -6 -1 -7 -6 vvcurveto
            -27 27 -7 9 15 14 10 18 8 vhcurveto
            69 177 rlineto
            278 hlineto
            69 -177 rlineto
            -13 5 14 -15 18 hhcurveto
            10 26 7 27 6 -1 7 -2 6 hvcurveto
            -388 224 rmoveto
            109 271 111 -271 rlineto
            return
          </CharString>
          <CharString index="5">
            rmoveto
            108 113 rlineto
            9 9 0 8 4 vvcurveto
            10 -7 20 -26 -8 -10 -2 -17 -20 vhcurveto
            -78 -65 -78 65 rlineto
            17 -20 -10 2 -8 hhcurveto
            -26 -7 -20 -10 -4 0 -8 9 -9 hvcurveto
            108 -113 rlineto
            return
          </CharString>
          <CharString index="6">
            hlineto
            -167 -94 callgsubr
            167 vhcurveto
            return
          </CharString>
          <CharString index="7">
            rmoveto
            -70 70 rlineto
            14 -15 -11 2 -6 hhcurveto
            -18 -18 -18 -17 -13 7 -9 8 -9 hvcurveto
            69 -68 rlineto
            -11 10 11 -6 12 hhcurveto
            21 14 19 15 13 -6 9 -8 9 hvcurveto
            return
          </CharString>
          <CharString index="8">
            rmoveto
            -274 vlineto
            -30 20 -9 18 32 7 22 17 vhcurveto
            274 vlineto
            214 277 rlineto
            4 7 6 8 11 vvcurveto
            21 -21 13 -14 -9 -11 -5 -17 -14 vhcurveto
            -194 -256 -195 256 rlineto
            11 -8 -10 11 -15 hhcurveto
            -16 -19 -14 -20 -11 6 -8 4 -7 hvcurveto
            return
          </CharString>
          <CharString index="9">
            3 -8 -10 2 -5 hhcurveto
            -5 -10 -2 -9 -11 hvcurveto
            -45 -38 rlineto
            -11 -9 -7 -11 -14 vvcurveto
            return
          </CharString>
          <CharString index="10">
            rmoveto
            86 -33 rlineto
            -3 8 10 -2 6 hhcurveto
            4 10 2 9 12 hvcurveto
            44 38 rlineto
            12 9 6 11 14 vvcurveto
            return
          </CharString>
          <CharString index="11">
            28 rmoveto
            -3 -7 0 -6 -5 vvcurveto
            -26 25 -6 11 15 17 8 18 8 vhcurveto
            66 159 rlineto
            248 hlineto
            66 -159 rlineto
            -17 7 18 -9 15 hhcurveto
            11 25 6 26 5 0 6 -3 7 hvcurveto
            -231 524 rlineto
            -64 hlineto
            -59 -317 rmoveto
            90 208 92 -208 rlineto
            return
          </CharString>
          <CharString index="12">
            rmoveto
            -73 hlineto
            -22 -10 -30 -47 -47 -10 30 22 vhcurveto
            -73 hlineto
            -99 83 -27 47 44 86 26 100 vhcurveto
            return
          </CharString>
          <CharString index="13">
            hmoveto
            -106 callgsubr
            return
          </CharString>
          <CharString index="14">
            -245 hlineto
            -32 -9 -22 -14 -18 10 -19 31 hvcurveto
            245 -14 callsubr
            14 21 24 -17 14 -27 hvcurveto
            return
          </CharString>
          <CharString index="15">
            rmoveto
            28 7 21 21 hvcurveto
            565 57 callgsubr
            -14 -21 -7 -39 vhcurveto
            -479 vlineto
            -360 502 rlineto
            16 -11 -12 7 -15 hhcurveto
            -14 -20 -6 -37 hvcurveto
            -23 callgsubr
            29 7 18 21 93 callgsubr
            369 -517 rlineto
            -4 3 12 -3 13 hhcurveto
            return
          </CharString>
          <CharString index="16">
            -96 callgsubr
            -134 hlineto
            -141 -40 10 104 hvcurveto
            264 vlineto
            104 42 10 121 vhcurveto
            152 -32 callgsubr
            -12 -40 -10 callgsubr
            -9 callsubr
            60 -14 62 -96 hvcurveto
            -159 hlineto
            -148 -87 -30 -154 hvcurveto
            -268 vlineto
            return
          </CharString>
          <CharString index="17">
            636 -103 callsubr
            return
          </CharString>
          <CharString index="18">
            rmoveto
            -420 vlineto
            -34 21 -8 14 29 8 21 21 vhcurveto
            420 vlineto
            35 -22 8 -14 -14 -22 -8 -35 vhcurveto
            return
          </CharString>
          <CharString index="19">
            72 vstem
            465 hmoveto
            -85 callgsubr
            return
          </CharString>
          <CharString index="20">
            72 vstem
            455 hmoveto
            -85 callsubr
            return
          </CharString>
          <CharString index="21">
            vlineto
            32 -16 14 -22 -14 -20 -6 -37 vhcurveto
            -390 vlineto
            -77 callgsubr
            194 vlineto
            return
          </CharString>
          <CharString index="22">
            -96 callgsubr
            -134 -23 callsubr
            99 vlineto
            99 38 10 143 vhcurveto
            134 -32 callgsubr
            -12 -40 -10 callgsubr
            -9 callsubr
            59 -14 63 -96 hvcurveto
            -141 -101 callsubr
            return
          </CharString>
          <CharString index="23">
            346 -90 callsubr
            return
          </CharString>
          <CharString index="24">
            17 9 10 2 2 hvcurveto
            163 232 rlineto
            -485 vlineto
            -32 14 -13 21 21 16 12 30 vhcurveto
            565 vlineto
            31 -14 12 -21 -15 -12 -9 -14 -10 vhcurveto
            -191 -266 -190 266 rlineto
            16 -11 -12 7 -15 hhcurveto
            -14 -20 -6 -37 hvcurveto
            -23 callgsubr
            37 callgsubr
            485 vlineto
            163 -232 rlineto
            -3 3 8 -9 16 hhcurveto
            endchar
          </CharString>
          <CharString index="25">
            15 11 9 3 8 8 vhcurveto
            29 26 rlineto
            return
          </CharString>
          <CharString index="26">
            41 0 72 240 72 175 77 hstemhm
            84 72 318 72 -30 -55 callgsubr
            hintmask 11110100
            354 312 rmoveto
            121 41 -10 -102 hvcurveto
            -16 vlineto
            -101 -41 -11 -139 vhcurveto
            -180 240 hlineto
            -72 -268 rmoveto
            -56 callsubr
            19 vlineto
            93 -32 45 -50 25 vhcurveto
            hintmask 11111000
            28 26 12 39 44 vvcurveto
            130 -89 31 -151 vhcurveto
            -188 hlineto
            -14 -20 -6 -38 hvcurveto
            222 -208 rmoveto
            -150 175 150 hlineto
            123 45 -13 -74 -74 -43 -14 -125 hvcurveto
            endchar
          </CharString>
          <CharString index="27">
            -74 callgsubr
            hintmask 00100100
            -69 callsubr
            return
          </CharString>
          <CharString index="28">
            73 vstem
            -84 callsubr
            return
          </CharString>
          <CharString index="29">
            -32 callsubr
            -531 hlineto
            -32 23 -8 17 17 26 8 32 vhcurveto
            531 148 -25 callgsubr
            endchar
          </CharString>
          <CharString index="30">
            rmoveto
            40 83 rlineto
            hintmask 10000100
            -101 callgsubr
            return
          </CharString>
          <CharString index="31">
            vvcurveto
            -69 46 -45 60 26 63 12 48 19 -12 8 -13 vhcurveto
            -16 -24 -17 -26 hhcurveto
            -26 -6 20 24 return
          </CharString>
          <CharString index="32">
            306 -99 callsubr
            return
          </CharString>
          <CharString index="33">
            148 104 88 151 return
          </CharString>
          <CharString index="34">
            50 hmoveto
            458 hlineto
            10 callsubr
            -364 hlineto
            409 497 rlineto
            67 -458 vlineto
            -33 -13 -14 -22 -29 20 -7 26 hvcurveto
            366 hlineto
            -411 -500 rlineto
            return
          </CharString>
          <CharString index="35">
            159 74 25 153 hvcurveto
            248 vlineto
            79 callgsubr
            -13 -23 -5 -37 vhcurveto
            -245 vlineto
            -99 -22 -10 -139 -142 -40 11 98 vhcurveto
            245 vlineto
            31 -15 11 -22 17 callsubr
            168 vhcurveto
            endchar
          </CharString>
          <CharString index="36">
            rmoveto
            117 hlineto
            81 20 40 87 hvcurveto
            37 -72 -53 vlineto
            -34 -5 -5 -31 vhcurveto
            -102 hlineto
            -32 -5 6 33 hvcurveto
            53 -72 -37 vlineto
            -86 20 -41 81 vhcurveto
            return
          </CharString>
          <CharString index="37">
            -76 callsubr
            hvcurveto
            return
          </CharString>
          <CharString index="38">
            2 7 1 7 7 vvcurveto
            21 -14 17 -20 vhcurveto
            return
          </CharString>
          <CharString index="39">
            rmoveto
            46 hlineto
            21 24 7 29 22 -13 14 -32 hvcurveto
            -46 hlineto
            -56 -54 -16 -34 -41 hvcurveto
            11 -86 callsubr
            103 51 57 100 vhcurveto
            return
          </CharString>
          <CharString index="40">
            170 vlineto
            106 59 64 121 vhcurveto
            return
          </CharString>
          <CharString index="41">
            vlineto
            -33 19 -9 18 28 7 21 21 vhcurveto
            return
          </CharString>
          <CharString index="42">
            10 -15 74 callsubr
            hstemhm
            73 72 -72 147 255 -55 callgsubr
            hintmask 11101000
            145 404 rmoveto
            30 hlineto
            hintmask 11011000
            34 11 14 20 14 -5 24 -40 hvcurveto
            hintmask 11101000
            -30 104 hlineto
            9 -8 rlineto
            -11 12 11 -6 12 hhcurveto
            20 14 15 18 14 -8 11 -6 7 hvcurveto
            -65 65 rlineto
            8 -9 -10 7 -14 hhcurveto
            -12 -26 -8 -30 hvcurveto
            -538 vlineto
            -94 22 -45 -14 callgsubr
            45 94 hvcurveto
            214 vlineto
            94 -22 44 -88 vhcurveto
            -95 hlineto
            -32 -14 -16 -22 -20 13 -14 33 hvcurveto
            88 -33 callgsubr
            -248 vlineto
            -57 callsubr
            endchar
          </CharString>
          <CharString index="43">
            160 hmoveto
            -60 callgsubr
          </CharString>
          <CharString index="44">
            119 -7 rmoveto
            21 6 5 20 14 hvcurveto
            356 499 rlineto
            -485 vlineto
            -21 7 -18 29 13 23 5 37 vhcurveto
            565 vlineto
            37 -20 6 -14 -15 -12 -7 -16 -11 vhcurveto
            -360 -502 rlineto
            479 vlineto
            39 -21 7 -14 -21 -16 -11 -32 vhcurveto
            -565 vlineto
            -21 7 -21 28 vhcurveto
            return
          </CharString>
          <CharString index="45">
            -11 -10 -2 -8 -8 hvcurveto
            -182 -169 rlineto
            -5 -4 -17 -12 -17 vvcurveto
            -17 12 -10 10 -8 vhcurveto
            182 -169 rlineto
            -8 8 12 -1 9 hhcurveto
            18 12 12 18 8 -2 16 -14 14 hvcurveto
            -149 145 149 144 rlineto
            9 10 7 12 16 vvcurveto
            18 -12 12 -18 vhcurveto
            return
          </CharString>
          <CharString index="46">
            -2 -15 72 68 72 36 72 99 72 hstem
            64 -11 callsubr
            429 -15 rmoveto
            87 22 53 55 83 -62 21 -78 -88 -77 -113 -27 -19 hvcurveto
            -33 hlineto
            -20 callsubr
            79 vlineto
            38 9 10 36 vhcurveto
            357 104 hlineto
            96 -22 43 -88 vhcurveto
            -254 hlineto
            -74 -36 -33 -89 -39 21 -6 14 30 7 20 25 69 callsubr
            hvcurveto
            -3 callsubr
            -49 -292 vlineto
            -88 -22 -41 -96 hvcurveto
            -44 vlineto
            41 callsubr
            135 72 rmoveto
            51 42 29 17 18 hhcurveto
            56 12 -13 -17 -25 -7 -13 -38 hvcurveto
            endchar
          </CharString>
          <CharString index="47">
            vlineto
            -108 -61 -62 -119 return
          </CharString>
          <CharString index="48">
            19 -205 72 118 74 callsubr
            hstemhm
            74 72 -72 163 239 -55 callgsubr
            hintmask 11110100
            297 404 rmoveto
            134 -33 callgsubr
            -437 vlineto
            -38 1 callsubr
            -40 -6 -23 -13 -22 13 -14 33 64 53 14 125 vhcurveto
            403 vlineto
            96 -22 43 -88 vhcurveto
            -141 hlineto
            -56 -54 -16 -34 -41 hvcurveto
            12 -50 callsubr
            -453 117 vlineto
            hintmask 11101100
            24 22 7 28 30 -22 7 -24 hvcurveto
            hintmask 11110100
            -45 175 hlineto
            111 51 61 100 vhcurveto
            endchar
          </CharString>
          <CharString index="49">
            rmoveto
            67 19 41 51 79 vvcurveto
            130 -89 31 -151 vhcurveto
            -188 hlineto
            -14 -20 -6 -38 hvcurveto
            16 callsubr
            289 186 vlineto
            return
          </CharString>
          <CharString index="50">
            -28 callgsubr
            -20 callsubr
            return
          </CharString>
          <CharString index="51">
            -22 7 -22 27 vhcurveto
            218 hlineto
            57 callsubr
            154 hvcurveto
            return
          </CharString>
          <CharString index="52">
            72 317 72 return
          </CharString>
          <CharString index="53">
            72 -64 -55 callgsubr
            hintmask 11101010
            438 336 -58 callsubr
            hintmask 11101001
            -48 callsubr
            hintmask 11101010
            7 callgsubr
            hintmask 00010100
            return
          </CharString>
          <CharString index="54">
            353 47 rmoveto
            -36 31 43 -18 54 hhcurveto
            104 58 81 77 hvcurveto
            157 vlineto
            77 -36 83 -103 -35 -15 -14 -21 -15 6 -22 44 58 9 -74 -22 vhcurveto
            -141 vlineto
            -63 -38 -31 -39 -55 -45 20 79 vhcurveto
            101 vlineto
            24 -9 21 -33 -25 -16 -12 -33 vhcurveto
            -101 vlineto
            -79 -45 -20 -55 -39 -38 31 63 vhcurveto
            141 vlineto
            22 9 74 58 44 6 22 15 28 -24 7 -26 -103 -36 -83 -77 vhcurveto
            -157 vlineto
            -77 58 -81 104 54 44 18 36 31 vhcurveto
            return
          </CharString>
          <CharString index="55">
            422 vlineto
            24 -7 22 -28 -30 -7 -22 -24 vhcurveto
            -422 vlineto
            -93 -38 -10 -113 -25 -21 -8 -27 -22 13 -15 33 135 88 24 151 vhcurveto
            return
          </CharString>
          <CharString index="56">
            272 64 rmoveto
            -126 -40 11 107 25 -14 18 -21 -24 -14 -16 -27 -161 87 -29 152 152 86 29 152 hvcurveto
            429 vlineto
            34 -22 7 -14 21 callgsubr
            -427 vlineto
            -101 -41 -11 -125 vhcurveto
            return
          </CharString>
          <CharString index="57">
            vlineto
            23 -7 22 -29 20 callsubr
            return
          </CharString>
          <CharString index="58">
            -9 -37 callgsubr
            return
          </CharString>
          <CharString index="59">
            95 -68 44 -204 1 -17 rrcurveto
            -17 1 9 -23 25 hhcurveto
            22 15 19 21 14 -46 204 -70 85 hvcurveto
            -282 233 rmoveto
            150 hlineto
            return
          </CharString>
          <CharString index="60">
            574 -107 callgsubr
            return
          </CharString>
          <CharString index="61">
            72 vstem
            570 461 rmoveto
            -67 hlineto
            -355 -367 rlineto
            328 vlineto
            24 -7 22 -30 41 callgsubr
            -425 70 vlineto
            352 363 rlineto
            -324 vlineto
            -24 7 -22 30 28 7 22 21 vhcurveto
            return
          </CharString>
          <CharString index="62">
            -7 21 609 20 return
          </CharString>
          <CharString index="63">
            549 hmoveto
            38 7 -36 callgsubr
            -36 -9 10 36 hvcurveto
            308 vlineto
            26 -11 16 -25 -33 -6 -24 -25 vhcurveto
            30 -44 -57 12 -53 hhcurveto
            -145 -71 -50 -148 hvcurveto
            -65 vlineto
            -148 71 -50 145 57 63 13 39 47 vhcurveto
            -37 16 32 -15 52 hhcurveto
            -267 389 rmoveto
            85 69 -25 -101 hvcurveto
            -65 vlineto
            -101 -69 -25 -85 -113 -31 24 102 vhcurveto
            65 vlineto
            102 31 24 113 vhcurveto
            return
          </CharString>
          <CharString index="64">
            -21 20 -13 -82 callsubr
            return
          </CharString>
          <CharString index="65">
            hstem
            73 72 vstem
            467 27 rmoveto
            13 -8 10 -10 8 vhcurveto
            -250 174 249 173 rlineto
            12 9 7 10 13 vvcurveto
            13 -14 21 -20 -13 -11 -5 -5 -6 vhcurveto
            -258 -191 rlineto
            158 vlineto
            9 callsubr
            -396 vlineto
            -31 20 -8 15 28 9 20 19 vhcurveto
            162 vlineto
            259 -192 rlineto
            -6 9 11 -3 9 hhcurveto
            20 14 21 13 hvcurveto
            endchar
          </CharString>
          <CharString index="66">
            613 rmoveto
            -18 8 -7 4 -4 vhcurveto
            247 -261 -247 -261 rlineto
            -9 -11 -3 -5 -12 vvcurveto
            -20 17 -14 18 vhcurveto
            466 6 callgsubr
            -386 hlineto
            223 223 rlineto
            8 9 6 8 11 vvcurveto
            13 -13 11 -2 4 vhcurveto
            -222 224 rlineto
            386 6 callgsubr
            -460 hlineto
            -34 -7 -21 -13 hvcurveto
            endchar
          </CharString>
          <CharString index="67">
            33 -16 13 -22 -20 -14 -13 -33 vhcurveto
            return
          </CharString>
          <CharString index="68">
            72 vstem
            301 144 rmoveto
            -110 -41 11 107 hvcurveto
            111 vlineto
            107 41 11 110 vhcurveto
            29 hlineto
            108 42 -11 -107 hvcurveto
            -111 vlineto
            -107 -42 -11 -108 vhcurveto
            -252 229 rmoveto
            -111 vlineto
            -160 87 -30 136 vhcurveto
            29 hlineto
            135 87 30 160 hvcurveto
            111 vlineto
            160 -87 30 -135 vhcurveto
            -29 hlineto
            -136 -87 -30 -160 hvcurveto
            return
          </CharString>
          <CharString index="69">
            rmoveto
            40 19 -2 -30 -23 -48 -15 -29 -19 -14 -14 -17 -10 7 -22 26 31 46 -22 -23 -31 -21 -1 -38 -35 -18 10 6 -3 hvcurveto
            2 -1 28 -33 -18 -14 -12 -18 -36 45 -43 67 66 65 5 89 36 -24 26 -23 16 vhcurveto
            16 9 31 22 35 vvcurveto
            97 -73 1 -58 -67 -45 -43 -36 -18 14 -12 18 20 14 11 17 7 21 11 35 vhcurveto
            endchar
          </CharString>
          <CharString index="70">
            -86 30 -166 vhcurveto
            -29 hlineto
            return
          </CharString>
          <CharString index="71">
            48 -28 callsubr
            return
          </CharString>
          <CharString index="72">
            72 vstem
            328 3 callgsubr
            186 vlineto
            -40 callsubr
            -562 vlineto
            -77 callgsubr
            194 vlineto
            84 34 76 147 vhcurveto
            return
          </CharString>
          <CharString index="73">
            -19 -3 -12 -10 -18 vvcurveto
            -20 11 -11 20 -4 vhcurveto
            -358 48 callsubr
            29 9 21 22 vhcurveto
            353 return
          </CharString>
          <CharString index="74">
            hlineto
            -36 -9 12 40 return
          </CharString>
          <CharString index="75">
            rmoveto
            -40 callgsubr
            return
          </CharString>
          <CharString index="76">
            96 -22 43 -88 vhcurveto
            -254 hlineto
            49 callgsubr
            return
          </CharString>
          <CharString index="77">
            208 hmoveto
            -26 callsubr
            return
          </CharString>
          <CharString index="78">
            -72 29 -11 callsubr
            469 483 rmoveto
            -15 -14 -7 -20 -9 hvcurveto
            -168 -380 -162 379 rlineto
            10 -5 -10 18 -23 hhcurveto
            -14 -20 -7 -27 -3 0 -4 4 -10 hvcurveto
            186 -447 rlineto
            82 hlineto
            198 447 rlineto
            4 9 0 5 4 vvcurveto
            26 -18 7 -16 vhcurveto
            endchar
          </CharString>
          <CharString index="79">
            0 -16 callsubr
            return
          </CharString>
          <CharString index="80">
            -39 22 -6 14 return
          </CharString>
          <CharString index="81">
            11 callsubr
            -36 -9 10 36 hvcurveto
            480 -50 callsubr
            -465 vlineto
            -90 58 callsubr
            return
          </CharString>
          <CharString index="82">
            309 476 rmoveto
            -153 121 hlineto
            19 -9 20 -28 -14 -21 -7 -33 vhcurveto
            -560 67 callsubr
            191 hlineto
            148 89 115 126 126 -89 116 -148 hvcurveto
            -72 vmoveto
            116 49 -87 -83 -83 -48 -86 -117 hvcurveto
            -153 339 hlineto
            return
          </CharString>
          <CharString index="83">
            -141 hlineto
            -167 -75 callgsubr
            -105 vlineto
            return
          </CharString>
          <CharString index="84">
            hlineto
            -143 -38 10 99 hvcurveto
            return
          </CharString>
          <CharString index="85">
            vlineto
            31 -20 9 -16 return
          </CharString>
          <CharString index="86">
            rmoveto
            18 19 16 15 19 -21 12 -16 1 hvcurveto
            -148 hlineto
            24 61 161 24 88 vvcurveto
            91 -62 9 -73 vhcurveto
            -30 hlineto
            -45 -45 -31 -48 -22 21 -11 12 18 15 14 19 13 12 3 16 hvcurveto
            26 hlineto
            61 11 -2 -35 hvcurveto
            -45 -192 -21 -133 vvcurveto
            -37 vlineto
            return
          </CharString>
          <CharString index="87">
            -36 -9 10 39 hvcurveto
            return
          </CharString>
          <CharString index="88">
            76 -205 72 133 -1 callgsubr
            return
          </CharString>
          <CharString index="89">
            rmoveto
            -199 vlineto
            -28 16 -9 16 14 18 8 29 vhcurveto
            271 vlineto
            25 -22 9 -11 -13 -9 -7 -6 -7 vhcurveto
            -49 -51 rlineto
            return
          </CharString>
          <CharString index="90">
            59 -64 -106 hvcurveto
            return
          </CharString>
          <CharString index="91">
            72 163 72 82 72 return
          </CharString>
          <CharString index="92">
            -9 72 510 72 return
          </CharString>
          <CharString index="93">
            hlineto
            25 19 return
          </CharString>
          <CharString index="94">
            507 -102 callsubr
            return
          </CharString>
          <CharString index="95">
            -74 callsubr
            hvcurveto
            176 vlineto
            return
          </CharString>
          <CharString index="96">
            45 callsubr
            vstem
            return
          </CharString>
          <CharString index="97">
            509 603 rmoveto
            -370 -60 callsubr
            -119 -61 62 108 vhcurveto
            370 -22 callsubr
            -14 -22 -7 -34 vhcurveto
            -372 vlineto
            -151 103 -88 149 -74 callsubr
            vhcurveto
            return
          </CharString>
          <CharString index="98">
            14 22 6 39 return
          </CharString>
          <CharString index="99">
            -7 callsubr
            -73 55 callgsubr
            hvcurveto
            return
          </CharString>
          <CharString index="100">
            105 vlineto
            -58 callgsubr
            return
          </CharString>
          <CharString index="101">
            72 hintmask 0000000000000000
            return
          </CharString>
          <CharString index="102">
            495 rmoveto
            -105 callgsubr
            return
          </CharString>
          <CharString index="103">
            -32 -76 40 -52 hhcurveto
            -37 -79 -48 -35 -27 30 -7 12 hvcurveto
            37 13 41 34 32 75 -40 52 hhcurveto
            return
          </CharString>
          <CharString index="104">
            240 -33 callgsubr
            return
          </CharString>
          <CharString index="105">
            84 callsubr
            vstem
            return
          </CharString>
          <CharString index="106">
            -28 -9 10 42 93 callsubr
            -49 callgsubr
            44 42 19 33 17 hvcurveto
            268 542 rlineto
            1 4 2 5 7 vvcurveto
            19 -18 13 -16 -15 -14 -7 -20 -9 vhcurveto
            return
          </CharString>
          <CharString index="107">
            -365 57 rmoveto
            -154 -25 -74 -56 -97 85 -35 73 hvcurveto
            215 hlineto
            81 20 40 88 hvcurveto
            32 -72 -49 vlineto
            -33 -4 -6 -34 vhcurveto
            -199 hlineto
            -39 -54 6 56 54 32 2 75 hvcurveto
            return
          </CharString>
          <CharString index="108">
            -9 -12 -36 return
          </CharString>
          <CharString index="109">
            76 24 5 27 vvcurveto
            9 -1 18 -28 -24 -57 -59 -76 -28 21 -8 20 27 18 14 22 vhcurveto
            return
          </CharString>
          <CharString index="110">
            -104 callgsubr
            endchar
          </CharString>
          <CharString index="111">
            rmoveto
            -45 callgsubr
            -73 55 callgsubr
            hvcurveto
            return
          </CharString>
          <CharString index="112">
            -176 34 callsubr
            return
          </CharString>
          <CharString index="113">
            vmoveto
            9 callgsubr
          </CharString>
          <CharString index="114">
            -5 -10 -2 -7 -6 vvcurveto
            -30 42 -5 9 14 13 8 24 8 vhcurveto
            24 86 rlineto
            1 6 2 8 4 vvcurveto
            25 -15 10 -17 -18 -10 -16 -14 -6 vhcurveto
            return
          </CharString>
          <CharString index="115">
            3 -67 66 -19 29 callgsubr
            -63 3 -6 33 hvcurveto
            return
          </CharString>
          <CharString index="116">
            31 -20 9 -16 21 callgsubr
            return
          </CharString>
          <CharString index="117">
            11 callsubr
            hvcurveto
            return
          </CharString>
          <CharString index="118">
            39 6 -36 callgsubr
            return
          </CharString>
          <CharString index="119">
            -21 -14 -30 22 -7 24 return
          </CharString>
          <CharString index="120">
            -30 -46 -4 -33 vvcurveto
            -17 13 -19 20 34 51 45 62 131 -90 7 return
          </CharString>
          <CharString index="121">
            rlineto
            23 12 8 10 14 vvcurveto
            20 -15 16 -22 -8 -6 0 -4 -7 vhcurveto
            return
          </CharString>
          <CharString index="122">
            vlineto
            -34 -8 -21 -14 -19 9 -19 33 hvcurveto
            -244 59 callsubr
            endchar
          </CharString>
          <CharString index="123">
            -569 32 callgsubr
            return
          </CharString>
          <CharString index="124">
            -57 callgsubr
            -248 -83 callgsubr
            return
          </CharString>
          <CharString index="125">
            vlineto
            -58 -59 -27 -48 -30 -76 callsubr
            return
          </CharString>
          <CharString index="126">
            -9 -9 -6 -8 -12 vvcurveto
            -14 11 -15 19 6 12 2 14 14 vhcurveto
            return
          </CharString>
          <CharString index="127">
            -21 callgsubr
            vhcurveto
            return
          </CharString>
          <CharString index="128">
            -79 callgsubr
            endchar
          </CharString>
          <CharString index="129">
            248 vlineto
            42 callgsubr
            return
          </CharString>
          <CharString index="130">
            198 hlineto
            121 41 -10 -104 hvcurveto
            72 2 60 callgsubr
            return
          </CharString>
          <CharString index="131">
            -15 callsubr
            23 151 hstem
            64 72 return
          </CharString>
          <CharString index="132">
            36 -21 7 -14 -20 -17 -12 -31 vhcurveto
            return
          </CharString>
          <CharString index="133">
            hstem
            75 69 callgsubr
            return
          </CharString>
          <CharString index="134">
            198 -196 20 hstemhm
            return
          </CharString>
          <CharString index="135">
            -149 vlineto
            -36 21 -7 14 14 22 8 35 vhcurveto
            149 vlineto
            88 callgsubr
          </CharString>
          <CharString index="136">
            37 81 47 37 26 -30 7 -14 hvcurveto
            -35 -16 -41 -32 hhcurveto
            return
          </CharString>
          <CharString index="137">
            0 55 callsubr
            return
          </CharString>
          <CharString index="138">
            hlineto
            9 callsubr
            return
          </CharString>
          <CharString index="139">
            hlineto
            26 18 14 21 15 -9 23 -35 hvcurveto
            return
          </CharString>
          <CharString index="140">
            rmoveto
            -52 callgsubr
            return
          </CharString>
          <CharString index="141">
            vlineto
            -151 103 -88 149 vhcurveto
            return
          </CharString>
          <CharString index="142">
            rmoveto
            -74 callsubr
            hvcurveto
            return
          </CharString>
          <CharString index="143">
            254 hlineto
            88 22 return
          </CharString>
          <CharString index="144">
            rmoveto
            -96 -14 -62 -59 -33 14 -13 22 14 22 8 35 40 9 12 36 hvcurveto
            134 hlineto
            return
          </CharString>
          <CharString index="145">
            -94 22 -45 -14 callgsubr
            45 94 hvcurveto
            213 vlineto
            94 -22 45 -88 vhcurveto
            return
          </CharString>
          <CharString index="146">
            102 hstem
            -368 122 vstem
            -307 return
          </CharString>
          <CharString index="147">
            55 -9 72 560 20 return
          </CharString>
          <CharString index="148">
            -96 58 callsubr
            return
          </CharString>
          <CharString index="149">
            -7 78 callsubr
            return
          </CharString>
          <CharString index="150">
            -172 -97 callgsubr
            return
          </CharString>
          <CharString index="151">
            529 rmoveto
            -106 callgsubr
            return
          </CharString>
          <CharString index="152">
            72 330 72 return
          </CharString>
          <CharString index="153">
            127 5 -37 -28 -21 -4 -44 -128 hvcurveto
            return
          </CharString>
          <CharString index="154">
            198 hstem
            61 72 return
          </CharString>
          <CharString index="155">
            vlineto
            -37 20 -6 14 return
          </CharString>
          <CharString index="156">
            87 33 97 60 -27 29 -23 16 hvcurveto
            31 17 19 29 50 vvcurveto
            97 -87 33 return
          </CharString>
          <CharString index="157">
            -172 102 61 72 510 72 hstem
            64 72 119 91 callsubr
            return
          </CharString>
          <CharString index="158">
            -163 102 61 -55 callsubr
            hstem
            61 72 135 122 133 72 return
          </CharString>
          <CharString index="159">
            28 0 72 397 21 74 72 return
          </CharString>
          <CharString index="160">
            352 hlineto
            96 -22 43 -88 vhcurveto
            return
          </CharString>
          <CharString index="161">
            67 0 -55 callsubr
            return
          </CharString>
          <CharString index="162">
            72 130 72 return
          </CharString>
          <CharString index="163">
            -39 callgsubr
            70 return
          </CharString>
          <CharString index="164">
            166 86 30 return
          </CharString>
          <CharString index="165">
            22 -43 88 vhcurveto
            return
          </CharString>
          <CharString index="166">
            vlineto
            -56 callsubr
            return
          </CharString>
          <CharString index="167">
            14 15 22 8 37 hvcurveto
            18 vlineto
            39 9 10 36 vhcurveto
            183 hlineto
            return
          </CharString>
          <CharString index="168">
            -53 24 52 -31 52 hhcurveto
            35 9 23 15 21 -18 14 -26 -26 return
          </CharString>
          <CharString index="169">
            1 -205 72 28 72 18 72 60 72 81 72 62 72 hstemhm
            return
          </CharString>
          <CharString index="170">
            13 callgsubr
            hstem
            64 -2 callsubr
            316 return
          </CharString>
          <CharString index="171">
            22 callgsubr
            hstem
            return
          </CharString>
          <CharString index="172">
            hlineto
            -14 -20 -6 -38 hvcurveto
            -548 vlineto
            return
          </CharString>
          <CharString index="173">
            231 0 21 432 20 return
          </CharString>
          <CharString index="174">
            48 callsubr
            vhcurveto
            return
          </CharString>
          <CharString index="175">
            121 -17 callsubr
            return
          </CharString>
          <CharString index="176">
            38 9 12 36 return
          </CharString>
          <CharString index="177">
            -158 hlineto
            hintmask 11110100
            -40 -6 -20 -14 -22 13 -16 33 hvcurveto
            return
          </CharString>
          <CharString index="178">
            56 callsubr
            102 hstem
            84 72 return
          </CharString>
          <CharString index="179">
            82 0 72 230 71 16 72 34 47 callsubr
            return
          </CharString>
          <CharString index="180">
            vlineto
            -40 -9 -11 -36 vhcurveto
            -240 hlineto
            -36 -9 11 40 hvcurveto
            return
          </CharString>
          <CharString index="181">
            72 347 72 return
          </CharString>
          <CharString index="182">
            42 callgsubr
            -3 callsubr
            return
          </CharString>
          <CharString index="183">
            -35 -9 -23 -15 -21 18 -14 26 return
          </CharString>
          <CharString index="184">
            72 57 18 callgsubr
            return
          </CharString>
          <CharString index="185">
            21 375 72 return
          </CharString>
          <CharString index="186">
            25 0 72 225 72 121 -21 95 72 hstem
            return
          </CharString>
          <CharString index="187">
            354 vlineto
            33 -18 9 -19 -29 -6 -19 -23 vhcurveto
            return
          </CharString>
          <CharString index="188">
            -8 callgsubr
            61 72 return
          </CharString>
          <CharString index="189">
            90 callgsubr
            hstemhm
            return
          </CharString>
          <CharString index="190">
            hstem
            84 98 callsubr
            return
          </CharString>
          <CharString index="191">
            72 360 72 return
          </CharString>
          <CharString index="192">
            hlineto
            141 90 85 126 127 -90 85 return
          </CharString>
          <CharString index="193">
            -391 495 198 hstem
            19 175 vstem
            return
          </CharString>
          <CharString index="194">
            -283 565 74 29 151 hstemhm
            40 73 return
          </CharString>
          <CharString index="195">
            7 -179 102 266 72 return
          </CharString>
          <CharString index="196">
            72 218 184 -72 72 return
          </CharString>
          <CharString index="197">
            303 -53 152 return
          </CharString>
          <CharString index="198">
            122 119 72 return
          </CharString>
          <CharString index="199">
            -9 72 424 72 return
          </CharString>
          <CharString index="200">
            31 -14 12 -22 return
          </CharString>
          <CharString index="201">
            -205 171 34 72 551 20 hstemhm
            return
          </CharString>
          <CharString index="202">
            hlineto
            -34 -7 -21 -14 -30 24 -8 17 hvcurveto
            return
          </CharString>
          <CharString index="203">
            -62 -33 -13 -14 -22 -13 6 -23 40 36 return
          </CharString>
          <CharString index="204">
            hlineto
            57 callsubr
            148 hvcurveto
            105 vlineto
            return
          </CharString>
          <CharString index="205">
            72 vstem
            156 return
          </CharString>
        <CharString name=".notdef">
          -65 0 71 535 72 hstem
          85 71 226 71 vstem
          156 546 rmoveto
          42 12 18 42 vhcurveto
          118 hlineto
          42 12 -18 -42 hvcurveto
          -416 vlineto
          -42 -12 -17 -42 vhcurveto
          -118 hlineto
          -42 -12 17 42 hvcurveto
          -71 -130 rmoveto
          368 678 -368 hlineto
          endchar
        </CharString>
        <CharString name=".null">
          endchar
        </CharString>
        <CharString name="A">
          74 callgsubr
          hstem
          24 73 416 -79 callsubr
          endchar
        </CharString>
        <CharString name="A.sc">
          -19 163 72 hstem
          29 -96 callsubr
          endchar
        </CharString>
        <CharString name="AE">
          301 0 72 112 72 61 72 180 72 hstem
          408 74 vstem
          482 317 rmoveto
          210 hlineto
          27 21 7 27 15 -7 23 -41 hvcurveto
          -210 180 331 -14 callsubr
          7 27 22 -13 16 -31 hvcurveto
          -371 hlineto
          -6 -13 -1 -13 -9 hvcurveto
          -394 -588 rlineto
          -8 -11 -2 -9 -7 vvcurveto
          -22 22 -6 8 9 17 5 22 15 vhcurveto
          120 173 rlineto
          207 -140 hlineto
          -32 13 -12 21 vhcurveto
          371 -14 callsubr
          7 27 22 -13 16 -31 hvcurveto
          -331 hlineto
          -74 422 rmoveto
          -238 -159 vlineto
          endchar
        </CharString>
        <CharString name="Aacute">
          74 callgsubr
          407 151 hstem
          24 73 154 152 110 -79 callsubr
          -48 558 rmoveto
          3 callsubr
        </CharString>
        <CharString name="Abreve">
          74 callgsubr
          432 74 hstem
          24 73 78 85 callgsubr
          78 73 vstem
          435 819 -95 callsubr
          -89 -183 -103 callsubr
          endchar
        </CharString>
        <CharString name="Acircumflex">
          74 callgsubr
          390 168 hstem
          24 73 57 303 56 -79 callsubr
          -253 442 -107 callgsubr
          endchar
        </CharString>
        <CharString name="Acyrillic">
          74 callgsubr
          hstem
          24 73 416 -79 callsubr
          endchar
        </CharString>
        <CharString name="Adieresis">
          74 callgsubr
          446 102 hstem
          24 73 62 -2 callgsubr
          62 -79 callsubr
          -195 446 -104 callsubr
          endchar
        </CharString>
        <CharString name="Agrave">
          74 callgsubr
          407 151 hstem
          24 73 90 152 174 -79 callsubr
          -90 472 -100 callsubr
          endchar
        </CharString>
        <CharString name="Alpha">
          74 callgsubr
          hstem
          24 73 416 -79 callsubr
          endchar
        </CharString>
        <CharString name="Alphatonos">
          13 189 72 308 224 hstemhm
          30 73 3 73 -20 72 288 73 hintmask 00000000
          hintmask 10100100
          352 -90 callsubr
          hintmask 01001000
          -224 532 -69 callgsubr
          hintmask 01010000
          -87 callgsubr
          hintmask 01001000
          -47 callgsubr
        </CharString>
        <CharString name="Amacron">
          74 callgsubr
          446 73 hstem
          24 73 43 330 43 73 cntrmask 00111000
          426 780 rmoveto
          -93 callsubr
          -80 -144 -103 callsubr
          endchar
        </CharString>
        <CharString name="Aogonek">
          6 -205 70 324 72 385 -20 hstem
          24 73 335 72 vstem
          195 261 rmoveto
          109 271 111 -271 rlineto
          89 -352 rmoveto
          5 11 37 39 33 vhcurveto
          12 1 20 9 24 vvcurveto
          6 -1 7 -2 6 vhcurveto
          -241 609 rlineto
          -74 hlineto
          -241 -609 rlineto
          -2 -6 -1 -7 -6 vvcurveto
          -27 27 -7 9 15 14 10 18 8 vhcurveto
          69 177 rlineto
          278 hlineto
          61 -156 rlineto
          -49 -53 -24 -43 -28 -59 callgsubr
        </CharString>
        <CharString name="Aring">
          74 callgsubr
          384 54 66 54 hstem
          24 73 121 54 66 54 121 73 vstem
          195 261 rmoveto
          109 271 111 -271 rlineto
          -69 375 rmoveto
          -82 hlineto
          -237 -599 rlineto
          -2 -6 -1 -7 -6 vvcurveto
          -27 27 -7 9 15 14 10 18 8 vhcurveto
          69 177 rlineto
          278 hlineto
          69 -177 rlineto
          -13 5 14 -15 18 hhcurveto
          10 26 7 27 6 -1 7 -2 6 hvcurveto
          -278 782 rmoveto
          -48 -39 -39 -48 -48 39 -39 48 48 39 39 48 48 -39 39 -48 hvcurveto
          -33 -87 rmoveto
          18 15 15 18 18 15 -15 -18 -18 -15 -15 -18 -18 -15 15 18 vhcurveto
          endchar
        </CharString>
        <CharString name="Atilde">
          74 callgsubr
          430 -8 callgsubr
          24 73 57 301 58 73 hintmask 00000000
          hintmask 10010100
          -84 callsubr
          hintmask 01001000
          -158 468 -97 callsubr
          hintmask 00101000
          -42 callgsubr
          hintmask 01001000
          -93 callgsubr
          hintmask 00101000
          -98 callsubr
          hintmask 01001000
          -43 callsubr
          hintmask 00101000
          -86 callgsubr
          endchar
        </CharString>
        <CharString name="B">
          -81 callsubr
        </CharString>
        <CharString name="Becyrillic">
          -7 -7 72 339 72 88 72 hstem
          85 72 318 72 vstem
          469 636 rmoveto
          -384 -600 hlineto
          -37 20 -6 14 vhcurveto
          191 hlineto
          148 89 115 126 126 -89 116 -148 hvcurveto
          -153 88 312 hlineto
          39 6 22 14 14 -6 22 -39 hvcurveto
          -159 -232 rmoveto
          116 49 -87 -83 -83 -48 -86 -117 hvcurveto
          -153 339 hlineto
          endchar
        </CharString>
        <CharString name="Beta">
          -81 callsubr
        </CharString>
        <CharString name="C">
          28 0 72 418 -21 95 72 hstem
          71 72 360 -88 callsubr
          endchar
        </CharString>
        <CharString name="Cacute">
          52 callsubr
          32 151 hstem
          71 72 118 152 90 -88 callsubr
          53 2 callgsubr
          endchar
        </CharString>
        <CharString name="Ccaron">
          52 callsubr
          19 164 hstem
          71 72 29 298 33 -88 callsubr
          29 655 -102 callsubr
          endchar
        </CharString>
        <CharString name="Ccedilla">
          28 -190 67 123 72 418 -21 95 72 hstem
          71 72 223 72 65 72 vstem
          297 hmoveto
          8 callsubr
          96 hlineto
          -91 callsubr
          -146 77 -35 149 -3 vhcurveto
          endchar
        </CharString>
        <CharString name="Ccircumflex">
          52 callsubr
          17 168 hstem
          71 72 25 303 32 72 vstem
          176 705 -107 callgsubr
          180 -821 rmoveto
          -85 callgsubr
          endchar
        </CharString>
        <CharString name="Cdotaccent">
          52 callsubr
          55 102 hstem
          71 72 120 122 118 -88 callsubr
          691 6 callsubr
        </CharString>
        <CharString name="Checyrillic">
          42 14 -21 167 72 411 -20 hstem
          57 -2 callsubr
          326 232 rmoveto
          -35 hlineto
          -122 -40 11 103 hvcurveto
          253 vlineto
          21 -7 23 -30 -21 -14 -12 -33 vhcurveto
          -254 vlineto
          -154 75 callgsubr
          -174 vlineto
          -22 9 -21 29 -19 callgsubr
          565 vlineto
          79 callgsubr
          -22 -14 -11 -33 vhcurveto
          -201 vlineto
          -84 -32 -82 -131 vhcurveto
          endchar
        </CharString>
        <CharString name="Chi">
          2 -45 callsubr
          hstem
          530 643 rmoveto
          -15 -10 -11 -11 -8 hvcurveto
          -195 -256 -194 256 rlineto
          10 -7 -10 12 -17 hhcurveto
          -8 -27 -6 -30 -4 1 -10 9 -11 hvcurveto
          205 -265 -205 -264 rlineto
          -8 -10 -2 -9 -8 vvcurveto
          -21 20 -12 15 14 12 9 11 8 vhcurveto
          194 257 195 -257 rlineto
          -9 7 10 -11 16 hhcurveto
          15 21 10 23 8 -2 9 -8 10 hvcurveto
          -205 264 205 265 rlineto
          9 12 1 9 4 vvcurveto
          29 -25 7 -11 vhcurveto
          endchar
        </CharString>
        <CharString name="D">
          56 48 callgsubr
          hstem
          84 -2 callsubr
          588 452 60 callgsubr
          -548 59 callsubr
          -72 2 rmoveto
          -104 -40 -10 -140 vhcurveto
          -180 492 198 hlineto
          121 41 -10 -104 hvcurveto
          endchar
        </CharString>
        <CharString name="Dcaron">
          56 48 callgsubr
          19 164 hstem
          84 72 7 298 55 72 vstem
          588 452 60 callgsubr
          -548 59 callsubr
          -72 2 rmoveto
          -104 -40 -10 -140 vhcurveto
          -180 492 198 hlineto
          121 41 -10 -104 hvcurveto
          -172 205 -102 callsubr
          endchar
        </CharString>
        <CharString name="Dcroat">
          56 0 72 216 73 213 72 hstem
          84 -2 callsubr
          516 186 rmoveto
          -104 -40 -10 -140 vhcurveto
          -180 216 84 hlineto
          26 18 14 22 23 -16 14 -28 hvcurveto
          -84 213 23 callsubr
          -241 15 callsubr
        </CharString>
        <CharString name="Decyrillic">
          12 -92 159 -67 72 492 72 hstemhm
          13 72 91 79 186 72 -12 -55 callgsubr
          hintmask 01111010
          85 -47 rmoveto
          47 416 -47 vlineto
          hintmask 10111010
          11 callgsubr
          hintmask 01111010
          47 vlineto
          hintmask 10111100
          59 -36 7 -24 vhcurveto
          570 -337 vlineto
          -211 -63 -287 -35 -71 vhcurveto
          hintmask 01111010
          -22 -43 -6 -61 hvcurveto
          -47 vlineto
          hintmask 10111010
          11 callgsubr
          170 611 rmoveto
          hintmask 01111100
          186 -492 -284 hlineto
          42 90 52 247 4 155 rrcurveto
          endchar
        </CharString>
        <CharString name="Delta">
          -11 0 73 571 -20 hstem
          530 hmoveto
          22 15 14 20 7 -2 8 -1 3 hvcurveto
          -227 563 rlineto
          13 -5 -11 16 -25 hhcurveto
          -25 -11 -16 -13 -5 hvcurveto
          -227 -563 rlineto
          -1 -3 -2 -8 -7 vvcurveto
          -20 15 -14 22 vhcurveto
          418 73 rmoveto
          -368 hlineto
          184 463 rlineto
          endchar
        </CharString>
        <CharString name="Djecyrillic">
          140 -205 72 147 61 callgsubr
          636 rmoveto
          5 callgsubr
          -104 vhcurveto
          -372 vlineto
          -38 1 callsubr
          -41 -8 -22 -14 -14 6 -22 43 64 53 14 125 vhcurveto
          358 63 callgsubr
          150 vlineto
          39 7 21 14 15 -6 22 -40 hvcurveto
          endchar
        </CharString>
        <CharString name="Dzecyrillic">
          54 callgsubr
          hstem
          61 72 392 72 vstem
          133 475 -54 callgsubr
        </CharString>
        <CharString name="Dzhecyrillic">
          61 0 72 hstem
          85 72 139 72 139 72 cntrmask 01110000
          296 -47 rmoveto
          -32 13 -13 23 32 4 21 24 vhcurveto
          47 211 586 vlineto
          24 callgsubr
          -350 17 callgsubr
          -586 211 vlineto
          endchar
        </CharString>
        <CharString name="E">
          -39 callgsubr
          83 callsubr
          322 -103 callgsubr
          endchar
        </CharString>
        <CharString name="E.sc">
          46 35 callgsubr
          hstem
          86 72 vstem
          158 -82 callgsubr
          endchar
        </CharString>
        <CharString name="Eacute">
          -39 callgsubr
          32 151 hstem
          84 72 109 152 vstem
          156 322 -103 callgsubr
          225 747 rmoveto
          3 callsubr
        </CharString>
        <CharString name="Ecaron">
          -39 callgsubr
          19 164 hstem
          84 72 16 298 vstem
          156 322 -103 callgsubr
          197 583 -102 callsubr
          endchar
        </CharString>
        <CharString name="Ecircumflex">
          -39 callgsubr
          15 168 hstem
          84 72 24 303 vstem
          156 322 -103 callgsubr
          32 631 -107 callgsubr
          endchar
        </CharString>
        <CharString name="Edieresis">
          71 callsubr
          29 -2 callgsubr
          vstem
          156 322 -103 callgsubr
          90 634 -104 callsubr
          endchar
        </CharString>
        <CharString name="Edotaccent">
          71 callsubr
          114 122 vstem
          331 706 rmoveto
          -106 callgsubr
          -175 -384 -103 callgsubr
          endchar
        </CharString>
        <CharString name="Efcyrillic">
          -15 14 -21 81 62 364 62 81 -20 hstem
          42 72 143 79 138 72 vstem
          336 33 rmoveto
          41 vlineto
          125 16 85 84 138 vvcurveto
          12 vlineto
          138 -85 84 -125 16 vhcurveto
          40 vlineto
          35 -24 6 -16 -15 -24 -6 -35 vhcurveto
          -40 vlineto
          -129 -14 -86 -85 -139 vvcurveto
          -12 vlineto
          -139 86 -85 129 -14 vhcurveto
          -41 vlineto
          -29 20 -11 18 32 9 21 19 vhcurveto
          138 291 rmoveto
          -12 vlineto
          -98 -47 -65 -91 -12 vhcurveto
          362 vlineto
          91 -13 47 -65 -97 vvcurveto
          -360 -12 rmoveto
          12 vlineto
          96 45 67 98 13 vhcurveto
          -364 vlineto
          -98 13 -45 66 97 vvcurveto
          endchar
        </CharString>
        <CharString name="Egrave">
          -39 callgsubr
          32 151 hstem
          84 72 58 152 vstem
          156 322 -103 callgsubr
          196 661 -100 callsubr
          endchar
        </CharString>
        <CharString name="Elcyrillic">
          12 48 callgsubr
          hstem
          113 84 261 72 vstem
          530 36 rmoveto
          600 -277 vlineto
          -115 -25 -39 -94 hvcurveto
          -385 vlineto
          -36 46 callgsubr
          64 65 14 119 vhcurveto
          384 vlineto
          35 13 12 50 vhcurveto
          198 -528 hlineto
          -36 21 -7 14 21 16 11 32 vhcurveto
          endchar
        </CharString>
        <CharString name="Emacron">
          56 callsubr
          73 hstem
          84 72 10 330 vstem
          452 779 rmoveto
          -93 callsubr
          -296 -457 -103 callgsubr
          endchar
        </CharString>
        <CharString name="Emcyrillic">
          90 -45 callsubr
          hstem
          84 72 381 72 vstem
          346 279 rmoveto
          -83 callsubr
        </CharString>
        <CharString name="Encyrillic">
          69 -7 21 293 72 244 20 hstem
          84 -2 callsubr
          156 35 rmoveto
          -31 callgsubr
          565 57 callgsubr
          41 callgsubr
          -221 -360 221 vlineto
          23 -10 20 -28 -14 -20 -6 -37 vhcurveto
          -565 vlineto
          -77 callgsubr
          endchar
        </CharString>
        <CharString name="Eng">
          70 -175 72 117 -21 650 -20 hstem
          84 -2 callsubr
          516 118 rmoveto
          -360 502 rlineto
          16 -11 -12 7 -15 hhcurveto
          -14 -20 -6 -37 hvcurveto
          -23 callgsubr
          29 7 18 21 93 callgsubr
          360 -504 rlineto
          -13 vlineto
          -93 -38 -10 -113 -25 -21 -8 -27 -22 13 -15 33 135 88 24 151 vhcurveto
          600 57 callgsubr
          -14 -21 -7 -39 vhcurveto
          endchar
        </CharString>
        <CharString name="Eogonek">
          33 -205 70 135 43 callgsubr
          175 72 hstem
          84 72 85 72 vstem
          313 53 callgsubr
          159 -14 callsubr
          7 27 22 -13 16 -31 hvcurveto
          -388 250 -24 callgsubr
          175 388 -14 callsubr
          7 27 22 -13 16 -31 hvcurveto
          -426 hlineto
          -14 -20 -6 -38 hvcurveto
          -553 vlineto
          -32 14 -12 20 vhcurveto
          167 hlineto
          -30 -38 -14 -31 -22 -59 callgsubr
        </CharString>
        <CharString name="Epsilon">
          -39 callgsubr
          83 callsubr
          322 -103 callgsubr
          endchar
        </CharString>
        <CharString name="Epsilontonos">
          74 -35 callgsubr
          -67 224 hstemhm
          12 73 -20 72 -12 -55 callgsubr
          hintmask 11100010
          197 322 -103 callgsubr
          hintmask 00010100
          -94 721 -69 callgsubr
          hintmask 00011000
          -87 callgsubr
          hintmask 00010100
          -47 callgsubr
        </CharString>
        <CharString name="Ercyrillic">
          -21 -7 21 308 72 175 72 hstem
          84 72 318 98 callsubr
          33 rmoveto
          289 201 vlineto
          120 69 57 103 128 -89 31 -148 hvcurveto
          -191 hlineto
          -14 -20 -6 -38 hvcurveto
          -564 32 callgsubr
          153 361 rmoveto
          -153 175 153 hlineto
          123 42 -13 -74 -71 -32 -17 -133 hvcurveto
          endchar
        </CharString>
        <CharString name="Ereversedcyrillic">
          79 callsubr
          53 -2 callsubr
          163 636 37 callsubr
          141 40 -11 -98 hvcurveto
          -86 -269 vlineto
          -33 -12 -14 -20 -14 5 -24 40 hvcurveto
          269 -113 hlineto
          -101 -41 -11 -140 vhcurveto
          -134 -33 callsubr
          35 -22 8 -14 -21 callgsubr
          -60 14 -62 96 hvcurveto
          141 hlineto
          166 87 30 151 hvcurveto
          274 vlineto
          151 -87 30 -166 vhcurveto
          endchar
        </CharString>
        <CharString name="Escyrillic">
          52 callsubr
          hstem
          71 72 360 -88 callsubr
          endchar
        </CharString>
        <CharString name="Eta">
          69 -7 21 293 72 244 20 hstem
          84 -2 callsubr
          156 35 rmoveto
          -31 callgsubr
          565 57 callgsubr
          41 callgsubr
          -221 -360 221 vlineto
          23 -10 20 -28 -14 -20 -6 -37 vhcurveto
          -565 vlineto
          -77 callgsubr
          endchar
        </CharString>
        <CharString name="Etatonos">
          113 -7 21 293 72 186 224 -166 20 hstemhm
          11 73 -20 72 -8 72 360 -55 callgsubr
          hintmask 11010011
          200 35 rmoveto
          -31 callgsubr
          565 57 callgsubr
          41 callgsubr
          -221 -360 221 vlineto
          23 -10 20 -28 -14 -20 -6 -37 vhcurveto
          -565 vlineto
          -77 callgsubr
          hintmask 00100100
          -98 754 -80 callsubr
          endchar
        </CharString>
        <CharString name="Eth">
          56 0 72 216 73 203 72 hstem
          84 -2 callsubr
          516 186 rmoveto
          -104 -40 -10 -140 vhcurveto
          -180 216 84 hlineto
          26 18 14 22 23 -16 14 -28 hvcurveto
          -84 203 23 callsubr
          -231 15 callsubr
        </CharString>
        <CharString name="Euro">
          -23 -15 72 166 73 45 73 165 72 hstem
          107 72 267 72 vstem
          446 527 rmoveto
          -10 callgsubr
          -9 callsubr
          60 -14 62 -96 vhcurveto
          -63 hlineto
          -134 -102 -83 -154 -2 hvcurveto
          -21 hlineto
          -34 -8 -21 -14 -15 8 -23 34 hvcurveto
          21 -45 -21 hlineto
          -29 -13 -15 -21 -29 21 -8 21 hvcurveto
          21 hlineto
          -155 2 102 -83 134 hhcurveto
          63 hlineto
          -96 callgsubr
          -56 hlineto
          -80 -84 33 133 -2 hvcurveto
          184 32 callsubr
          -184 45 184 -14 callsubr
          14 22 23 -16 14 -28 hvcurveto
          -184 hlineto
          106 2 59 59 105 hhcurveto
          56 -32 callgsubr
          -12 -40 hvcurveto
          endchar
        </CharString>
        <CharString name="F">
          12 14 -21 329 72 170 72 83 callsubr
          35 -15 callgsubr
        </CharString>
        <CharString name="Fitacyrillic">
          29 -9 72 202 72 -32 72 196 72 hstemhm
          64 72 360 -55 callgsubr
          hintmask 11011100
          426 337 rmoveto
          hintmask 10111100
          -40 -124 40 -73 hhcurveto
          -16 -19 -5 -9 -18 hvcurveto
          39 vlineto
          106 59 65 121 121 59 -65 -106 vhcurveto
          -37 vlineto
          -9 -13 -32 -19 -25 hhcurveto
          142 -107 rmoveto
          176 vlineto
          151 -104 88 -148 -149 -103 -88 -151 vhcurveto
          -176 vlineto
          -151 103 -88 149 -74 callsubr
          vhcurveto
          -72 4 rmoveto
          -107 -59 -64 -121 -121 -59 64 107 vhcurveto
          44 vlineto
          9 14 29 18 24 hhcurveto
          hintmask 11011100
          40 125 -40 73 hhcurveto
          21 19 7 8 15 hvcurveto
          endchar
        </CharString>
        <CharString name="G">
          42 0 72 164 72 182 -21 95 72 hstem
          71 -2 callsubr
          503 236 rmoveto
          -116 vlineto
          -38 -9 -10 -36 vhcurveto
          -152 hlineto
          -122 -41 10 102 hvcurveto
          268 vlineto
          101 41 11 140 vhcurveto
          134 -32 callgsubr
          -11 -40 -31 15 -13 21 22 14 13 33 59 -14 62 -96 hvcurveto
          -141 hlineto
          -165 -88 -27 -154 hvcurveto
          -274 vlineto
          -152 86 -29 149 vhcurveto
          159 hlineto
          96 14 59 56 hvcurveto
          193 -199 vlineto
          -30 -20 -8 -29 -21 16 -14 34 hvcurveto
          endchar
        </CharString>
        <CharString name="Gamma">
          -8 -7 21 550 72 hstem
          82 72 vstem
          199 564 rmoveto
          328 hlineto
          39 6 22 14 14 -6 22 -39 hvcurveto
          -335 hlineto
          -88 -22 -43 -90 hvcurveto
          -468 vlineto
          -36 22 -6 13 21 16 12 30 vhcurveto
          482 vlineto
          36 9 11 36 vhcurveto
          endchar
        </CharString>
        <CharString name="Gbreve">
          42 0 40 callgsubr
          57 74 hstem
          71 72 53 85 callgsubr
          47 72 vstem
          456 819 -95 callsubr
          47 -583 rmoveto
          -116 vlineto
          -38 -9 -10 -36 vhcurveto
          -152 hlineto
          -122 -41 10 102 hvcurveto
          268 vlineto
          101 41 11 140 vhcurveto
          134 -32 callgsubr
          -11 -40 -31 15 -13 21 22 14 13 33 59 -14 62 -96 hvcurveto
          -141 hlineto
          -165 -88 -27 -154 hvcurveto
          -274 vlineto
          -152 86 -29 149 vhcurveto
          159 hlineto
          96 14 59 56 hvcurveto
          193 -199 vlineto
          -30 -20 -8 -29 -21 16 -14 34 hvcurveto
          endchar
        </CharString>
        <CharString name="Gcircumflex">
          42 0 40 callgsubr
          15 168 hstem
          71 72 32 303 25 72 vstem
          183 703 -107 callgsubr
          211 -583 rmoveto
          -116 vlineto
          -38 -9 -10 -36 vhcurveto
          -152 hlineto
          -122 -41 10 102 hvcurveto
          268 vlineto
          101 41 11 140 vhcurveto
          134 -32 callgsubr
          -11 -40 -31 15 -13 21 22 14 13 33 59 -14 62 -96 hvcurveto
          -141 hlineto
          -165 -88 -27 -154 hvcurveto
          -274 vlineto
          -152 86 -29 149 vhcurveto
          159 hlineto
          96 14 59 56 hvcurveto
          193 -199 vlineto
          -30 -20 -8 -29 -21 16 -14 34 hvcurveto
          endchar
        </CharString>
        <CharString name="Gcommaaccent">
          42 -205 171 34 40 callgsubr
          hstemhm
          71 72 118 66 -66 113 129 -6 callsubr
          hintmask 1000001000000000
          327 -175 rmoveto
          40 83 rlineto
          hintmask 1000000100000000
          -101 callgsubr
          hintmask 0111110010000000
          176 411 rmoveto
          -116 vlineto
          -38 -9 -10 -36 vhcurveto
          -152 hlineto
          -122 -41 10 102 hvcurveto
          268 vlineto
          101 41 11 140 vhcurveto
          134 -32 callgsubr
          -11 -40 -31 15 -13 21 22 14 13 33 59 -14 62 -96 hvcurveto
          -141 hlineto
          -165 -88 -27 -154 hvcurveto
          -274 vlineto
          -152 86 -29 149 vhcurveto
          159 hlineto
          96 14 59 56 hvcurveto
          193 -199 vlineto
          -30 -20 -8 -29 -21 16 -14 34 hvcurveto
          endchar
        </CharString>
        <CharString name="Gdotaccent">
          42 0 40 callgsubr
          55 102 hstem
          71 72 130 122 108 72 vstem
          503 236 rmoveto
          -116 vlineto
          -38 -9 -10 -36 vhcurveto
          -152 hlineto
          -122 -41 10 102 hvcurveto
          268 vlineto
          101 41 11 140 vhcurveto
          134 -32 callgsubr
          -11 -40 -31 15 -13 21 22 14 13 33 59 -14 62 -96 hvcurveto
          -141 hlineto
          -165 -88 -27 -154 hvcurveto
          -274 vlineto
          -152 86 -29 149 vhcurveto
          159 hlineto
          96 14 59 56 hvcurveto
          193 -199 vlineto
          -30 -20 -8 -29 -21 16 -14 34 hvcurveto
          -42 455 rmoveto
          9 callgsubr
        </CharString>
        <CharString name="Gecyrillic">
          -8 14 -21 571 72 hstem
          82 72 vstem
          199 564 rmoveto
          328 hlineto
          39 6 22 14 14 -6 22 -39 hvcurveto
          -335 hlineto
          -88 -22 -43 -90 hvcurveto
          -468 vlineto
          -36 22 -6 13 21 16 12 30 vhcurveto
          482 vlineto
          36 9 11 36 vhcurveto
          endchar
        </CharString>
        <CharString name="Gheupturncyrillic">
          -1 14 -21 571 72 -72 184 hstemhm
          82 72 346 -55 callgsubr
          hintmask 11011000
          572 564 rmoveto
          139 vlineto
          hintmask 10111000
          39 -21 6 -14 -15 -22 -8 -37 vhcurveto
          hintmask 11011000
          -67 -308 vlineto
          -88 -22 -43 -90 hvcurveto
          -468 vlineto
          -36 22 -6 13 21 16 12 30 vhcurveto
          482 vlineto
          36 9 11 36 vhcurveto
          endchar
        </CharString>
        <CharString name="Gjecyrillic">
          -8 -7 21 550 72 32 151 hstem
          82 72 130 152 vstem
          199 564 rmoveto
          328 hlineto
          39 6 22 14 14 -6 22 -39 hvcurveto
          -335 hlineto
          -88 -22 -43 -90 hvcurveto
          -468 vlineto
          -36 22 -6 13 21 16 12 30 vhcurveto
          482 vlineto
          36 9 11 36 vhcurveto
          201 255 rmoveto
          3 callsubr
        </CharString>
        <CharString name="H">
          69 14 -21 314 72 264 -20 hstem
          84 -2 callsubr
          156 35 rmoveto
          -31 callgsubr
          565 57 callgsubr
          41 callgsubr
          -221 -360 221 vlineto
          23 -10 20 -28 -14 -20 -6 -37 vhcurveto
          -565 vlineto
          -77 callgsubr
          endchar
        </CharString>
        <CharString name="Hardsigncyrillic">
          53 -7 72 339 72 88 72 hstemhm
          24 204 -72 72 318 -55 callgsubr
          hintmask 11101100
          156 564 rmoveto
          -528 vlineto
          -37 23 -6 14 vhcurveto
          194 hlineto
          141 90 113 128 125 -89 117 -145 hvcurveto
          -156 160 70 callsubr
          314 -160 rmoveto
          113 49 -87 -83 -83 -48 -86 -111 hvcurveto
          hintmask 11101100
          -159 339 hlineto
          endchar
        </CharString>
        <CharString name="Hbar">
          73 14 -21 314 72 129 43 92 -20 hstem
          86 -2 callsubr
          54 508 rmoveto
          32 -473 hlineto
          -77 callgsubr
          -31 callgsubr
          473 29 vlineto
          19 10 8 12 15 -10 8 -19 hvcurveto
          -29 49 hlineto
          32 -16 11 -21 41 callgsubr
          -49 -360 49 vlineto
          23 -10 20 -28 -14 -20 -6 -37 vhcurveto
          -49 -32 vlineto
          -18 -8 -8 -13 -14 8 -8 18 hvcurveto
          464 hmoveto
          -129 -360 129 vlineto
          endchar
        </CharString>
        <CharString name="Hcircumflex">
          69 -7 21 293 72 244 20 8 168 hstem
          84 72 25 303 32 98 callsubr
          35 rmoveto
          -31 callgsubr
          565 57 callgsubr
          41 callgsubr
          -221 -360 221 vlineto
          23 -10 20 -28 -14 -20 -6 -37 vhcurveto
          -565 vlineto
          -77 callgsubr
          33 668 -107 callgsubr
          endchar
        </CharString>
        <CharString name="I">
          -363 14 -21 650 -20 83 callsubr
          33 -92 callgsubr
          endchar
        </CharString>
        <CharString name="I.sc">
          -359 14 -21 hstem
          86 72 vstem
          158 33 rmoveto
          485 vlineto
          34 -22 7 -14 -14 -22 -7 -34 vhcurveto
          -485 32 callgsubr
          endchar
        </CharString>
        <CharString name="IAcyrillic">
          26 -7 71 220 72 208 72 hstem
          90 74 308 73 vstem
          472 564 rmoveto
          -208 -145 vlineto
          -76 -87 15 86 78 57 29 106 hvcurveto
          183 -571 rmoveto
          17 18 10 30 hvcurveto
          558 vlineto
          13 -1 32 -33 vhcurveto
          -184 hlineto
          -120 -117 -40 -136 -61 27 -64 79 -31 hvcurveto
          -24 -21 -17 -28 -9 -32 -28 -102 rcurveline
          -14 -4 -24 -43 -33 hhcurveto
          -14 -32 -3 -33 -22 16 -13 30 61 54 49 77 21 hvcurveto
          25 93 rlineto
          43 12 22 29 73 hhcurveto
          147 -251 hlineto
          -15 6 -25 32 vhcurveto
          endchar
        </CharString>
        <CharString name="IUcyrillic">
          164 -9 72 224 72 214 72 hstem
          84 72 44 75 356 72 vstem
          457 573 rmoveto
          115 -17 callsubr
          -170 vlineto
          -107 -59 -63 -115 -114 -68 62 108 vhcurveto
          170 vlineto
          107 68 63 114 vhcurveto
          -582 vmoveto
          141 105 88 151 hvcurveto
          176 vlineto
          151 -105 88 -141 -147 -110 -88 -151 vhcurveto
          -47 -44 244 -22 callsubr
          -14 -22 -7 -34 vhcurveto
          -569 96 callgsubr
          255 44 -57 vlineto
          -151 110 -88 147 vhcurveto
          endchar
        </CharString>
        <CharString name="Iacute">
          -363 -45 callsubr
          25 151 hstemhm
          84 72 -71 152 hintmask 00000000
          hintmask 11010000
          156 33 -92 callgsubr
          hintmask 00101000
          45 786 rmoveto
          3 callsubr
        </CharString>
        <CharString name="Icircumflex">
          -363 -45 callsubr
          8 168 hstemhm
          -30 303 -189 -55 callgsubr
          hintmask 11001000
          156 33 -92 callgsubr
          hintmask 00110000
          -178 670 -107 callgsubr
          endchar
        </CharString>
        <CharString name="Icyrillic">
          -363 -45 callsubr
          83 callsubr
          33 -92 callgsubr
          endchar
        </CharString>
        <CharString name="Idieresis">
          -363 -45 callsubr
          63 102 hstemhm
          -26 122 -12 72 -12 122 hintmask 00000000
          hintmask 11001000
          156 33 -92 callgsubr
          hintmask 00110100
          -121 673 -104 callsubr
          endchar
        </CharString>
        <CharString name="Idotaccent">
          -363 -45 callsubr
          48 102 hstemhm
          59 81 callgsubr
          hintmask 11001000
          156 33 -92 callgsubr
          hintmask 00110000
          -36 658 rmoveto
          9 callgsubr
        </CharString>
        <CharString name="Ie.ukran">
          79 callsubr
          71 -2 callsubr
          465 636 rmoveto
          -141 hlineto
          -166 -87 -30 -151 hvcurveto
          -274 vlineto
          -151 87 -30 166 vhcurveto
          141 hlineto
          96 14 62 60 39 -22 6 -14 -14 -22 -8 -35 -40 1 callsubr
          hvcurveto
          -134 hlineto
          -140 -41 11 101 hvcurveto
          113 269 vlineto
          40 5 24 14 20 -12 14 -33 hvcurveto
          -269 86 hlineto
          98 40 11 141 34 callgsubr
        </CharString>
        <CharString name="Iecyrillic">
          -39 callgsubr
          83 callsubr
          322 -103 callgsubr
          endchar
        </CharString>
        <CharString name="Igrave">
          -363 -45 callsubr
          25 151 hstemhm
          4 152 -72 -55 callgsubr
          hintmask 11001000
          156 33 -92 callgsubr
          hintmask 00110000
          -14 700 -100 callsubr
          endchar
        </CharString>
        <CharString name="Iicyrillic">
          69 14 -21 650 -20 hstem
          84 -2 callsubr
          -63 callsubr
          endchar
        </CharString>
        <CharString name="Iicyrillic_grave">
          69 -7 21 607 27 callsubr
          84 72 64 175 121 -55 callgsubr
          hintmask 10110100
          -63 callsubr
          hintmask 01001000
          265 692 -98 callgsubr
          endchar
        </CharString>
        <CharString name="Iishortcyrillic">
          69 -45 callsubr
          -12 72 hstemhm
          84 72 17 72 175 72 24 -55 callgsubr
          hintmask 11010010
          -63 callsubr
          hintmask 00101100
          155 638 -71 callsubr
          endchar
        </CharString>
        <CharString name="Imacron">
          -363 -45 callsubr
          63 73 hstemhm
          -45 330 -201 -55 callgsubr
          hintmask 00110000
          241 779 rmoveto
          -93 callsubr
          hintmask 11001000
          -85 -746 -92 callgsubr
          endchar
        </CharString>
        <CharString name="Iocyrillic">
          71 callsubr
          29 -2 callgsubr
          vstem
          156 322 -103 callgsubr
          90 634 -104 callsubr
          endchar
        </CharString>
        <CharString name="Iogonek">
          -357 -205 70 778 -20 hstem
          4 72 14 72 vstem
          76 -91 rmoveto
          6 13 46 53 35 vhcurveto
          16 6 4 16 15 vvcurveto
          569 vlineto
          34 -22 7 -14 -14 -22 -7 -34 vhcurveto
          -555 vlineto
          -58 -59 -28 -49 -30 -59 callgsubr
        </CharString>
        <CharString name="Iota">
          -363 -45 callsubr
          83 callsubr
          33 -92 callgsubr
          endchar
        </CharString>
        <CharString name="Iotadieresis">
          -363 -45 callsubr
          63 102 hstemhm
          -26 122 -12 72 -12 122 hintmask 00000000
          hintmask 11001000
          156 33 -92 callgsubr
          hintmask 00110100
          -121 673 -104 callsubr
          endchar
        </CharString>
        <CharString name="Iotatonos">
          -316 -7 21 555 224 -170 20 hstemhm
          10 73 -20 72 -4 -55 callgsubr
          hintmask 10100100
          203 33 -92 callgsubr
          hintmask 01001000
          -102 760 -69 callgsubr
          hintmask 01010000
          -87 callgsubr
          hintmask 01001000
          -47 callgsubr
        </CharString>
        <CharString name="Itilde">
          -363 -45 callsubr
          63 -8 callgsubr
          -31 301 -186 -55 callgsubr
          hintmask 00101000
          72 744 -97 callsubr
          hintmask 00011000
          -42 callgsubr
          hintmask 00101000
          -93 callgsubr
          hintmask 00011000
          -98 callsubr
          hintmask 00101000
          -43 callsubr
          hintmask 00011000
          -86 callgsubr
          hintmask 11000100
          84 -711 -92 callgsubr
          endchar
        </CharString>
        <CharString name="J">
          -12 -8 72 579 -20 hstem
          33 73 332 72 vstem
          -51 callsubr
          endchar
        </CharString>
        <CharString name="Jcircumflex">
          -12 -8 72 559 20 9 168 hstemhm
          33 73 196 303 -167 -55 callgsubr
          hintmask 11010100
          -51 callsubr
          hintmask 00101000
          38 640 -107 callgsubr
          endchar
        </CharString>
        <CharString name="Jecyrillic">
          -12 -8 72 559 20 hstem
          33 73 332 72 vstem
          -51 callsubr
          endchar
        </CharString>
        <CharString name="K">
          -43 14 -21 650 -20 hstem
          84 72 vstem
          554 27 -72 callgsubr
        </CharString>
        <CharString name="Kacyrillic">
          13 -7 72 195 72 210 72 hstem
          84 72 252 75 vstem
          -51 callgsubr
          endchar
        </CharString>
        <CharString name="Kappa">
          -43 -45 callsubr
          hstem
          84 72 vstem
          554 27 -72 callgsubr
        </CharString>
        <CharString name="Kcommaaccent">
          -43 -171 171 -45 callsubr
          hstemhm
          84 72 106 -6 callgsubr
          hintmask 10001000
          328 -141 -77 callsubr
          hintmask 01110000
          226 168 -72 callgsubr
        </CharString>
        <CharString name="Khacyrillic">
          2 -45 callsubr
          hstem
          530 643 rmoveto
          -15 -10 -11 -11 -8 hvcurveto
          -195 -256 -194 256 rlineto
          10 -7 -10 12 -17 hhcurveto
          -8 -27 -6 -30 -4 1 -10 9 -11 hvcurveto
          205 -265 -205 -264 rlineto
          -8 -10 -2 -9 -8 vvcurveto
          -21 20 -12 15 14 12 9 11 8 vhcurveto
          194 257 195 -257 rlineto
          -9 7 10 -11 16 hhcurveto
          15 21 10 23 8 -2 9 -8 10 hvcurveto
          -205 264 205 265 rlineto
          9 12 1 9 4 vvcurveto
          29 -25 7 -11 vhcurveto
          endchar
        </CharString>
        <CharString name="Kjecyrillic">
          13 -7 72 195 72 210 72 -35 198 hstemhm
          84 72 77 175 0 75 hintmask 00000000
          hintmask 11101010
          -51 callgsubr
          hintmask 00010100
          112 547 rmoveto
          -60 callgsubr
        </CharString>
        <CharString name="L">
          -49 0 72 571 -20 hstem
          84 72 vstem
          118 hmoveto
          -50 callgsubr
          endchar
        </CharString>
        <CharString name="Lacute">
          -49 0 72 551 20 26 151 hstemhm
          80 152 -148 -55 callgsubr
          hintmask 11001000
          118 hmoveto
          -50 callgsubr
          hintmask 00110000
          78 820 rmoveto
          3 callsubr
        </CharString>
        <CharString name="Lambda">
          5 23 4 rmoveto
          -16 25 -4 11 16 16 8 12 5 vhcurveto
          207 523 209 -523 rlineto
          -5 2 13 -15 22 hhcurveto
          11 25 4 16 10 -1 8 -2 6 hvcurveto
          -241 608 rlineto
          -74 hlineto
          -241 -608 rlineto
          -2 -6 -1 -8 -10 vvcurveto
          endchar
        </CharString>
        <CharString name="Lcaron">
          -49 0 72 417 171 -37 20 hstemhm
          84 72 54 -6 callgsubr
          hintmask 10110000
          118 hmoveto
          -50 callgsubr
          hintmask 01001000
          158 519 rmoveto
          40 83 rlineto
          hintmask 01000100
          -101 callgsubr
          endchar
        </CharString>
        <CharString name="Lcommaaccent">
          -49 94 callsubr
          84 72 91 -6 callgsubr
          hintmask 10001000
          313 -175 -77 callsubr
          hintmask 01110000
          -195 175 rmoveto
          -50 callgsubr
          endchar
        </CharString>
        <CharString name="Ljecyrillic">
          341 -7 72 279 72 148 72 hstem
          115 72 271 72 306 72 vstem
          674 344 rmoveto
          113 49 -58 -82 -82 -49 -57 -110 hvcurveto
          -147 279 hlineto
          72 vmoveto
          220 -277 vlineto
          -115 -23 -39 -94 hvcurveto
          -388 vlineto
          -36 -11 -10 -36 -37 -9 -20 -13 -29 22 -7 24 63 56 13 120 vhcurveto
          384 vlineto
          35 22 12 51 vhcurveto
          198 -528 hlineto
          -33 22 -10 17 vhcurveto
          180 85 callsubr
          -144 hvcurveto
          endchar
        </CharString>
        <CharString name="Lslash">
          -41 87 callgsubr
          92 72 vstem
          126 hmoveto
          371 -11 callgsubr
          -333 254 hlineto
          61 30 14 callsubr
          -34 -17 rlineto
          196 vlineto
          9 callsubr
          -233 vlineto
          -64 -32 14 callgsubr
          37 19 rlineto
          -247 67 callsubr
          endchar
        </CharString>
        <CharString name="M">
          90 14 -21 650 -20 hstem
          84 72 381 72 vstem
          346 279 rmoveto
          -83 callsubr
        </CharString>
        <CharString name="Mu">
          90 -45 callsubr
          hstem
          84 72 381 72 vstem
          346 279 rmoveto
          -83 callsubr
        </CharString>
        <CharString name="N">
          69 14 -21 650 -20 hstem
          84 -2 callsubr
          553 -7 -92 callsubr
          endchar
        </CharString>
        <CharString name="Nacute">
          69 -7 21 607 27 callsubr
          84 72 101 175 84 -55 callgsubr
          hintmask 10110100
          553 -7 -92 callsubr
          hintmask 01001000
          -261 628 rmoveto
          -60 callgsubr
        </CharString>
        <CharString name="Ncaron">
          69 -45 callsubr
          -6 164 hstemhm
          84 72 31 298 31 -55 callgsubr
          hintmask 11010100
          553 -7 -92 callsubr
          hintmask 00101000
          -185 644 -102 callsubr
          endchar
        </CharString>
        <CharString name="Ncommaaccent">
          69 -171 171 -45 callsubr
          hstemhm
          84 72 124 66 -66 113 123 -55 callgsubr
          hintmask 10001000
          346 -141 -77 callsubr
          hintmask 01110010
          207 134 -92 callsubr
          endchar
        </CharString>
        <CharString name="Njecyrillic">
          369 -7 72 279 72 227 -20 hstem
          84 72 345 73 290 72 vstem
          708 344 rmoveto
          108 48 -58 -82 -82 -49 -57 -107 hvcurveto
          -134 279 hlineto
          72 vmoveto
          184 vlineto
          24 -7 19 -31 41 callgsubr
          -184 -345 184 vlineto
          22 -9 21 -29 -14 -20 -6 -37 vhcurveto
          -23 callgsubr
          21 15 10 33 vhcurveto
          308 345 -307 vlineto
          -25 13 -19 23 vhcurveto
          171 hlineto
          140 88 86 125 126 -89 86 -139 hvcurveto
          endchar
        </CharString>
        <CharString name="Ntilde">
          69 -45 callsubr
          48 -8 callgsubr
          84 72 28 301 31 -55 callgsubr
          hintmask 11001010
          553 -7 -92 callsubr
          hintmask 00100100
          -266 736 -100 callgsubr
          endchar
        </CharString>
        <CharString name="Nu">
          69 -45 callsubr
          hstem
          84 -2 callsubr
          553 -7 -92 callsubr
          endchar
        </CharString>
        <CharString name="O">
          63 callsubr
          -9 rmoveto
          -12 callsubr
          151 -104 88 -148 -149 -103 -88 -151 vhcurveto
          5 callsubr
          582 47 callgsubr
          -170 -60 callsubr
          -119 -61 62 108 vhcurveto
          -67 callsubr
          endchar
        </CharString>
        <CharString name="O.sc">
          24 92 callsubr
          hstem
          62 -2 callsubr
          314 25 callgsubr
          90 vlineto
          151 -104 88 -148 -149 -103 -88 -151 vhcurveto
          -90 34 callsubr
          496 47 callgsubr
          -84 -60 callsubr
          -119 -61 62 108 vhcurveto
          84 vlineto
          106 59 64 121 vhcurveto
          endchar
        </CharString>
        <CharString name="OE">
          159 -9 72 -63 43 callgsubr
          174 68 -63 72 hstemhm
          64 72 257 -55 callgsubr
          hintmask 10101110
          397 625 rmoveto
          14 -31 -37 6 -41 hhcurveto
          -101 -123 -88 -151 hvcurveto
          -176 vlineto
          -151 123 -88 107 43 32 7 14 33 vhcurveto
          hintmask 01110110
          -7 7 11 -5 13 hhcurveto
          236 hlineto
          33 12 14 20 14 -5 24 -40 hvcurveto
          -204 250 89 hlineto
          27 21 7 27 24 -15 14 -33 hvcurveto
          -89 174 210 hlineto
          39 6 21 15 26 -21 6 -24 hvcurveto
          -249 hlineto
          -16 -8 -5 -6 -5 hvcurveto
          hintmask 10101110
          -103 -562 rmoveto
          -75 -83 60 110 hvcurveto
          170 vlineto
          109 83 61 69 59 31 -15 -12 15 vhcurveto
          -456 vlineto
          -18 -24 -28 -9 -47 hhcurveto
          endchar
        </CharString>
        <CharString name="Oacute">
          29 24 callsubr
          144 152 64 72 vstem
          316 -9 rmoveto
          -12 callsubr
          151 -104 88 -148 -149 -103 -88 -151 vhcurveto
          5 callsubr
          582 47 callgsubr
          -170 -60 callsubr
          -119 -61 62 108 vhcurveto
          -67 callsubr
          80 246 rmoveto
          3 callsubr
        </CharString>
        <CharString name="Ocircumflex">
          13 callgsubr
          6 168 hstem
          64 72 29 303 28 72 vstem
          316 -9 rmoveto
          -12 callsubr
          151 -104 88 -148 -149 -103 -88 -151 vhcurveto
          5 callsubr
          582 47 callgsubr
          -170 -60 callsubr
          -119 -61 62 108 vhcurveto
          -67 callsubr
          -143 130 -107 callgsubr
          endchar
        </CharString>
        <CharString name="Ocyrillic">
          63 callsubr
          -9 rmoveto
          -12 callsubr
          151 -104 88 -148 -149 -103 -88 -151 vhcurveto
          5 callsubr
          582 47 callgsubr
          -170 -60 callsubr
          -119 -61 62 108 vhcurveto
          -67 callsubr
          endchar
        </CharString>
        <CharString name="Odieresis">
          13 callgsubr
          61 102 hstem
          64 72 34 -2 callgsubr
          34 72 vstem
          316 -9 rmoveto
          -12 callsubr
          151 -104 88 -148 -149 -103 -88 -151 vhcurveto
          5 callsubr
          582 47 callgsubr
          -170 -60 callsubr
          -119 -61 62 108 vhcurveto
          -67 callsubr
          -85 133 -104 callsubr
          endchar
        </CharString>
        <CharString name="Ograve">
          29 24 callsubr
          63 152 145 72 vstem
          316 -9 rmoveto
          -12 callsubr
          151 -104 88 -148 -149 -103 -88 -151 vhcurveto
          5 callsubr
          582 47 callgsubr
          -170 -60 callsubr
          -119 -61 62 108 vhcurveto
          -67 callsubr
          21 160 -100 callsubr
          endchar
        </CharString>
        <CharString name="Ohorn">
          67 -15 callsubr
          hstem
          64 84 callsubr
          39 74 vstem
          92 callgsubr
          68 callsubr
          -170 -60 callsubr
          -119 -61 62 108 vhcurveto
          -67 callsubr
          -582 -7 callgsubr
          24 -3 22 -5 21 vhcurveto
          63 7 58 25 71 vvcurveto
          51 -48 35 1 1 vhcurveto
          -95 callgsubr
          -23 -12 -14 -64 -1 vhcurveto
          66 -43 -77 37 -95 hhcurveto
          -149 -103 -88 -151 hvcurveto
          5 callsubr
          endchar
        </CharString>
        <CharString name="Ohungarumlaut">
          13 callgsubr
          23 151 hstemhm
          64 72 61 152 -12 152 7 -55 callgsubr
          hintmask 11010010
          316 -9 rmoveto
          -12 callsubr
          151 -104 88 -148 -149 -103 -88 -151 vhcurveto
          5 callsubr
          582 47 callgsubr
          -170 -60 callsubr
          -119 -61 62 108 vhcurveto
          -67 callsubr
          hintmask 00101000
          -3 246 rmoveto
          -104 callgsubr
          hintmask 00100100
          -4 callgsubr
        </CharString>
        <CharString name="Omacron">
          13 callgsubr
          61 73 hstem
          64 72 15 330 15 72 cntrmask 00011100
          437 779 rmoveto
          -93 callsubr
          -121 -788 rmoveto
          -12 callsubr
          151 -104 88 -148 -149 -103 -88 -151 vhcurveto
          5 callsubr
          582 47 callgsubr
          -170 -60 callsubr
          -119 -61 62 108 vhcurveto
          -67 callsubr
          endchar
        </CharString>
        <CharString name="Omega">
          29 0 72 501 72 hstem
          64 72 61 80 78 80 61 72 vstem
          355 -80 callgsubr
          endchar
        </CharString>
        <CharString name="Omegatonos">
          49 0 72 497 224 -220 72 hstemhm
          43 73 -32 72 -60 72 49 80 78 80 61 -6 callsubr
          hintmask 1010101110000000
          375 -80 callgsubr
          hintmask 0100010000000000
          -241 636 -69 callgsubr
          hintmask 0101000000000000
          -87 callgsubr
          hintmask 0100010000000000
          -47 callgsubr
        </CharString>
        <CharString name="Omicron">
          63 callsubr
          -9 rmoveto
          -12 callsubr
          151 -104 88 -148 -149 -103 -88 -151 vhcurveto
          5 callsubr
          582 47 callgsubr
          -170 -60 callsubr
          -119 -61 62 108 vhcurveto
          -67 callsubr
          endchar
        </CharString>
        <CharString name="Omicrontonos">
          58 -9 72 506 224 -220 72 hstemhm
          24 73 -20 72 -56 72 360 -55 callgsubr
          hintmask 10100110
          345 -9 rmoveto
          -12 callsubr
          151 -104 88 -148 -149 -103 -88 -151 vhcurveto
          5 callsubr
          582 47 callgsubr
          -170 -60 callsubr
          -119 -61 62 108 vhcurveto
          -67 callsubr
          hintmask 01001000
          -230 220 -69 callgsubr
          hintmask 01010000
          -87 callgsubr
          hintmask 01001000
          -47 callgsubr
        </CharString>
        <CharString name="Oslash">
          50 callgsubr
          52 41 -12 -22 29 hvcurveto
          -289 -383 rlineto
          -9 22 -4 26 29 vvcurveto
          -67 callsubr
          220 73 rmoveto
          -10 -11 -5 -14 -10 hvcurveto
          -24 -31 rlineto
          32 -43 -57 17 -65 hhcurveto
          -149 -103 -88 -151 hvcurveto
          -176 vlineto
          -54 13 -46 24 -37 vhcurveto
          -32 -43 rlineto
          -8 -10 -2 -9 -8 vvcurveto
          -21 22 -14 15 13 10 8 10 8 vhcurveto
          25 33 rlineto
          -31 43 56 -17 65 hhcurveto
          -12 callsubr
          54 -13 46 -24 37 vhcurveto
          31 41 rlineto
          8 10 3 9 8 vvcurveto
          19 -19 16 -18 vhcurveto
          -53 -167 rmoveto
          9 -22 4 -25 -29 vvcurveto
          -170 -60 callsubr
          -51 -41 11 22 -29 vhcurveto
          endchar
        </CharString>
        <CharString name="Otilde">
          13 callgsubr
          46 -8 callgsubr
          64 72 29 301 30 -55 callgsubr
          hintmask 11001010
          316 -9 rmoveto
          -12 callsubr
          151 -104 88 -148 -149 -103 -88 -151 vhcurveto
          5 callsubr
          582 47 callgsubr
          -170 -60 callsubr
          -119 -61 62 108 vhcurveto
          -67 callsubr
          hintmask 00100100
          -48 156 -100 callgsubr
          endchar
        </CharString>
        <CharString name="P">
          -23 14 -21 329 72 175 72 hstem
          84 72 318 98 callsubr
          33 rmoveto
          289 201 vlineto
          120 69 57 103 128 -89 31 -148 hvcurveto
          -191 hlineto
          -14 -20 -6 -38 hvcurveto
          -564 32 callgsubr
          153 361 rmoveto
          -153 175 153 hlineto
          123 42 -13 -74 -71 -32 -17 -133 hvcurveto
          endchar
        </CharString>
        <CharString name="Pecyrillic">
          61 14 -21 571 -5 callgsubr
        </CharString>
        <CharString name="Phi">
          -15 -7 21 60 62 364 62 61 20 hstem
          42 72 143 79 138 72 vstem
          336 33 rmoveto
          41 vlineto
          125 16 85 84 138 vvcurveto
          12 vlineto
          138 -85 84 -125 16 vhcurveto
          40 vlineto
          35 -24 6 -16 -15 -24 -6 -35 vhcurveto
          -40 vlineto
          -129 -14 -86 -85 -139 vvcurveto
          -12 vlineto
          -139 86 -85 129 -14 vhcurveto
          -41 vlineto
          -29 20 -11 18 32 9 21 19 vhcurveto
          138 291 rmoveto
          -12 vlineto
          -98 -47 -65 -91 -12 vhcurveto
          362 vlineto
          91 -13 47 -65 -97 vvcurveto
          -360 -12 rmoveto
          12 vlineto
          96 45 67 98 13 vhcurveto
          -364 vlineto
          -98 13 -45 66 97 vvcurveto
          endchar
        </CharString>
        <CharString name="Pi">
          61 -7 21 550 -5 callgsubr
        </CharString>
        <CharString name="Psi">
          -3 14 -21 222 73 355 -20 hstem
          48 72 144 74 142 72 vstem
          480 600 rmoveto
          -146 vlineto
          -99 -48 -54 -94 -12 vhcurveto
          311 vlineto
          38 -23 5 -14 -18 -19 -9 -34 vhcurveto
          -312 vlineto
          -95 12 -49 54 100 vvcurveto
          146 vlineto
          35 -22 8 -14 -14 -22 -7 -34 vhcurveto
          -149 vlineto
          -139 88 -85 128 -14 vhcurveto
          -182 vlineto
          -31 19 -9 17 32 6 21 19 vhcurveto
          182 vlineto
          126 15 88 85 138 vvcurveto
          149 vlineto
          34 -21 7 -14 -15 -22 -9 -34 vhcurveto
          endchar
        </CharString>
        <CharString name="Q">
          50 callgsubr
          68 callsubr
          -170 vlineto
          -42 -10 -35 -16 -26 vhcurveto
          -46 42 rlineto
          14 -15 -13 3 -8 hhcurveto
          -24 -15 -19 -17 -11 10 -13 8 -5 hvcurveto
          49 -41 rlineto
          -13 -26 -34 -7 -40 hhcurveto
          -119 -61 62 108 hvcurveto
          -67 callsubr
          -582 vmoveto
          59 55 13 24 40 hvcurveto
          29 -29 rlineto
          -8 9 13 -3 10 hhcurveto
          20 14 19 15 13 -7 11 -7 7 hvcurveto
          -28 26 rlineto
          29 38 16 52 61 vvcurveto
          176 vlineto
          151 -104 88 -148 -149 -103 -88 -151 vhcurveto
          5 callsubr
          endchar
        </CharString>
        <CharString name="R">
          6 14 -21 329 72 175 77 hstemhm
          84 72 318 72 -64 -55 callgsubr
          hintmask 11111000
          438 336 -58 callsubr
          hintmask 11110100
          -48 callsubr
          hintmask 11111000
          7 callgsubr
          endchar
        </CharString>
        <CharString name="Racute">
          6 -7 21 308 72 175 77 22 151 hstemhm
          84 72 54 152 112 -54 callsubr
          170 425 rmoveto
          3 callsubr
        </CharString>
        <CharString name="Rcaron">
          6 -7 21 308 72 175 77 11 164 hstemhm
          84 72 -18 298 38 -54 callsubr
          163 263 -102 callsubr
          endchar
        </CharString>
        <CharString name="Rcommaaccent">
          6 -171 171 -7 21 308 72 175 77 hstemhm
          84 72 106 66 -66 113 99 72 -64 -6 callsubr
          hintmask 1000010000000000
          328 -141 rmoveto
          40 83 rlineto
          hintmask 1000001000000000
          -101 callgsubr
          hintmask 0111100100000000
          110 477 -58 callsubr
          hintmask 0111100010000000
          -48 callsubr
          hintmask 0111100100000000
          7 callgsubr
          endchar
        </CharString>
        <CharString name="Rho">
          -21 -7 21 308 72 175 72 hstem
          84 72 318 98 callsubr
          33 rmoveto
          289 201 vlineto
          120 69 57 103 128 -89 31 -148 hvcurveto
          -191 hlineto
          -14 -20 -6 -38 hvcurveto
          -564 32 callgsubr
          153 361 rmoveto
          -153 175 153 hlineto
          123 42 -13 -74 -71 -32 -17 -133 hvcurveto
          endchar
        </CharString>
        <CharString name="S">
          54 callgsubr
          hstem
          61 72 392 72 vstem
          133 475 -54 callgsubr
        </CharString>
        <CharString name="Sacute">
          54 callgsubr
          24 151 hstem
          61 72 130 152 110 72 vstem
          133 475 -99 callgsubr
          246 344 rmoveto
          3 callsubr
        </CharString>
        <CharString name="Scaron">
          54 callgsubr
          11 164 hstem
          61 72 46 298 48 72 vstem
          133 475 -99 callgsubr
          227 180 -102 callsubr
          endchar
        </CharString>
        <CharString name="Scedilla">
          55 -190 67 115 72 508 72 hstem
          61 72 254 72 66 72 vstem
          133 475 rmoveto
          34 18 63 87 vhcurveto
          106 hlineto
          142 38 -9 -107 -25 14 -18 22 15 22 9 34 161 -89 27 -164 hvcurveto
          -76 hlineto
          -165 -42 -89 -77 -91 37 -51 102 -20 hvcurveto
          273 -51 rlineto
          15 -4 37 -30 -68 vvcurveto
          -35 -17 -64 -78 vhcurveto
          -118 hlineto
          -139 -39 11 107 25 -14 18 -21 -24 -14 -16 -27 -162 91 -28 160 hvcurveto
          7 hlineto
          8 -61 60 -18 -11 -67 callgsubr
          58 -53 7 -13 26 hvcurveto
          15 hlineto
          148 41 89 79 76 -31 80 -106 20 hvcurveto
          -275 49 rlineto
          -28 7 -24 36 47 vvcurveto
          endchar
        </CharString>
        <CharString name="Scircumflex">
          54 callgsubr
          7 168 hstem
          61 72 37 303 52 72 vstem
          133 475 -99 callgsubr
          45 228 -107 callgsubr
          endchar
        </CharString>
        <CharString name="Scommaaccent">
          55 -205 171 26 72 508 72 hstemhm
          61 72 148 66 -66 113 131 -55 callgsubr
          hintmask 10001000
          347 -175 -77 callsubr
          hintmask 01110010
          -214 650 -54 callgsubr
        </CharString>
        <CharString name="Shacyrillic">
          133 0 72 hstem
          85 72 175 72 175 72 cntrmask 01110000
          85 hmoveto
          566 586 hlineto
          24 callgsubr
          -175 80 callgsubr
          -514 -175 17 callgsubr
          endchar
        </CharString>
        <CharString name="Shchacyrillic">
          150 0 72 hstemhm
          85 72 172 72 178 72 -14 -55 callgsubr
          hintmask 11101000
          329 586 rmoveto
          -514 -172 17 callgsubr
          -586 552 -47 vlineto
          11 callgsubr
          47 vlineto
          hintmask 11110000
          60 -33 11 -25 1 vhcurveto
          514 vlineto
          24 callgsubr
          -178 80 callgsubr
          endchar
        </CharString>
        <CharString name="Sigma">
          16 0 72 503 72 hstem
          32 -41 callsubr
        </CharString>
        <CharString name="Softsigncyrillic">
          -19 -7 72 339 72 hstem
          84 72 318 72 vstem
          -25 callsubr
          endchar
        </CharString>
        <CharString name="T">
          -83 14 -21 571 72 hstem
          219 83 vstem
          450 636 -78 callsubr
        </CharString>
        <CharString name="Tau">
          -83 -7 21 550 72 hstem
          219 83 vstem
          450 636 -78 callsubr
        </CharString>
        <CharString name="Tbar">
          -83 14 -21 310 73 188 72 hstem
          219 83 vstem
          450 636 -32 callsubr
          -188 -77 hlineto
          -32 -9 -22 -14 -18 10 -19 31 hvcurveto
          77 -270 hlineto
          -32 23 -8 17 17 26 8 32 vhcurveto
          270 74 vlineto
          25 19 14 21 24 -17 14 -27 hvcurveto
          -74 188 148 -11 callgsubr
          endchar
        </CharString>
        <CharString name="Tcaron">
          -83 -7 21 550 72 19 164 hstemhm
          110 298 -189 83 hintmask 00000000
          hintmask 00110000
          291 655 -102 callsubr
          hintmask 11001000
          223 -19 -78 callsubr
        </CharString>
        <CharString name="Tcommaaccent">
          -82 -190 67 687 72 hstemhm
          220 83 -9 -55 callgsubr
          hintmask 11100000
          303 5 rmoveto
          559 148 -25 callgsubr
          -40 callgsubr
          -559 hlineto
          hintmask 11010000
          -71 74 28 callgsubr
          66 -63 0 38 vvcurveto
          endchar
        </CharString>
        <CharString name="Tecyrillic">
          -83 -7 21 550 72 hstem
          219 83 vstem
          450 636 -78 callsubr
        </CharString>
        <CharString name="Theta">
          29 -9 72 218 73 219 72 hstem
          64 -2 callsubr
          220 281 rmoveto
          189 hlineto
          25 22 14 23 22 -19 14 -28 hvcurveto
          -189 hlineto
          -30 -14 -15 -21 -22 18 -15 26 hvcurveto
          96 -290 rmoveto
          -12 callsubr
          151 -104 88 -148 -149 -103 -88 -151 vhcurveto
          5 callsubr
          582 47 callgsubr
          -170 -60 callsubr
          -119 -61 62 108 vhcurveto
          -67 callsubr
          endchar
        </CharString>
        <CharString name="Thorn">
          -43 14 -21 162 63 186 72 hstem
          84 72 296 73 vstem
          156 476 rmoveto
          97 vlineto
          35 -22 8 -14 -14 -22 -8 -35 vhcurveto
          -538 vlineto
          -35 68 callgsubr
          21 vhcurveto
          120 177 vlineto
          121 71 56 106 103 -70 56 -120 hvcurveto
          -51 -72 rmoveto
          128 40 -16 -77 -78 -37 -15 -132 hvcurveto
          -127 186 hlineto
          endchar
        </CharString>
        <CharString name="Tsecyrillic">
          20 0 72 hstemhm
          85 72 292 72 -14 -55 callgsubr
          hintmask 11010000
          579 -47 rmoveto
          47 vlineto
          hintmask 11100000
          60 -33 11 -25 1 vhcurveto
          514 vlineto
          24 callgsubr
          -292 17 callgsubr
          -586 vlineto
          hintmask 11010000
          422 -47 hlineto
          11 callgsubr
          endchar
        </CharString>
        <CharString name="Tshecyrillic">
          139 14 61 callgsubr
          564 rmoveto
          39 7 21 14 15 -6 22 -40 hvcurveto
          5 callgsubr
          -103 vhcurveto
          -253 vlineto
          -21 7 -23 30 21 14 12 33 vhcurveto
          254 63 callgsubr
          vlineto
          endchar
        </CharString>
        <CharString name="U">
          55 -9 72 580 -20 hstem
          77 -2 callsubr
          -10 callsubr
          372 vlineto
          34 -21 7 -14 -16 -21 -8 -32 vhcurveto
          endchar
        </CharString>
        <CharString name="Uacute">
          55 -9 72 558 27 callsubr
          77 72 145 175 40 -55 callgsubr
          hintmask 10110100
          -10 callsubr
          372 vlineto
          34 -21 7 -14 -16 -21 -8 -32 vhcurveto
          hintmask 01001000
          -180 0 callgsubr
          endchar
        </CharString>
        <CharString name="Ubreve">
          40 callsubr
          -7 74 hstemhm
          77 72 51 85 callgsubr
          49 -55 callgsubr
          hintmask 00101100
          460 762 -95 callsubr
          hintmask 11010010
          49 -159 rmoveto
          -370 -60 callsubr
          -119 -61 62 108 vhcurveto
          370 -22 callsubr
          -14 -22 -7 -34 vhcurveto
          -372 vlineto
          -151 103 -88 149 -74 callsubr
          vhcurveto
          372 vlineto
          34 -21 7 -14 -16 -21 -8 -32 vhcurveto
          endchar
        </CharString>
        <CharString name="Ucircumflex">
          40 callsubr
          8 168 hstem
          77 72 29 303 28 72 vstem
          -10 callsubr
          372 vlineto
          34 -21 7 -14 -16 -21 -8 -32 vhcurveto
          -323 100 -107 callgsubr
          endchar
        </CharString>
        <CharString name="Ucyrillic">
          -34 -6 72 hstemhm
          44 72 -52 72 340 -55 callgsubr
          hintmask 11010000
          4 callgsubr
          hintmask 10110000
          -1 callsubr
          endchar
        </CharString>
        <CharString name="Udieresis">
          40 callsubr
          63 102 hstem
          77 72 35 -2 callgsubr
          33 72 vstem
          -10 callsubr
          372 vlineto
          34 -21 7 -14 -16 -21 -8 -32 vhcurveto
          -264 103 -104 callsubr
          endchar
        </CharString>
        <CharString name="Ugrave">
          55 -9 72 558 27 callsubr
          77 72 64 175 121 -55 callgsubr
          hintmask 10110100
          -10 callsubr
          372 vlineto
          34 -21 7 -14 -16 -21 -8 -32 vhcurveto
          hintmask 01001000
          -132 82 -98 callgsubr
          endchar
        </CharString>
        <CharString name="Uhorn">
          96 -9 72 409 71 100 -20 hstem
          77 84 callsubr
          56 74 vstem
          -10 callsubr
          242 vlineto
          66 5 64 25 74 -66 callgsubr
          -47 -4 vhcurveto
          59 vlineto
          34 -21 7 -14 -16 -21 -8 -32 vhcurveto
          endchar
        </CharString>
        <CharString name="Uhungarumlaut">
          55 -9 72 558 27 callsubr
          77 72 48 175 -15 175 -23 -55 callgsubr
          hintmask 10110010
          -10 callsubr
          372 vlineto
          34 -21 7 -14 -16 -21 -8 -32 vhcurveto
          hintmask 01001000
          -277 0 callgsubr
          hintmask 01000100
          -64 callsubr
        </CharString>
        <CharString name="Umacron">
          40 callsubr
          63 73 hstem
          77 72 15 330 15 72 cntrmask 00011100
          450 779 rmoveto
          -93 callsubr
          59 -176 rmoveto
          -370 -60 callsubr
          -119 -61 62 108 vhcurveto
          370 -22 callsubr
          -14 -22 -7 -34 vhcurveto
          -372 vlineto
          -151 103 -88 149 -74 callsubr
          vhcurveto
          372 vlineto
          34 -21 7 -14 -16 -21 -8 -32 vhcurveto
          endchar
        </CharString>
        <CharString name="Uogonek">
          58 -204 70 777 -20 hstem
          78 72 90 72 198 72 vstem
          312 -90 rmoveto
          6 13 44 48 34 vhcurveto
          125 15 84 85 136 vvcurveto
          372 vlineto
          34 -21 7 -14 -16 -21 -8 -32 vhcurveto
          -370 -60 callsubr
          -119 -61 62 108 vhcurveto
          370 -22 callsubr
          -14 -22 -7 -34 vhcurveto
          -372 vlineto
          -133 80 -84 121 -18 vhcurveto
          -26 -35 -13 -29 -21 -59 callgsubr
        </CharString>
        <CharString name="Upsilon">
          83 callgsubr
          hstem
          243 77 vstem
          -63 callgsubr
          endchar
        </CharString>
        <CharString name="Upsilondieresis">
          -64 callgsubr
        </CharString>
        <CharString name="Upsilontonos">
          71 -7 21 551 224 -166 20 hstemhm
          20 73 -20 72 209 77 hintmask 00000000
          hintmask 10100100
          354 -75 callsubr
          hintmask 01001000
          -28 206 -69 callgsubr
          hintmask 01010000
          -87 callgsubr
          hintmask 01001000
          -47 callgsubr
        </CharString>
        <CharString name="Uring">
          40 callsubr
          -18 54 66 54 hstemhm
          77 72 91 54 66 54 95 -55 callgsubr
          hintmask 11001001
          -10 callsubr
          372 vlineto
          34 -21 7 -14 -16 -21 -8 -32 vhcurveto
          hintmask 00110110
          -215 109 -68 callgsubr
        </CharString>
        <CharString name="Ushortcyrillic">
          -34 -6 72 565 72 hstemhm
          44 72 -52 72 -3 72 175 72 24 -55 callgsubr
          hintmask 10100010
          4 callgsubr
          hintmask 10010010
          -1 callsubr
          hintmask 01001100
          -242 22 -71 callsubr
          endchar
        </CharString>
        <CharString name="Utilde">
          40 callsubr
          63 -8 callgsubr
          77 72 30 301 29 -55 callgsubr
          hintmask 00100100
          282 744 -100 callgsubr
          hintmask 11001010
          227 -141 rmoveto
          -370 -60 callsubr
          -119 -61 62 108 vhcurveto
          370 -22 callsubr
          -14 -22 -7 -34 vhcurveto
          -372 vlineto
          -151 103 -88 149 -74 callsubr
          vhcurveto
          372 vlineto
          34 -21 7 -14 -16 -21 -8 -32 vhcurveto
          endchar
        </CharString>
        <CharString name="V">
          7 21 -21 hstem
          24 73 416 73 vstem
          513 624 rmoveto
          -207 -520 -209 520 rlineto
          13 -5 -14 15 -18 hhcurveto
          -10 -26 -7 -27 -6 1 -7 2 -6 hvcurveto
          237 -599 rlineto
          82 hlineto
          237 599 rlineto
          2 6 1 7 6 vvcurveto
          27 -27 7 -9 -15 -14 -10 -18 -8 vhcurveto
          endchar
        </CharString>
        <CharString name="Vecyrillic">
          -81 callsubr
        </CharString>
        <CharString name="W">
          352 21 -21 hstem
          694 96 -90 callgsubr
        </CharString>
        <CharString name="Wacute">
          352 0 21 647 151 hstem
          443 152 vstem
          559 2 callgsubr
          135 -723 -90 callgsubr
        </CharString>
        <CharString name="Wcircumflex">
          352 0 21 630 168 hstem
          324 303 vstem
          332 703 -107 callgsubr
          253 -723 -90 callgsubr
        </CharString>
        <CharString name="Wdieresis">
          352 0 21 693 102 hstem
          331 -2 callgsubr
          vstem
          392 714 -104 callsubr
          132 -618 -90 callgsubr
        </CharString>
        <CharString name="Wgrave">
          352 0 21 647 151 hstem
          365 152 vstem
          503 733 -100 callsubr
          191 -637 -90 callgsubr
        </CharString>
        <CharString name="X">
          2 14 -21 650 -20 hstem
          530 643 rmoveto
          -15 -10 -11 -11 -8 hvcurveto
          -195 -256 -194 256 rlineto
          10 -7 -10 12 -17 hhcurveto
          -8 -27 -6 -30 -4 1 -10 9 -11 hvcurveto
          205 -265 -205 -264 rlineto
          -8 -10 -2 -9 -8 vvcurveto
          -21 20 -12 15 14 12 9 11 8 vhcurveto
          194 257 195 -257 rlineto
          -9 7 10 -11 16 hhcurveto
          15 21 10 23 8 -2 9 -8 10 hvcurveto
          -205 264 205 265 rlineto
          9 12 1 9 4 vvcurveto
          29 -25 7 -11 vhcurveto
          endchar
        </CharString>
        <CharString name="Xi">
          38 0 72 209 72 222 72 hstem
          209 281 rmoveto
          219 hlineto
          25 22 14 23 22 -19 13 -28 hvcurveto
          -219 hlineto
          -30 -14 -14 -21 -22 18 -15 26 hvcurveto
          -120 294 rmoveto
          460 6 callgsubr
          -460 hlineto
          -32 -9 -22 -14 -28 21 -8 20 hvcurveto
          -575 vmoveto
          460 6 callgsubr
          -460 hlineto
          -32 -9 -22 -14 -28 21 -8 20 hvcurveto
          endchar
        </CharString>
        <CharString name="Y">
          -40 14 -21 650 -20 hstem
          243 77 vstem
          -63 callgsubr
          endchar
        </CharString>
        <CharString name="Yacute">
          -40 -7 21 607 27 callsubr
          243 77 -74 175 hintmask 00000000
          hintmask 10110000
          -63 callgsubr
          hintmask 01001000
          253 38 rmoveto
          -60 callgsubr
        </CharString>
        <CharString name="Yatcyrillic">
          87 -7 72 279 72 42 69 116 -20 hstem
          210 76 296 72 vstem
          210 600 rmoveto
          -76 -138 vlineto
          -19 -24 -7 -26 -29 23 -7 20 hvcurveto
          138 -419 hlineto
          -25 11 -18 25 vhcurveto
          177 85 callsubr
          -141 hvcurveto
          -137 42 148 hlineto
          19 28 7 27 20 -15 15 -32 hvcurveto
          -148 73 hlineto
          24 -8 19 -33 41 callgsubr
          213 -256 rmoveto
          111 48 -58 -82 -82 -49 -57 -110 hvcurveto
          -137 279 hlineto
          endchar
        </CharString>
        <CharString name="Ycircumflex">
          83 callgsubr
          8 168 hstemhm
          129 303 -189 77 hintmask 00000000
          hintmask 00110000
          137 703 -107 callgsubr
          hintmask 11001000
          -3 -513 -99 callsubr
          endchar
        </CharString>
        <CharString name="Ydieresis">
          -64 callgsubr
        </CharString>
        <CharString name="Yericyrillic">
          139 -7 21 -21 72 339 72 147 20 hstemhm
          84 72 318 72 40 -55 callgsubr
          hintmask 01101100
          -25 callsubr
          hintmask 10010010
          502 -371 -92 callgsubr
          endchar
        </CharString>
        <CharString name="Ygrave">
          -40 -7 21 607 27 callsubr
          145 175 -77 77 hintmask 00000000
          hintmask 01010000
          309 685 -98 callgsubr
          hintmask 10101000
          -66 -379 -99 callsubr
          endchar
        </CharString>
        <CharString name="Yicyrillic">
          -363 -45 callsubr
          63 102 hstemhm
          -26 122 -12 72 -12 122 hintmask 00000000
          hintmask 11001000
          156 33 -92 callgsubr
          hintmask 00110100
          -121 673 -104 callsubr
          endchar
        </CharString>
        <CharString name="Z">
          -1 48 callgsubr
          hstem
          -73 callsubr
          endchar
        </CharString>
        <CharString name="Zacute">
          -1 48 callgsubr
          32 151 hstem
          231 152 vstem
          -73 callsubr
          297 755 rmoveto
          3 callsubr
        </CharString>
        <CharString name="Zcaron">
          -1 48 callgsubr
          19 164 hstem
          158 298 vstem
          -73 callsubr
          289 591 -102 callsubr
          endchar
        </CharString>
        <CharString name="Zdotaccent">
          -1 48 callgsubr
          55 102 hstem
          210 122 vstem
          -73 callsubr
          221 627 rmoveto
          9 callgsubr
        </CharString>
        <CharString name="Zecyrillic">
          20 0 72 220 72 200 72 hstem
          55 -2 callsubr
          273 364 rmoveto
          -26 -20 -7 -29 -29 20 -7 26 hvcurveto
          86 hlineto
          85 43 -50 -60 -38 -37 -72 -95 23 callgsubr
          124 73 84 96 60 -26 53 -42 34 hvcurveto
          42 30 26 49 60 vvcurveto
          96 -73 74 -124 vhcurveto
          -197 hlineto
          49 callgsubr
          -39 21 -6 60 callsubr
          94 38 -61 -39 -60 -45 -40 -83 hvcurveto
          endchar
        </CharString>
        <CharString name="Zeta">
          -1 48 callgsubr
          hstem
          -73 callsubr
          endchar
        </CharString>
        <CharString name="Zhecyrillic">
          107 -7 72 210 72 210 72 hstem
          131 74 115 72 113 74 cntrmask 11100000
          320 347 rmoveto
          -70 3 -45 25 32 vvcurveto
          83 vlineto
          127 -57 12 96 callsubr
          9 -12 -38 vhcurveto
          -93 vlineto
          -58 29 -30 21 -15 vhcurveto
          -21 -15 -29 -30 -58 vvcurveto
          -93 vlineto
          -38 1 callsubr
          -40 -6 -23 -13 -22 13 -14 33 62 57 12 127 vhcurveto
          83 vlineto
          32 45 25 70 3 vhcurveto
          -240 vlineto
          -34 21 -8 14 17 20 8 34 vhcurveto
          239 vlineto
          50 -6 63 -27 -26 vvcurveto
          -83 vlineto
          -127 57 -12 62 -3 callgsubr
          -36 -9 12 38 vhcurveto
          93 vlineto
          25 -5 44 -41 32 vhcurveto
          31 23 15 36 46 vvcurveto
          93 vlineto
          38 9 12 56 callgsubr
          -57 -12 -127 vhcurveto
          -83 vlineto
          -32 -43 -25 -70 -3 vhcurveto
          238 vlineto
          37 -21 6 -15 -30 -6 -23 -20 vhcurveto
          endchar
        </CharString>
        <CharString name="a">
          -49 callsubr
          hstem
          61 72 318 -84 callgsubr
          endchar
        </CharString>
        <CharString name="aacute">
          -49 callsubr
          34 47 callsubr
          124 175 19 -84 callgsubr
          -22 262 rmoveto
          -60 callgsubr
        </CharString>
        <CharString name="abreve">
          -49 callsubr
          61 74 hstem
          62 72 28 85 callgsubr
          29 72 vstem
          422 648 -95 callsubr
          -108 -343 -107 callsubr
          endchar
        </CharString>
        <CharString name="acircumflex">
          -49 callsubr
          61 168 hstem
          61 72 8 303 7 -84 callgsubr
          -165 341 -107 callgsubr
          endchar
        </CharString>
        <CharString name="acute">
          86 callsubr
          54 -5 callsubr
          endchar
        </CharString>
        <CharString name="acutecomb">
          490 151 hstem
          -385 152 vstem
          -269 641 rmoveto
          3 callsubr
        </CharString>
        <CharString name="acyrillic">
          -49 callsubr
          hstem
          61 72 318 -84 callgsubr
          endchar
        </CharString>
        <CharString name="adieresis">
          -49 callsubr
          61 102 hstemhm
          61 72 57 -2 callgsubr
          -31 -55 callgsubr
          hintmask 11101001
          -106 callsubr
          hintmask 00010110
          -63 289 -104 callsubr
          endchar
        </CharString>
        <CharString name="ae">
          383 -37 callgsubr
          hstem
          62 72 301 78 341 72 vstem
          295 233 rmoveto
          141 hlineto
          4 -5 rlineto
          -78 -34 -78 -134 vhcurveto
          -93 hlineto
          -19 -26 23 29 99 39 10 122 hvcurveto
          399 156 rmoveto
          114 41 -12 -72 5 hvcurveto
          -341 hlineto
          72 6 43 12 124 hhcurveto
          240 -106 rmoveto
          149 -87 29 -145 vhcurveto
          -8 hlineto
          -82 -66 -7 -33 -44 hvcurveto
          28 -18 -33 12 -49 hhcurveto
          -155 hlineto
          -97 -80 -33 -89 -38 21 -7 14 30 7 20 25 29 25 21 87 hvcurveto
          141 hlineto
          39 9 -11 -31 hvcurveto
          -42 -140 vlineto
          -144 -89 -32 -144 -80 50 -49 67 hvcurveto
          93 hlineto
          57 92 22 49 48 hvcurveto
          -59 40 78 -12 99 hhcurveto
          130 hlineto
          -96 callgsubr
          -123 hlineto
          -129 -40 10 99 hvcurveto
          -4 52 rlineto
          413 hlineto
          endchar
        </CharString>
        <CharString name="afii00208">
          76 194 73 hstem
          562 267 rmoveto
          -448 hlineto
          -32 -9 -22 -14 -18 10 -19 31 hvcurveto
          448 -14 callsubr
          14 21 24 -17 14 -27 hvcurveto
          endchar
        </CharString>
        <CharString name="agrave">
          -49 callsubr
          31 47 callsubr
          43 175 100 -84 callgsubr
          26 323 -98 callgsubr
          endchar
        </CharString>
        <CharString name="akayahli">
          -3 -15 72 66 72 7 72 -9 72 67 72 hstemhm
          63 89 callsubr
          hintmask 00000000
          hintmask 11101101
          420 57 rmoveto
          -240 hlineto
          -36 -9 15 39 70 40 21 58 -3 callgsubr
          -71 -28 15 61 38 9 16 37 hvcurveto
          -3 callsubr
          hintmask 11011101
          -17 -66 vlineto
          hintmask 11011110
          -39 -7 -21 -14 -29 18 -8 28 hvcurveto
          hintmask 11011101
          138 72 hlineto
          -31 callsubr
          -52 19 -31 31 -19 hvcurveto
          -22 -16 -28 -32 -63 vvcurveto
          16 callgsubr
          hvcurveto
          71 -138 vlineto
          hintmask 11101110
          -39 -7 12 callsubr
          hvcurveto
          hintmask 11101101
          66 -17 hlineto
          -39 -9 -10 -36 vhcurveto
          endchar
        </CharString>
        <CharString name="alpha">
          22 0 -55 callsubr
          hstem
          59 72 298 75 vstem
          -44 callsubr
          endchar
        </CharString>
        <CharString name="alphatonos">
          22 0 -55 callsubr
          58 224 hstemhm
          59 72 134 73 -20 72 39 75 hintmask 00000000
          hintmask 11010010
          -44 callsubr
          hintmask 00100100
          81 354 -80 callsubr
          endchar
        </CharString>
        <CharString name="amacron">
          -49 callsubr
          62 73 hstemhm
          61 72 -6 330 -6 -55 callgsubr
          hintmask 00010100
          413 596 rmoveto
          -93 callsubr
          hintmask 11101010
          -99 -291 -107 callsubr
          endchar
        </CharString>
        <CharString name="ampersand">
          -69 -24 72 542 72 hstemhm
          41 72 -47 74 283 71 hintmask 00000000
          hintmask 11101000
          357 86 rmoveto
          -26 -31 -37 -12 -29 hhcurveto
          -58 -89 27 107 47 17 49 37 27 hvcurveto
          -46 54 rmoveto
          -59 -47 -21 -72 -58 vvcurveto
          -153 131 -53 88 48 51 18 37 44 vhcurveto
          29 -33 rlineto
          -13 12 13 -7 13 hhcurveto
          9 23 7 26 7 -1 11 -8 9 hvcurveto
          -42 46 rlineto
          27 40 16 48 55 vvcurveto
          40 -20 6 -14 -30 -7 -22 -24 -32 -7 -29 -14 -24 vhcurveto
          -226 261 rlineto
          hintmask 11011000
          -28 32 -8 25 16 vvcurveto
          74 61 40 53 vhcurveto
          70 2 -97 46 hhcurveto
          21 15 16 19 22 -56 112 -98 -85 -103 -72 -114 -47 30 -43 25 -27 hvcurveto
          endchar
        </CharString>
        <CharString name="anoteleia">
          -351 336 102 hstem
          65 122 vstem
          126 336 rmoveto
          9 callgsubr
        </CharString>
        <CharString name="aogonek">
          -9 -205 70 135 -22 callgsubr
          hstem
          61 72 233 72 13 72 vstem
          510 hmoveto
          7 6 6 10 19 vvcurveto
          296 vlineto
          89 -22 41 -88 vhcurveto
          -155 hlineto
          -117 -80 -22 -89 -38 21 -7 14 30 7 20 25 29 25 10 107 hvcurveto
          141 -32 callgsubr
          -9 -33 hvcurveto
          -42 -137 vlineto
          -164 -89 -32 -144 -80 50 -49 67 hvcurveto
          93 hlineto
          72 66 15 35 42 hvcurveto
          -4 18 callsubr
          7 18 51 54 33 hvcurveto
          -59 233 rmoveto
          -66 -15 -95 -165 vhcurveto
          -93 hlineto
          -19 -26 23 29 99 38 10 143 hvcurveto
          endchar
        </CharString>
        <CharString name="approxequal">
          -55 244 76 -36 76 4 76 -36 76 hstemhm
          hintmask 00000000
          hintmask 00100000
          361 364 rmoveto
          29 callsubr
          hintmask 00010000
          -4 callsubr
          hintmask 10000000
          -120 vmoveto
          29 callsubr
          hintmask 01000000
          -4 callsubr
          endchar
        </CharString>
        <CharString name="aring">
          -49 callsubr
          46 54 66 54 hstem
          61 72 73 54 66 54 71 -84 callgsubr
          -54 361 -68 callgsubr
        </CharString>
        <CharString name="asciicircum">
          -160 350 301 hstem
          70 71 160 72 vstem
          103 350 rmoveto
          23 9 14 13 6 hvcurveto
          81 180 79 -180 rlineto
          -9 5 11 -18 23 hhcurveto
          20 13 13 20 6 0 4 -2 6 hvcurveto
          -113 252 rlineto
          -72 hlineto
          -114 -252 rlineto
          -2 -6 0 -5 -5 vvcurveto
          -20 16 -13 17 vhcurveto
          endchar
        </CharString>
        <CharString name="asciitilde">
          -165 167 -8 callgsubr
          68 301 hintmask 00000000
          hintmask 10100000
          171 205 -97 callsubr
          hintmask 01100000
          -42 callgsubr
          hintmask 10100000
          -93 callgsubr
          hintmask 01100000
          -98 callsubr
          hintmask 10100000
          -43 callsubr
          hintmask 01100000
          -86 callgsubr
          endchar
        </CharString>
        <CharString name="asterisk">
          -188 331 320 hstem
          171 72 vstem
          243 374 rmoveto
          54 vlineto
          -30 56 4 -4 13 hhcurveto
          27 8 28 7 17 -12 10 -11 7 hvcurveto
          -48 29 48 27 rlineto
          11 7 12 10 17 vvcurveto
          16 -14 19 -21 -13 0 -1 -33 -60 vhcurveto
          54 vlineto
          25 callsubr
          -54 vlineto
          30 -56 -4 4 -13 hhcurveto
          -27 -7 -28 -7 -14 8 -12 15 -8 hvcurveto
          48 -27 -49 -29 rlineto
          -14 -8 -8 -12 -14 vvcurveto
          -16 14 -19 20 13 0 1 33 60 vhcurveto
          -54 vlineto
          -10 callgsubr
          14 22 8 35 vhcurveto
          endchar
        </CharString>
        <CharString name="at">
          9 -15 72 118 72 169 72 91 72 hstem
          69 72 33 72 129 72 25 72 vstem
          69 395 rmoveto
          -154 vlineto
          -161 89 -95 134 vhcurveto
          141 hlineto
          96 15 62 59 39 -22 7 -15 58 callgsubr
          -40 -9 -12 -37 hvcurveto
          -134 hlineto
          -103 -48 70 114 hvcurveto
          154 vlineto
          114 48 70 103 vhcurveto
          29 hlineto
          102 49 -70 -114 -88 -8 -28 -23 -12 hvcurveto
          5 18 1 22 25 vvcurveto
          103 -27 53 -110 -109 -27 -53 -103 -104 27 -53 109 221 13 92 128 161 -89 95 -134 vhcurveto
          -29 hlineto
          -134 -89 -95 -161 hvcurveto
          241 -148 rmoveto
          -57 -7 14 71 70 7 14 57 58 7 -15 -69 -70 -7 -15 -58 hvcurveto
          endchar
        </CharString>
        <CharString name="atilde">
          -49 callsubr
          46 81 callsubr
          9 301 8 -55 callgsubr
          hintmask 11100101
          -106 callsubr
          hintmask 00010010
          -69 312 -97 callsubr
          hintmask 00001010
          -42 callgsubr
          hintmask 00010010
          -93 callgsubr
          hintmask 00001010
          -98 callsubr
          hintmask 00010010
          -43 callsubr
          hintmask 00001010
          -86 callgsubr
          endchar
        </CharString>
        <CharString name="b">
          54 callsubr
          182 -20 26 callsubr
          147 411 rmoveto
          186 vlineto
          -40 callsubr
          -562 vlineto
          -37 23 -5 13 37 callgsubr
          12 vlineto
          -34 42 66 -16 73 hhcurveto
          29 hlineto
          51 callgsubr
          -73 55 callgsubr
          hvcurveto
          181 -22 rmoveto
          29 hlineto
          140 40 -9 -100 hvcurveto
          -71 callgsubr
          -29 hlineto
          -147 -34 74 82 hvcurveto
          4 vlineto
          83 34 74 147 vhcurveto
          endchar
        </CharString>
        <CharString name="backslash">
          -228 41 72 149 72 vstem
          262 6 rmoveto
          -10 4 11 -19 21 hhcurveto
          10 26 7 27 8 -3 13 -8 21 hvcurveto
          -210 578 rlineto
          11 -5 -9 18 -21 hhcurveto
          -11 -26 -7 -27 -4 5 -22 4 -10 hvcurveto
          endchar
        </CharString>
        <CharString name="bakayahli">
          9 -27 72 72 72 215 72 hstem
          73 72 187 72 71 72 vstem
          73 438 rmoveto
          -415 vlineto
          -38 21 -7 14 30 7 20 25 vhcurveto
          103 vlineto
          208 278 rlineto
          77 -33 callgsubr
          -165 -38 vlineto
          -60 -45 -47 -54 -68 38 -47 67 88 22 43 96 hvcurveto
          225 vlineto
          96 -22 43 -88 vhcurveto
          -114 hlineto
          -178 -235 rlineto
          197 -50 callsubr
          402 -321 rmoveto
          -23 vlineto
          -34 -9 -15 -29 -18 -15 15 28 12 15 17 18 vhcurveto
          endchar
        </CharString>
        <CharString name="bar">
          -368 -45 callsubr
          hstem
          81 72 vstem
          153 33 -92 callgsubr
          endchar
        </CharString>
        <CharString name="becyrillic">
          64 0 -55 callsubr
          103 72 hstem
          72 69 callgsubr
          372 389 rmoveto
          121 41 -10 -99 hvcurveto
          -71 callgsubr
          -30 hlineto
          -140 -29 callgsubr
          208 vlineto
          1 72 rmoveto
          99 7 83 4 253 hhcurveto
          40 6 20 14 22 -13 16 -33 -280 -136 -13 -172 hvcurveto
          -270 vlineto
          -151 86 -30 166 vhcurveto
          30 97 callsubr
          149 -87 29 -147 vhcurveto
          endchar
        </CharString>
        <CharString name="beta">
          -73 -7 70 251 68 182 72 hstemhm
          76 72 214 72 -27 -55 callgsubr
          hintmask 11110100
          148 35 rmoveto
          -31 41 50 -11 51 hhcurveto
          85 104 26 162 55 -19 83 -88 34 hvcurveto
          hintmask 11111000
          39 31 23 44 54 vvcurveto
          92 -71 62 -111 -88 -87 -28 -147 -1 vhcurveto
          -562 vlineto
          -40 20 -6 14 22 16 13 33 vhcurveto
          562 vmoveto
          95 35 8 69 59 51 -28 -52 -88 -79 -14 -85 vhcurveto
          -68 vlineto
          hintmask 11110100
          119 90 -24 -106 -118 -72 -3 -47 -59 -48 34 39 -33 hvcurveto
          endchar
        </CharString>
        <CharString name="braceleft">
          -316 82 callsubr
          85 72 -44 -55 callgsubr
          hintmask 11010000
          40 327 rmoveto
          -20 vlineto
          27 -14 46 -31 -26 vvcurveto
          hintmask 11100000
          -32 -28 -58 -38 vvcurveto
          -161 68 -4 82 vhcurveto
          72 vlineto
          -71 -7 2 91 hvcurveto
          hintmask 11010000
          24 28 56 48 vvcurveto
          37 -40 30 -22 14 vhcurveto
          29 20 33 30 33 vvcurveto
          hintmask 11100000
          47 -28 60 21 vvcurveto
          91 7 2 71 vhcurveto
          72 vlineto
          -82 -68 -5 -160 hvcurveto
          hintmask 11010000
          -38 28 -58 -32 vvcurveto
          -26 -48 -34 -25 -13 vhcurveto
          endchar
        </CharString>
        <CharString name="braceright">
          -316 82 callsubr
          102 72 -44 -55 callgsubr
          hintmask 11100000
          247 327 rmoveto
          -25 13 -48 34 26 vvcurveto
          hintmask 11010000
          32 28 58 38 vvcurveto
          160 -68 5 -82 vhcurveto
          -72 vlineto
          71 7 -2 -91 hvcurveto
          hintmask 11100000
          -21 -28 -60 -47 vvcurveto
          -33 33 -30 29 -20 vhcurveto
          -22 -14 -40 -30 -37 vvcurveto
          hintmask 11010000
          -48 28 -56 -24 vvcurveto
          -91 -7 -2 -71 vhcurveto
          -72 vlineto
          82 68 4 161 hvcurveto
          hintmask 11100000
          38 -28 58 32 vvcurveto
          26 46 31 27 14 vhcurveto
          endchar
        </CharString>
        <CharString name="bracketleft">
          -324 82 callsubr
          81 72 -72 150 hintmask 00000000
          hintmask 11100000
          153 15 rmoveto
          606 vlineto
          hintmask 11010000
          78 72 -150 -750 150 72 hlineto
          endchar
        </CharString>
        <CharString name="bracketright">
          -324 82 callsubr
          48 150 -72 -55 callgsubr
          hintmask 11010000
          126 15 rmoveto
          hintmask 11100000
          -78 -72 150 750 -150 -72 hlineto
          hintmask 11010000
          78 hlineto
          endchar
        </CharString>
        <CharString name="breve">
          -175 594 74 hstem
          84 85 callgsubr
          vstem
          344 720 -95 callsubr
          endchar
        </CharString>
        <CharString name="breve.acute">
          87 callsubr
          23 152 -61 73 hintmask 00000000
          hintmask 01010000
          252 2 callgsubr
          hintmask 10101000
          48 -128 -95 callsubr
          endchar
        </CharString>
        <CharString name="breve.grave">
          87 callsubr
          -62 152 24 73 hintmask 00000000
          hintmask 01010000
          189 733 -100 callsubr
          hintmask 10101000
          111 -42 -95 callsubr
          endchar
        </CharString>
        <CharString name="breve.hook">
          -283 565 74 127 56 hstemhm
          40 73 -14 -26 callgsubr
          -16 73 hintmask 00000000
          hintmask 01001000
          164 659 -70 callgsubr
          hintmask 01010100
          -102 callgsubr
          hintmask 01001000
          -79 callgsubr
          hintmask 10100010
          136 32 -95 callsubr
          endchar
        </CharString>
        <CharString name="breve.tilde">
          -241 565 74 63 -8 callgsubr
          40 301 -282 85 callgsubr
          hintmask 00000000
          hintmask 01010000
          143 740 -97 callsubr
          hintmask 00110000
          -42 callgsubr
          hintmask 01010000
          -93 callgsubr
          hintmask 00110000
          -98 callsubr
          hintmask 01010000
          -43 callsubr
          hintmask 00110000
          -86 callgsubr
          hintmask 10001100
          176 -49 -95 callsubr
          endchar
        </CharString>
        <CharString name="brokenbar">
          -372 80 71 vstem
          151 401 rmoveto
          215 vlineto
          34 -21 8 -14 -21 -15 -13 -29 vhcurveto
          -215 vlineto
          -24 12 -19 22 15 22 9 34 vhcurveto
          -379 vmoveto
          215 vlineto
          34 -21 7 -14 -28 -8 -21 -20 vhcurveto
          -215 vlineto
          -35 20 -9 14 23 14 16 28 vhcurveto
          endchar
        </CharString>
        <CharString name="bullet">
          -195 108 300 hstem
          54 300 vstem
          204 108 rmoveto
          84 66 66 84 84 -66 66 -84 -84 -66 -66 -84 -84 66 -66 84 hvcurveto
          endchar
        </CharString>
        <CharString name="c">
          82 callgsubr
          hstem
          61 72 360 -87 callsubr
          endchar
        </CharString>
        <CharString name="cacute">
          82 callgsubr
          34 47 callsubr
          114 175 71 -87 callsubr
          -32 -5 callsubr
          endchar
        </CharString>
        <CharString name="cakayahli">
          23 -15 72 447 72 45 72 hstemhm
          76 72 -72 163 239 -55 callgsubr
          hintmask 11110100
          215 576 rmoveto
          -67 hlineto
          34 1 10 11 34 hhcurveto
          -3 callsubr
          -474 vlineto
          -335 379 rlineto
          -67 -491 117 hlineto
          hintmask 11101100
          39 7 21 14 30 -22 7 -24 hvcurveto
          hintmask 11110100
          -45 303 hlineto
          332 -375 rlineto
          70 569 hlineto
          94 -22 45 -88 vhcurveto
          -254 hlineto
          -88 -22 -45 -94 hvcurveto
          -50 139 vlineto
          29 17 14 25 26 -18 7 -28 hvcurveto
          endchar
        </CharString>
        <CharString name="calyakayahli">
          -205 72 118 72 hstem
          -544 -11 callsubr
          0 callsubr
          endchar
        </CharString>
        <CharString name="calyaplophukayahli">
          -205 72 7 102 9 72 hstem
          -544 72 104 122 104 72 cntrmask 00011100
          0 callsubr
          58 -111 -97 callgsubr
          endchar
        </CharString>
        <CharString name="caron">
          -230 507 164 hstem
          40 298 vstem
          221 -13 callsubr
          endchar
        </CharString>
        <CharString name="ccaron">
          82 callgsubr
          46 164 hstem
          61 72 39 298 23 72 vstem
          353 -13 callsubr
          166 -507 rmoveto
          -85 callsubr
          endchar
        </CharString>
        <CharString name="ccedilla">
          21 -190 67 123 -55 callsubr
          hstemhm
          61 72 144 72 -3 72 75 -55 callgsubr
          hintmask 11111010
          277 1 rmoveto
          hintmask 11110110
          3 -67 66 28 callgsubr
          hintmask 11111010
          63 -63 3 -6 33 vhcurveto
          106 hlineto
          -96 callgsubr
          -134 -23 callsubr
          99 vlineto
          99 38 10 143 vhcurveto
          134 -32 callgsubr
          -12 -40 -10 callgsubr
          -9 callsubr
          59 -14 63 -96 hvcurveto
          -24 callsubr
          -137 73 -35 143 -5 vhcurveto
          endchar
        </CharString>
        <CharString name="ccircumflex">
          82 callgsubr
          61 168 hstem
          61 72 29 303 28 -87 callsubr
          -144 -47 callsubr
          endchar
        </CharString>
        <CharString name="cdotaccent">
          82 callgsubr
          46 102 hstem
          61 72 128 122 110 -87 callsubr
          8 44 callgsubr
          endchar
        </CharString>
        <CharString name="cedilla">
          -361 -190 67 hstemhm
          81 72 -3 -55 callgsubr
          hintmask 11000000
          153 5 rmoveto
          5 -72 -5 vlineto
          hintmask 10100000
          -71 69 28 callgsubr
          66 -69 0 38 vvcurveto
          endchar
        </CharString>
        <CharString name="cent">
          -105 108 72 278 72 hstem
          49 72 97 72 79 72 vstem
          218 108 rmoveto
          -88 vlineto
          -34 21 -8 14 29 8 21 21 vhcurveto
          88 40 vlineto
          96 15 62 59 39 -22 7 -15 -14 -21 -6 -38 -40 -9 -11 -37 hvcurveto
          -33 278 35 hlineto
          35 9 -10 -41 -29 14 -15 23 14 21 6 40 59 -13 62 -96 hvcurveto
          -42 85 hlineto
          25 callsubr
          -86 vlineto
          -104 -9 -65 -45 -135 vvcurveto
          -42 vlineto
          -136 62 -45 107 -9 vhcurveto
          73 vmoveto
          -71 6 -26 22 89 vvcurveto
          42 vlineto
          89 29 22 68 6 vhcurveto
          endchar
        </CharString>
        <CharString name="checyrillic">
          26 14 -21 125 72 278 -20 hstem
          50 -2 callsubr
          319 190 rmoveto
          -35 hlineto
          -121 -41 11 101 hvcurveto
          124 vlineto
          33 -19 9 -18 -57 callgsubr
          -127 vlineto
          -151 75 callgsubr
          -133 vlineto
          -21 9 -21 29 -19 callgsubr
          390 vlineto
          79 callgsubr
          -25 -11 -16 -26 vhcurveto
          -73 vlineto
          -82 -32 -81 -131 vhcurveto
          endchar
        </CharString>
        <CharString name="chi">
          -41 -175 73 497 73 hstem
          462 468 rmoveto
          -17 -10 -12 -11 -7 hvcurveto
          -141 -221 -79 160 rlineto
          53 -24 -52 31 -52 hhcurveto
          76 callsubr
          22 29 -21 -29 14 hvcurveto
          92 -181 -180 -281 rlineto
          -5 -7 -4 -9 -10 vvcurveto
          -28 28 -7 9 20 8 16 8 5 vhcurveto
          159 250 91 -187 rlineto
          61 callsubr
          -25 24 29 -14 hvcurveto
          -105 209 163 249 rlineto
          5 7 4 9 10 vvcurveto
          20 -22 13 -14 vhcurveto
          endchar
        </CharString>
        <CharString name="circumflex">
          -201 510 168 hstem
          50 303 vstem
          58 562 -107 callgsubr
          endchar
        </CharString>
        <CharString name="circumflex.acute">
          -171 563 18 callgsubr
          40 90 callsubr
          hintmask 00000000
          hintmask 10100000
          48 615 -107 callgsubr
          hintmask 01010000
          249 88 rmoveto
          3 callsubr
        </CharString>
        <CharString name="circumflex.grave">
          -170 563 18 callgsubr
          0 152 -42 303 hintmask 00000000
          hintmask 10010000
          118 615 -107 callgsubr
          hintmask 01100000
          -89 2 -100 callsubr
          endchar
        </CharString>
        <CharString name="circumflex.hook">
          -175 563 168 35 56 hstemhm
          40 52 callgsubr
          hintmask 00000000
          hintmask 10100000
          48 615 -107 callgsubr
          hintmask 01001000
          8 callgsubr
          hintmask 01010100
          -102 callgsubr
          hintmask 01001000
          21 callsubr
        </CharString>
        <CharString name="circumflex.tilde">
          -240 712 67 -27 67 hstemhm
          41 301 hintmask 00000000
          hintmask 10100000
          144 750 -65 callgsubr
          hintmask 01100000
          21 -20 3 -81 callgsubr
          hintmask 10100000
          -93 callgsubr
          hintmask 01100000
          -98 callsubr
          hintmask 10100000
          -21 20 -3 -82 callsubr
          hintmask 01100000
          -91 callgsubr
        </CharString>
        <CharString name="colon">
          -335 29 102 251 102 hstem
          73 122 vstem
          134 29 rmoveto
          -106 callgsubr
          353 6 callsubr
        </CharString>
        <CharString name="comma">
          -377 -95 171 hstemhm
          47 -6 callgsubr
          hintmask 11000000
          113 -65 rmoveto
          40 83 rlineto
          hintmask 10100000
          -101 callgsubr
          endchar
        </CharString>
        <CharString name="commaturnedabovecmb">
          511 171 hstemhm
          -277 113 -66 66 hintmask 00000000
          hintmask 10100000
          -230 652 rmoveto
          -40 -83 rlineto
          hintmask 11000000
          7 callsubr
          endchar
        </CharString>
        <CharString name="copyright">
          27 72 72 60 61 105 61 60 72 hstem
          78 72 55 60 100 60 55 -39 callsubr
          317 -37 rmoveto
          13 17 9 18 26 -14 42 -51 hvcurveto
          -50 hlineto
          -54 -51 -30 -64 hvcurveto
          -39 vlineto
          -64 51 -30 54 vhcurveto
          50 hlineto
          55 10 45 23 18 -16 9 -15 -29 2 -27 -6 -2 hvcurveto
          -1 -5 0 -2 vhcurveto
          -48 hlineto
          -28 -17 13 20 hvcurveto
          39 vlineto
          20 17 13 28 vhcurveto
          48 hlineto
          4 2 0 -1 1 hvcurveto
          -5 3 -6 -28 33 hhcurveto
          endchar
        </CharString>
        <CharString name="currency">
          -82 72 64 189 64 hstem
          102 64 189 64 vstem
          166 230 rmoveto
          52 43 43 52 51 43 -43 -52 -51 -43 -43 -51 -52 -43 43 51 vhcurveto
          -81 124 rmoveto
          41 -41 rlineto
          -17 -24 -7 -30 -29 vvcurveto
          -29 7 -29 17 -24 vhcurveto
          -41 -41 rlineto
          -13 -14 -1 -11 -6 vvcurveto
          -22 18 -13 16 13 10 7 11 10 vhcurveto
          39 38 rlineto
          -16 25 28 -9 31 hhcurveto
          27 29 7 17 27 hvcurveto
          38 -37 rlineto
          -14 13 11 -4 8 hhcurveto
          19 17 20 16 8 -4 10 -12 13 hvcurveto
          -39 39 rlineto
          17 27 7 29 27 vvcurveto
          30 -8 29 -16 25 vhcurveto
          37 38 rlineto
          11 10 7 10 13 vvcurveto
          21 -21 13 -14 -6 -11 -1 -13 -14 vhcurveto
          -40 -40 rlineto
          17 -27 -29 7 -27 hhcurveto
          -31 -28 -9 -16 -25 hvcurveto
          -41 41 rlineto
          6 -7 -11 8 -12 hhcurveto
          -15 -20 -16 -19 -12 8 -11 6 -7 hvcurveto
          endchar
        </CharString>
        <CharString name="cwikayahli">
          11 -15 72 hstem
          305 57 rmoveto
          -134 -32 99 -40 hhcurveto
          -17 -12 -16 -19 -43 115 -93 120 120 119 93 43 21 -15 14 -14 hvcurveto
          -41 -32 -99 -137 hhcurveto
          endchar
        </CharString>
        <CharString name="d">
          54 callsubr
          182 -20 hstem
          61 69 callgsubr
          133 181 rmoveto
          99 vlineto
          100 40 9 132 vhcurveto
          218 -160 hlineto
          -83 -34 -74 -147 vhcurveto
          -29 hlineto
          -140 -29 callgsubr
          -72 102 rmoveto
          -105 -83 callgsubr
          166 vhcurveto
          29 hlineto
          73 66 16 34 42 hvcurveto
          -12 vlineto
          -23 7 -22 29 13 23 5 37 vhcurveto
          563 vlineto
          22 -7 23 -27 -14 -24 -5 -40 vhcurveto
          -137 -218 vlineto
          -158 -75 callgsubr
          endchar
        </CharString>
        <CharString name="dagger">
          -262 470 72 hstem
          135 71 vstem
          135 542 rmoveto
          -43 hlineto
          -34 -8 -21 -14 -15 8 -22 34 hvcurveto
          43 -273 hlineto
          -36 21 -7 14 14 22 8 35 vhcurveto
          273 43 vlineto
          38 callgsubr
          endchar
        </CharString>
        <CharString name="daggerdbl">
          -242 269 72 129 72 hstem
          145 71 vstem
          259 269 rmoveto
          34 8 21 14 15 -8 22 -34 hvcurveto
          -43 129 43 hlineto
          38 callgsubr
          -74 -43 vlineto
          -34 -8 -21 -14 -15 8 -22 34 hvcurveto
          43 -129 -43 hlineto
          -27 -15 -14 -22 -29 23 -7 19 hvcurveto
          43 -74 hlineto
          -36 21 -7 14 14 22 8 35 vhcurveto
          74 vlineto
          endchar
        </CharString>
        <CharString name="dakayahli">
          -61 callsubr
        </CharString>
        <CharString name="dcaron">
          54 callsubr
          26 171 -35 20 hstemhm
          61 72 390 72 27 -6 callgsubr
          hintmask 11011100
          133 181 rmoveto
          99 vlineto
          100 40 9 132 vhcurveto
          218 -160 hlineto
          -83 -34 -74 -147 vhcurveto
          -29 hlineto
          -140 -29 callgsubr
          -72 102 rmoveto
          -105 -83 callgsubr
          166 vhcurveto
          29 hlineto
          73 66 16 34 42 hvcurveto
          -12 vlineto
          -23 7 -22 29 13 23 5 37 vhcurveto
          563 vlineto
          22 -7 23 -27 -14 -24 -5 -40 vhcurveto
          -137 -218 vlineto
          -158 -75 callgsubr
          hintmask 00100010
          627 234 rmoveto
          40 83 rlineto
          hintmask 00100001
          -101 callgsubr
          endchar
        </CharString>
        <CharString name="dcroat">
          54 callsubr
          41 73 68 -20 hstem
          61 69 callgsubr
          61 283 rmoveto
          -105 -83 callgsubr
          166 vhcurveto
          29 hlineto
          73 66 16 34 42 hvcurveto
          -12 vlineto
          -23 7 -22 29 13 23 5 37 vhcurveto
          467 7 vlineto
          25 19 14 21 24 -17 14 -27 hvcurveto
          -7 23 hlineto
          22 -7 23 -27 -14 -24 -5 -40 vhcurveto
          -23 -166 vlineto
          -32 -9 -22 -14 -18 10 -19 31 hvcurveto
          166 -41 -218 hlineto
          -158 -75 callgsubr
          72 -102 rmoveto
          99 vlineto
          100 40 9 132 vhcurveto
          218 -160 hlineto
          -83 -34 -74 -147 vhcurveto
          -29 hlineto
          -140 -29 callgsubr
          endchar
        </CharString>
        <CharString name="decyrillic">
          1 -92 164 -72 -55 callsubr
          hstemhm
          16 72 91 79 149 75 22 -55 callgsubr
          hintmask 01111110
          88 -47 rmoveto
          47 416 -47 vlineto
          hintmask 10111110
          11 callgsubr
          hintmask 01111110
          47 vlineto
          hintmask 10111110
          35 -12 37 -49 vhcurveto
          hintmask 01111110
          -33 389 -303 hlineto
          hintmask 10111110
          -199 -60 -127 -38 -63 vhcurveto
          hintmask 01111110
          -24 -41 -5 -67 hvcurveto
          -47 vlineto
          hintmask 10111110
          11 callgsubr
          170 436 rmoveto
          149 hlineto
          hintmask 01111110
          -317 -244 vlineto
          39 63 52 109 4 145 rrcurveto
          endchar
        </CharString>
        <CharString name="degree">
          -179 376 71 175 71 hstem
          54 71 175 71 vstem
          125 535 rmoveto
          47 40 40 47 48 40 -40 -47 -48 -40 -40 -48 -47 -40 40 48 vhcurveto
          87 -159 rmoveto
          88 71 71 88 87 -71 71 -88 -87 -71 -71 -87 -88 71 -71 87 hvcurveto
          endchar
        </CharString>
        <CharString name="delta">
          3 -7 73 323 72 103 73 hstem
          45 73 363 73 vstem
          117 566 rmoveto
          93 -34 44 -15 56 -23 48 -37 rlinecurve
          3 -16 -17 1 -17 hhcurveto
          -107 -156 -69 -154 -113 76 -132 181 156 96 82 132 206 -119 100 -118 51 hvcurveto
          162 32 callsubr
          -343 hlineto
          -32 -9 -22 -14 -20 8 -9 14 -6 hvcurveto
          189 -500 rmoveto
          -124 -64 80 86 110 116 47 76 113 58 -74 -105 -89 -56 -55 -119 hvcurveto
          endchar
        </CharString>
        <CharString name="dieresis">
          -211 579 102 hstem
          50 -2 callgsubr
          vstem
          111 579 -104 callsubr
          endchar
        </CharString>
        <CharString name="dieresistonos">
          -200 495 102 0 224 hstemhm
          28 122 -2 73 -23 122 -119 -55 callgsubr
          hintmask 10101000
          89 495 -104 callsubr
          hintmask 01000100
          71 callgsubr
          hintmask 01010000
          -87 callgsubr
          hintmask 01000100
          -47 callgsubr
        </CharString>
        <CharString name="divide">
          -163 67 102 25 73 25 102 hstemhm
          55 330 -230 122 hintmask 00000000
          hintmask 01010000
          341 267 rmoveto
          -93 callsubr
          hintmask 10001000
          -125 -200 rmoveto
          -106 callgsubr
          hintmask 00101000
          225 6 callsubr
        </CharString>
        <CharString name="djecyrillic">
          77 -205 72 147 -21 396 72 24 73 85 -20 26 callsubr
          75 558 rmoveto
          -28 -2 -19 -13 -20 vvcurveto
          -15 10 -21 37 -2 vhcurveto
          -450 vlineto
          -77 callgsubr
          194 vlineto
          82 36 78 145 vhcurveto
          29 hlineto
          140 40 -11 -100 hvcurveto
          -361 vlineto
          -38 1 callsubr
          -45 -8 -22 -14 -29 26 -7 27 64 53 14 125 vhcurveto
          346 vlineto
          151 -37 callsubr
          -70 -65 -16 -34 -46 hvcurveto
          74 222 vlineto
          34 22 14 21 15 -11 23 -45 hvcurveto
          -222 39 hlineto
          -40 callsubr
          endchar
        </CharString>
        <CharString name="dollar">
          25 14 -21 91 72 135 72 122 72 86 -20 hstem
          61 72 151 72 139 72 vstem
          171 84 rmoveto
          113 -52 hlineto
          -32 19 -7 14 32 7 20 21 vhcurveto
          50 72 vlineto
          100 39 53 83 70 -27 73 -110 hvcurveto
          -74 122 94 hlineto
          35 10 -7 -39 -34 20 -8 16 21 15 13 31 58 -14 58 -96 hvcurveto
          -101 46 hlineto
          34 -22 6 -16 -24 -10 -19 -22 vhcurveto
          -45 -83 vlineto
          -112 -28 -59 -70 -68 29 -69 111 hvcurveto
          83 -135 -106 hlineto
          -32 -13 6 43 21 -8 20 -28 -13 -23 -5 -38 -59 14 -60 96 hvcurveto
          275 207 rmoveto
          28 21 -30 -47 -38 -12 -20 -37 hvcurveto
          -90 135 hlineto
          -174 72 rmoveto
          -27 -22 23 48 42 16 9 33 hvcurveto
          102 -122 hlineto
          endchar
        </CharString>
        <CharString name="dotaccent">
          -382 579 102 hstem
          50 122 vstem
          111 579 rmoveto
          9 callgsubr
        </CharString>
        <CharString name="dotbelowcomb">
          -149 39 callsubr
          -149 -97 callgsubr
          endchar
        </CharString>
        <CharString name="dotlessi">
          -385 73 72 vstem
          73 440 -89 callsubr
          endchar
        </CharString>
        <CharString name="dzecyrillic">
          10 callgsubr
          hstem
          60 72 362 72 vstem
          170 hmoveto
          228 hlineto
          132 36 53 79 68 -30 72 -108 hvcurveto
          -247 hlineto
          -27 -22 20 42 41 18 14 31 hvcurveto
          266 -32 callgsubr
          -12 -40 -10 callgsubr
          -9 callsubr
          59 -14 63 -96 hvcurveto
          -225 hlineto
          -135 -34 -51 -76 -74 38 -60 101 hvcurveto
          246 hlineto
          29 20 -29 -39 -44 -20 -16 -29 hvcurveto
          -268 -13 callgsubr
          -22 -14 -13 -33 -59 14 -62 96 hvcurveto
          endchar
        </CharString>
        <CharString name="dzhecyrillic">
          43 0 72 396 -20 hstem
          76 72 139 72 139 72 cntrmask 00111000
          287 -47 rmoveto
          -25 6 -20 30 28 8 16 29 vhcurveto
          47 211 426 vlineto
          79 callgsubr
          -25 -11 -16 -26 vhcurveto
          -354 -350 354 vlineto
          33 -19 9 -18 -57 callgsubr
          -426 211 vlineto
          endchar
        </CharString>
        <CharString name="e">
          -36 callsubr
          hstem
          61 72 380 72 vstem
          595 283 rmoveto
          148 -86 30 -166 vhcurveto
          -29 -101 callsubr
          161 hlineto
          -96 callgsubr
          -154 -23 callsubr
          54 462 vlineto
          -252 154 rmoveto
          130 45 -8 -74 5 hvcurveto
          -390 hlineto
          70 4 36 12 141 hhcurveto
          endchar
        </CharString>
        <CharString name="eacute">
          72 callgsubr
          161 175 44 72 vstem
          595 283 rmoveto
          148 -86 30 -166 vhcurveto
          -29 -101 callsubr
          161 hlineto
          -96 callgsubr
          -154 -23 callsubr
          54 462 vlineto
          -252 154 rmoveto
          130 45 -8 -74 5 hvcurveto
          -390 hlineto
          70 4 36 12 141 hhcurveto
          15 106 rmoveto
          -60 callgsubr
        </CharString>
        <CharString name="ecaron">
          -36 callsubr
          46 164 hstem
          61 72 53 298 29 72 vstem
          367 -13 callsubr
          292 -224 rmoveto
          148 -86 30 -166 vhcurveto
          -29 -101 callsubr
          161 hlineto
          -96 callgsubr
          -154 -23 callsubr
          54 462 vlineto
          -252 154 rmoveto
          130 45 -8 -74 5 hvcurveto
          -390 hlineto
          70 4 36 12 141 hhcurveto
          endchar
        </CharString>
        <CharString name="ecircumflex">
          -36 callsubr
          61 168 hstem
          78 callgsubr
          33 72 vstem
          595 283 rmoveto
          148 -86 30 -166 vhcurveto
          -29 -101 callsubr
          161 hlineto
          -96 callgsubr
          -154 -23 callsubr
          54 462 vlineto
          -252 154 rmoveto
          130 45 -8 -74 5 hvcurveto
          -390 hlineto
          70 4 36 12 141 hhcurveto
          -129 185 -107 callgsubr
          endchar
        </CharString>
        <CharString name="ecyrillic">
          19 64 callsubr
          61 -2 callsubr
          455 461 rmoveto
          -141 -101 callsubr
          141 hlineto
          96 14 63 59 39 -22 6 -14 -14 -22 -8 -35 -40 1 callsubr
          hvcurveto
          -134 hlineto
          -143 -38 10 96 hvcurveto
          24 214 vlineto
          23 23 7 27 22 -13 16 -33 hvcurveto
          -214 10 hlineto
          95 38 10 143 34 callgsubr
        </CharString>
        <CharString name="edieresis">
          -36 callsubr
          61 102 hstem
          61 89 callgsubr
          39 72 vstem
          595 283 rmoveto
          148 -86 30 -166 vhcurveto
          -29 -101 callsubr
          161 hlineto
          -96 callgsubr
          -154 -23 callsubr
          54 462 vlineto
          -252 154 rmoveto
          130 45 -8 -74 5 hvcurveto
          -390 hlineto
          70 4 36 12 141 hhcurveto
          -71 133 -104 callsubr
          endchar
        </CharString>
        <CharString name="edotaccent">
          -36 callsubr
          61 102 hstem
          61 72 135 122 123 72 vstem
          329 522 rmoveto
          -106 callgsubr
          266 -239 rmoveto
          148 -86 30 -166 vhcurveto
          -29 -101 callsubr
          161 hlineto
          -96 callgsubr
          -154 -23 callsubr
          54 462 vlineto
          -252 154 rmoveto
          130 45 -8 -74 5 hvcurveto
          -390 hlineto
          70 4 36 12 141 hhcurveto
          endchar
        </CharString>
        <CharString name="eekayahli">
          497 72 hstem
          -467 72 175 72 vstem
          -366 497 -71 callsubr
          endchar
        </CharString>
        <CharString name="efcyrillic">
          203 0 -55 callsubr
          182 -20 hstem
          59 72 236 72 236 72 cntrmask 00011100
          675 198 rmoveto
          -63 -8 -63 -99 -103 -26 89 70 71 26 87 103 99 8 -63 -63 vhcurveto
          -544 -65 rmoveto
          65 vlineto
          63 8 63 99 103 26 -87 -71 -70 -26 -89 -103 -99 -8 63 63 vhcurveto
          308 -335 rmoveto
          184 vlineto
          -32 33 37 -15 59 hhcurveto
          143 36 97 101 hvcurveto
          65 vlineto
          101 -36 97 -143 -59 -37 -15 -32 -33 vhcurveto
          184 vlineto
          39 -21 6 -15 -15 -21 -6 -39 vhcurveto
          -184 vlineto
          32 -33 -37 15 -59 hhcurveto
          -143 -36 -97 -101 hvcurveto
          -65 vlineto
          -101 36 -97 143 59 37 15 32 33 vhcurveto
          -184 vlineto
          -39 21 -6 15 15 21 6 39 vhcurveto
          endchar
        </CharString>
        <CharString name="egrave">
          72 callgsubr
          77 175 128 72 vstem
          595 283 rmoveto
          148 -86 30 -166 vhcurveto
          -29 -101 callsubr
          161 hlineto
          -96 callgsubr
          -154 -23 callsubr
          54 462 vlineto
          -252 154 rmoveto
          130 45 -8 -74 5 hvcurveto
          -390 hlineto
          70 4 36 12 141 hhcurveto
          60 170 -98 callgsubr
          endchar
        </CharString>
        <CharString name="eight">
          47 -5 72 225 72 205 72 hstem
          73 -2 callsubr
          145 180 rmoveto
          102 42 10 121 vhcurveto
          35 hlineto
          121 41 -10 -102 -104 -41 -9 -121 hvcurveto
          -35 hlineto
          -123 -40 10 103 hvcurveto
          432 -2 rmoveto
          63 -14 51 -41 34 vhcurveto
          38 26 17 49 67 vvcurveto
          161 -97 12 -137 vhcurveto
          -35 hlineto
          -138 -97 -12 -161 -67 18 -48 38 -27 hvcurveto
          -40 -32 -16 -51 -65 vvcurveto
          -155 88 -28 147 vhcurveto
          35 hlineto
          148 86 29 154 hvcurveto
          -72 288 rmoveto
          -101 -37 -1 -125 vhcurveto
          -35 hlineto
          -124 -39 2 100 103 40 0 121 hvcurveto
          37 hlineto
          126 36 -1 -102 hvcurveto
          endchar
        </CharString>
        <CharString name="eightkayahli">
          -27 -15 72 hstem
          70 -11 callsubr
          70 124 rmoveto
          16 callgsubr
          38 -21 7 -14 -15 -22 -8 -37 hvcurveto
          -18 vlineto
          -57 callsubr
          332 -50 callsubr
          endchar
        </CharString>
        <CharString name="ekayahli">
          488 72 28 73 hstem
          -474 588 rmoveto
          307 -97 rlineto
          -2 6 7 -1 8 hhcurveto
          27 7 26 10 21 -17 11 -11 4 hvcurveto
          -310 98 rlineto
          2 -7 -5 1 -7 hhcurveto
          -27 -7 -27 -10 -14 10 -15 19 -7 hvcurveto
          endchar
        </CharString>
        <CharString name="elcyrillic">
          8 0 -55 callsubr
          hstem
          126 72 265 72 vstem
          535 37 rmoveto
          424 -284 vlineto
          -111 -14 -42 -88 hvcurveto
          -213 vlineto
          -37 -18 -9 -35 -38 -8 12 callsubr
          63 62 13 117 vhcurveto
          212 vlineto
          34 10 13 51 vhcurveto
          204 -353 hlineto
          -36 21 -7 14 22 15 12 32 vhcurveto
          endchar
        </CharString>
        <CharString name="ellipsis">
          -7 -22 102 hstem
          64 122 51 122 51 122 cntrmask 01110000
          471 -22 rmoveto
          -106 callgsubr
          -173 -94 callsubr
          -173 hmoveto
          9 callgsubr
        </CharString>
        <CharString name="emacron">
          -36 callsubr
          61 73 hstem
          61 72 31 330 19 72 vstem
          450 595 rmoveto
          -93 callsubr
          145 -312 rmoveto
          148 -86 30 -166 vhcurveto
          -29 -101 callsubr
          161 hlineto
          -96 callgsubr
          -154 -23 callsubr
          54 462 vlineto
          -252 154 rmoveto
          130 45 -8 -74 5 hvcurveto
          -390 hlineto
          70 4 36 12 141 hhcurveto
          endchar
        </CharString>
        <CharString name="emcyrillic">
          72 14 -21 475 -20 hstem
          75 72 381 72 vstem
          337 104 rmoveto
          9 11 2 10 8 hvcurveto
          163 232 rlineto
          -310 vlineto
          -32 14 -13 21 22 15 11 31 vhcurveto
          390 vlineto
          31 -14 12 -21 -15 -12 -9 -14 -10 vhcurveto
          -191 -266 -190 266 rlineto
          16 -11 -12 7 -15 hhcurveto
          -14 -20 -6 -37 hvcurveto
          -390 vlineto
          -37 23 -5 13 37 callgsubr
          310 vlineto
          163 -232 rlineto
          -3 3 8 -9 16 hhcurveto
          endchar
        </CharString>
        <CharString name="emdash">
          57 194 73 hstem
          544 267 rmoveto
          -430 hlineto
          -32 -9 -22 -14 -18 10 -19 31 hvcurveto
          430 32 callsubr
          endchar
        </CharString>
        <CharString name="encyrillic">
          41 14 -21 215 72 188 -20 hstem
          75 72 350 72 vstem
          147 35 rmoveto
          173 350 -173 -66 callsubr
          390 vlineto
          22 -7 21 -30 -14 -21 -6 -37 vhcurveto
          -145 -350 145 vlineto
          22 -9 21 -29 -14 -20 -6 -37 vhcurveto
          -390 vlineto
          -77 callgsubr
          endchar
        </CharString>
        <CharString name="endash">
          -60 194 73 hstem
          427 267 rmoveto
          -313 hlineto
          -32 -9 -22 -14 -18 10 -19 31 hvcurveto
          313 32 callsubr
          endchar
        </CharString>
        <CharString name="eng">
          76 -175 72 117 -21 396 72 hstem
          74 69 callgsubr
          608 hmoveto
          283 vlineto
          -58 callgsubr
          -73 55 callgsubr
          hvcurveto
          19 callgsubr
          147 vhcurveto
          29 hlineto
          140 40 -9 -100 hvcurveto
          -280 vlineto
          -93 -38 -10 -113 -25 -21 -8 -27 -22 13 -15 33 135 88 24 151 vhcurveto
          endchar
        </CharString>
        <CharString name="eogonek">
          48 -205 70 135 -16 callsubr
          hstem
          61 72 125 72 183 72 vstem
          330 53 callgsubr
          73 hlineto
          -96 callgsubr
          -154 -23 callsubr
          54 462 48 vlineto
          -58 callgsubr
          -167 -75 callgsubr
          -105 vlineto
          -144 82 -33 159 -1 vhcurveto
          -30 -38 -14 -31 -22 -70 callsubr
          13 480 rmoveto
          130 45 -8 -74 5 hvcurveto
          -390 hlineto
          70 4 36 12 141 hhcurveto
          endchar
        </CharString>
        <CharString name="epsilon">
          32 64 callsubr
          61 72 373 72 vstem
          -53 callgsubr
          endchar
        </CharString>
        <CharString name="epsilontonos">
          32 22 callgsubr
          51 224 hstemhm
          61 72 136 73 -20 72 112 -55 callgsubr
          hintmask 11101001
          -53 callgsubr
          hintmask 00010010
          99 534 -69 callgsubr
          hintmask 00010100
          -87 callgsubr
          hintmask 00010010
          -47 callgsubr
        </CharString>
        <CharString name="equal">
          -115 244 73 30 73 hstem
          79 330 vstem
          365 420 rmoveto
          -93 callsubr
          -103 vmoveto
          -93 callsubr
          endchar
        </CharString>
        <CharString name="ercyrillic">
          54 callsubr
          26 callsubr
          537 280 -73 callgsubr
        </CharString>
        <CharString name="ereversedcyrillic">
          19 64 callsubr
          57 -2 callsubr
          167 461 37 callsubr
          143 38 -10 -95 hvcurveto
          -10 -214 vlineto
          -33 -13 -16 -22 -27 23 -7 23 hvcurveto
          214 -24 hlineto
          -96 -38 -10 -143 vhcurveto
          -134 -33 callsubr
          35 -22 8 -14 -49 callgsubr
          hvcurveto
          141 hlineto
          167 86 30 148 hvcurveto
          105 vlineto
          148 -86 30 -167 vhcurveto
          endchar
        </CharString>
        <CharString name="escyrillic">
          82 callgsubr
          hstem
          61 72 360 -87 callsubr
          endchar
        </CharString>
        <CharString name="eta">
          48 30 callgsubr
          hstem
          74 72 362 72 vstem
          -30 callgsubr
          endchar
        </CharString>
        <CharString name="etatonos">
          48 42 callsubr
          58 224 hstemhm
          74 72 151 73 -20 72 86 -55 callgsubr
          hintmask 11010010
          -30 callgsubr
          hintmask 00100100
          60 354 -80 callsubr
          endchar
        </CharString>
        <CharString name="eth">
          2 -16 72 328 72 32 -21 96 73 hstem
          46 -2 callsubr
          162 563 rmoveto
          20 28 -2 -7 30 hvcurveto
          -24 -20 rlineto
          -7 -7 -11 -12 -13 vvcurveto
          -21 25 -14 17 6 15 3 11 11 vhcurveto
          50 43 36 -20 37 -28 28 -41 rlinecurve
          13 -30 -36 8 -41 hhcurveto
          -161 -109 -86 -150 -149 109 -87 161 154 80 116 124 177 -69 113 -101 63 hvcurveto
          13 10 rlineto
          10 10 7 10 13 vvcurveto
          22 -23 12 -15 -14 -13 -7 -7 -9 vhcurveto
          -31 -28 rlineto
          16 -46 -50 8 -47 hhcurveto
          -17 -24 -8 -30 -14 7 -21 34 hvcurveto
          316 -342 rmoveto
          -70 -44 -95 -118 -127 -71 69 95 98 75 66 123 120 42 -82 -81 vhcurveto
          endchar
        </CharString>
        <CharString name="exclam">
          -343 -22 102 hstemhm
          69 123 -98 -55 callgsubr
          hintmask 11000000
          130 80 rmoveto
          -24 -37 -20 -31 -32 38 -19 23 27 35 20 31 33 -39 18 -23 hvcurveto
          hintmask 10100000
          36 117 rmoveto
          419 vlineto
          35 -22 8 -14 -14 -22 -8 -35 vhcurveto
          -419 vlineto
          -36 21 -7 14 20 17 12 31 vhcurveto
          endchar
        </CharString>
        <CharString name="exclamdown">
          -356 399 102 hstemhm
          62 123 -97 -55 callgsubr
          hintmask 10100000
          88 282 -89 callsubr
          35 117 rmoveto
          hintmask 11000000
          23 39 18 33 31 -35 20 -27 -23 -38 -19 -32 -31 37 -20 24 hvcurveto
          endchar
        </CharString>
        <CharString name="f">
          -258 30 callgsubr
          103 72 hstem
          80 72 vstem
          303 564 -27 callgsubr
        </CharString>
        <CharString name="fitacyrillic">
          24 0 72 103 72 -32 72 102 72 hstemhm
          61 72 361 -55 callgsubr
          hintmask 10011100
          314 hmoveto
          57 callsubr
          149 hvcurveto
          105 vlineto
          148 -86 29 -166 -168 -85 -29 -148 vhcurveto
          -105 vlineto
          -149 85 -30 168 vhcurveto
          389 vmoveto
          140 40 -9 -97 hvcurveto
          -8 vlineto
          hintmask 11011100
          -9 -13 -32 -19 -26 hhcurveto
          hintmask 10111100
          -44 -113 40 -80 hhcurveto
          -16 -19 -5 -9 -18 hvcurveto
          11 vlineto
          95 37 10 144 vhcurveto
          -317 vmoveto
          -144 -37 10 96 hvcurveto
          10 vlineto
          8 11 30 19 27 hhcurveto
          hintmask 11011100
          45 113 -40 80 hhcurveto
          21 19 7 8 15 hvcurveto
          -13 vlineto
          -96 -40 -9 -140 vhcurveto
          endchar
        </CharString>
        <CharString name="five">
          5 -9 72 314 72 120 72 hstem
          485 72 vstem
          97 141 rmoveto
          -14 -20 -15 -21 -57 154 -57 88 148 104 89 153 139 -117 77 -116 hvcurveto
          -178 hlineto
          6 74 rlineto
          37 4 14 9 26 hhcurveto
          277 hlineto
          34 8 21 14 17 -8 20 -34 hvcurveto
          -269 hlineto
          -82 -37 -33 -100 -7 hvcurveto
          -9 -131 rlineto
          264 hlineto
          57 95 -33 -111 -105 -58 -65 -122 hvcurveto
          -119 -64 78 -25 hhcurveto
          endchar
        </CharString>
        <CharString name="fivekayahli">
          -28 -15 72 252 167 -72 72 hstemhm
          66 72 330 -55 callgsubr
          hintmask 10111000
          66 337 rmoveto
          -213 vlineto
          41 callsubr
          70 hlineto
          25 21 8 27 22 -13 15 -33 hvcurveto
          -63 hlineto
          -20 callsubr
          22 callsubr
          285 -50 hlineto
          hintmask 11011000
          -27 callsubr
          -9 callsubr
          vhcurveto
          hintmask 10111000
          122 -364 vlineto
          49 callgsubr
          hvcurveto
          endchar
        </CharString>
        <CharString name="florin">
          -228 -105 72 422 72 103 72 hstem
          81 86 vstem
          167 50 rmoveto
          339 144 vlineto
          40 6 20 14 22 -13 16 -33 hvcurveto
          -144 hlineto
          94 5 50 9 112 hhcurveto
          23 23 7 27 22 -14 16 -32 -140 -105 -26 -150 -7 hvcurveto
          -27 -4 -5 -16 -12 vvcurveto
          -19 12 -12 19 -3 vhcurveto
          -315 vlineto
          -108 -4 -4 -79 -39 -7 12 callsubr
          108 61 22 133 vhcurveto
          endchar
        </CharString>
        <CharString name="four">
          -26 14 -21 167 72 hstem
          378 76 vstem
          500 160 rmoveto
          19 23 7 29 29 -23 7 -19 hvcurveto
          -46 409 -84 hlineto
          -336 -406 rlineto
          -75 344 -128 vlineto
          -26 18 -13 22 14 22 6 33 vhcurveto
          128 vlineto
          -76 72 rmoveto
          -262 hlineto
          262 318 rlineto
          endchar
        </CharString>
        <CharString name="fourkayahli">
          -59 callsubr
        </CharString>
        <CharString name="foursuperior">
          -274 547 63 hstem
          165 64 vstem
          197 443 -46 callgsubr
          endchar
        </CharString>
        <CharString name="fraction">
          -377 -70 77 -61 callgsubr
          endchar
        </CharString>
        <CharString name="g">
          67 -205 72 133 -55 callsubr
          hstem
          61 69 callgsubr
          595 -77 36 callgsubr
          -29 -7 -22 -23 vhcurveto
          -12 vlineto
          34 -42 -66 16 -73 hhcurveto
          -29 hlineto
          -166 -94 callgsubr
          164 vhcurveto
          212 -93 hlineto
          -33 -5 -7 -31 vhcurveto
          -309 -13 callgsubr
          -49 callgsubr
          hvcurveto
          323 hlineto
          81 20 41 87 hvcurveto
          -284 149 rmoveto
          -138 -29 callgsubr
          99 vlineto
          100 40 9 140 vhcurveto
          29 hlineto
          147 34 -74 -82 hvcurveto
          -161 vlineto
          endchar
        </CharString>
        <CharString name="gakayahli">
          19 -15 72 97 72 178 72 hstemhm
          74 72 -72 163 148 163 -72 -55 callgsubr
          hintmask 11101000
          191 -15 rmoveto
          24 22 7 28 30 -22 7 -24 hvcurveto
          hintmask 11110010
          -45 97 330 -97 -45 hlineto
          hintmask 11100100
          -33 -13 -15 -22 -28 23 -7 23 hvcurveto
          hintmask 11110010
          117 53 callsubr
          -122 hlineto
          -170 -205 rlineto
          167 -50 callsubr
          -453 vlineto
          126 241 rmoveto
          144 178 rlineto
          87 -33 callgsubr
          -128 vlineto
          endchar
        </CharString>
        <CharString name="gamma">
          -35 389 72 hstem
          240 79 150 71 vstem
          68 389 rmoveto
          34 44 -132 -276 95 hvcurveto
          -1 -118 rlineto
          -23 8 -22 30 24 17 12 33 vhcurveto
          119 vlineto
          218 439 rlineto
          2 7 1 2 7 vvcurveto
          19 -18 12 -16 -15 -12 -7 -20 -10 vhcurveto
          -182 -377 rlineto
          334 -110 -10 63 -99 hhcurveto
          -56 callgsubr
          endchar
        </CharString>
        <CharString name="gbreve">
          67 -205 72 133 -55 callsubr
          64 74 hstem
          61 72 64 85 callgsubr
          66 72 vstem
          457 651 -95 callsubr
          138 -728 36 callgsubr
          -29 -7 -22 -23 vhcurveto
          -12 vlineto
          34 -42 -66 16 -73 hhcurveto
          -29 hlineto
          -166 -94 callgsubr
          164 vhcurveto
          212 -93 hlineto
          -33 -5 -7 -31 vhcurveto
          -309 -13 callgsubr
          -49 callgsubr
          hvcurveto
          323 hlineto
          81 20 41 87 hvcurveto
          -284 149 rmoveto
          -138 -29 callgsubr
          99 vlineto
          100 40 9 140 vhcurveto
          29 hlineto
          147 34 -74 -82 hvcurveto
          -161 vlineto
          endchar
        </CharString>
        <CharString name="gcircumflex">
          67 -205 72 133 -55 callsubr
          68 168 hstem
          61 72 38 303 49 72 vstem
          595 -77 36 callgsubr
          -29 -7 -22 -23 vhcurveto
          -12 vlineto
          34 -42 -66 16 -73 hhcurveto
          -29 hlineto
          -166 -94 callgsubr
          164 vhcurveto
          212 -93 hlineto
          -33 -5 -7 -31 vhcurveto
          -309 -13 callgsubr
          -49 callgsubr
          hvcurveto
          323 hlineto
          81 20 41 87 hvcurveto
          -284 149 rmoveto
          -138 -29 callgsubr
          99 vlineto
          100 40 9 140 vhcurveto
          29 hlineto
          147 34 -74 -82 hvcurveto
          -161 vlineto
          -344 509 -107 callgsubr
          endchar
        </CharString>
        <CharString name="gcommaaccent">
          67 -205 72 133 -55 callsubr
          68 171 hstemhm
          61 72 162 113 -66 66 115 -55 callgsubr
          hintmask 00010010
          342 670 rmoveto
          -40 -83 rlineto
          hintmask 00010100
          7 callsubr
          hintmask 11101001
          253 -747 36 callgsubr
          -29 -7 -22 -23 vhcurveto
          -12 vlineto
          34 -42 -66 16 -73 hhcurveto
          -29 hlineto
          -166 -94 callgsubr
          164 vhcurveto
          212 -93 hlineto
          -33 -5 -7 -31 vhcurveto
          -309 -13 callgsubr
          -49 callgsubr
          hvcurveto
          323 hlineto
          81 20 41 87 hvcurveto
          -284 149 rmoveto
          -138 -29 callgsubr
          99 vlineto
          100 40 9 140 vhcurveto
          29 hlineto
          147 34 -74 -82 hvcurveto
          -161 vlineto
          endchar
        </CharString>
        <CharString name="gdotaccent">
          67 -205 72 133 -55 callsubr
          53 102 hstem
          61 72 140 122 128 72 vstem
          595 -77 36 callgsubr
          -29 -7 -22 -23 vhcurveto
          -12 vlineto
          34 -42 -66 16 -73 hhcurveto
          -29 hlineto
          -166 -94 callgsubr
          164 vhcurveto
          212 -93 hlineto
          -33 -5 -7 -31 vhcurveto
          -309 -13 callgsubr
          -49 callgsubr
          hvcurveto
          323 hlineto
          81 20 41 87 hvcurveto
          -284 149 rmoveto
          -138 -29 callgsubr
          99 vlineto
          100 40 9 140 vhcurveto
          29 hlineto
          147 34 -74 -82 hvcurveto
          -161 vlineto
          -189 442 rmoveto
          9 callgsubr
        </CharString>
        <CharString name="gecyrillic">
          -83 30 callgsubr
          hstem
          73 72 vstem
          190 389 rmoveto
          267 hlineto
          39 6 22 14 14 -6 22 -39 hvcurveto
          -274 hlineto
          -9 callgsubr
          endchar
        </CharString>
        <CharString name="germandbls">
          -97 -20 72 -38 -21 348 67 156 72 hstemhm
          32 103 -72 72 17 84 89 73 -4 -6 callsubr
          hintmask 1011001010000000
          165 341 rmoveto
          199 30 -83 -57 -128 -49 -21 -35 -32 -42 10 41 32 -18 12 -24 -19 -23 -9 -37 -85 89 -36 60 67 98 35 183 80 -37 71 -94 32 hvcurveto
          hintmask 0111011100000000
          40 31 23 44 54 vvcurveto
          60 -45 66 -108 -93 -82 -28 -148 -7 vhcurveto
          hintmask 0111101000000000
          -19 -3 -12 -10 -18 vvcurveto
          hintmask 0111011100000000
          -20 11 -12 20 -3 vhcurveto
          -357 vlineto
          -22 7 -22 27 22 16 13 33 vhcurveto
          422 vlineto
          95 36 8 74 52 28 -21 -31 -83 -69 -21 -91 vhcurveto
          endchar
        </CharString>
        <CharString name="gheupturncyrillic">
          -76 30 callgsubr
          -72 184 hstemhm
          73 72 285 -55 callgsubr
          hintmask 11011000
          190 389 rmoveto
          312 139 hlineto
          hintmask 10111000
          37 -21 8 -14 -15 -22 -8 -37 vhcurveto
          hintmask 11011000
          -67 -247 vlineto
          -9 callgsubr
          endchar
        </CharString>
        <CharString name="gjecyrillic">
          -83 42 callsubr
          34 198 hstem
          73 72 101 175 vstem
          190 389 rmoveto
          267 hlineto
          39 6 22 14 14 -6 22 -39 hvcurveto
          -274 hlineto
          -9 callgsubr
          91 106 rmoveto
          -60 callgsubr
        </CharString>
        <CharString name="grave">
          86 callsubr
          183 1 callgsubr
          endchar
        </CharString>
        <CharString name="gravecomb">
          490 151 hstem
          -385 152 vstem
          -247 555 -100 callsubr
          endchar
        </CharString>
        <CharString name="greater">
          -55 493 298 rmoveto
          17 11 5 15 9 vvcurveto
          13 -7 11 -15 9 vhcurveto
          -365 210 rlineto
          4 -6 -9 4 -10 hhcurveto
          -19 -16 -13 -20 -17 16 -15 9 -4 hvcurveto
          315 -182 -315 -184 rlineto
          -15 -9 -10 -9 -15 vvcurveto
          -7 7 -30 27 8 9 2 7 10 vhcurveto
          endchar
        </CharString>
        <CharString name="greaterequal">
          -30 0 73 14 73 192 74 hstem
          102 352 rmoveto
          266 -96 -266 -96 rlineto
          -16 -7 -14 -12 -19 vvcurveto
          -13 7 -22 29 vhcurveto
          8 10 3 2 hhcurveto
          356 129 rlineto
          7 3 20 12 22 vvcurveto
          15 -10 15 -17 8 vhcurveto
          -356 129 rlineto
          2 -5 -7 1 -8 hhcurveto
          -22 -15 -17 -19 -16 12 -14 19 -8 hvcurveto
          368 -352 rmoveto
          17 24 8 30 14 -7 21 -34 hvcurveto
          -355 hlineto
          -35 -9 -22 -16 -21 19 -14 25 hvcurveto
          endchar
        </CharString>
        <CharString name="guillemotleft">
          -87 33 94 callgsubr
          420 545 rmoveto
          -62 callsubr
          hintmask 10000000
          -154 hmoveto
          -62 callsubr
          endchar
        </CharString>
        <CharString name="guillemotright">
          -87 66 94 callgsubr
          250 545 rmoveto
          -18 -12 -12 -18 -16 7 -12 9 -10 hvcurveto
          149 -144 -149 -145 rlineto
          -14 -14 -2 -16 -8 vvcurveto
          -18 12 -12 18 9 12 1 8 8 vhcurveto
          182 169 rlineto
          10 8 12 10 17 vvcurveto
          17 -17 12 -5 4 vhcurveto
          -182 169 rlineto
          8 -8 -10 2 -11 hhcurveto
          hintmask 10000000
          -154 hmoveto
          -18 -12 -12 -18 -16 7 -12 9 -10 hvcurveto
          149 -144 -149 -145 rlineto
          -14 -14 -2 -16 -8 vvcurveto
          -18 12 -12 18 9 12 1 8 8 vhcurveto
          182 169 rlineto
          10 8 12 10 17 vvcurveto
          17 -17 12 -5 4 vhcurveto
          -182 169 rlineto
          8 -8 -10 2 -11 hhcurveto
          endchar
        </CharString>
        <CharString name="guilsinglleft">
          -241 33 263 vstem
          266 545 rmoveto
          -62 callsubr
          endchar
        </CharString>
        <CharString name="guilsinglright">
          -241 66 263 vstem
          96 545 rmoveto
          -18 -12 -12 -18 -16 7 -12 9 -10 hvcurveto
          149 -144 -149 -145 rlineto
          -14 -14 -2 -16 -8 vvcurveto
          -18 12 -12 18 9 12 1 8 8 vhcurveto
          182 169 rlineto
          10 8 12 10 17 vvcurveto
          17 -17 12 -5 4 vhcurveto
          -182 169 rlineto
          8 -8 -10 2 -11 hhcurveto
          endchar
        </CharString>
        <CharString name="h">
          76 30 callgsubr
          182 -20 hstem
          75 72 390 -35 callsubr
          endchar
        </CharString>
        <CharString name="hakayahli">
          19 -205 72 118 74 callsubr
          hstem
          73 72 69 72 189 72 vstem
          267 57 rmoveto
          -77 hlineto
          -20 callsubr
          46 vlineto
          62 41 79 70 73 vvcurveto
          140 -213 -352 vlineto
          41 callsubr
          115 hlineto
          177 233 rlineto
          -301 vlineto
          -38 1 callsubr
          -38 -8 12 callsubr
          66 51 13 126 vhcurveto
          502 vlineto
          39 -21 8 -14 -22 -15 -14 -33 vhcurveto
          -101 vlineto
          -330 69 rmoveto
          69 -68 hlineto
          -23 -32 -48 -37 -27 vhcurveto
          endchar
        </CharString>
        <CharString name="hardsigncyrillic">
          48 22 callgsubr
          hstemhm
          29 204 -72 72 311 -55 callgsubr
          hintmask 11101100
          412 72 rmoveto
          -179 130 179 hlineto
          46 callsubr
          -251 -72 rmoveto
          258 hlineto
          173 24 82 55 110 -121 27 -83 hvcurveto
          -179 187 70 callsubr
          hintmask 11101100
          86 hlineto
          endchar
        </CharString>
        <CharString name="hbar">
          76 42 callsubr
          24 73 65 20 26 callsubr
          75 485 rmoveto
          -450 vlineto
          -77 callgsubr
          194 vlineto
          82 36 78 145 vhcurveto
          -45 callgsubr
          -70 -65 -16 -34 -46 hvcurveto
          74 222 vlineto
          34 22 14 21 15 -11 23 -45 hvcurveto
          -222 39 hlineto
          -40 callsubr
          -39 vlineto
          -28 -2 -19 -13 -20 vvcurveto
          -15 10 -21 37 -2 vhcurveto
          endchar
        </CharString>
        <CharString name="hcircumflex">
          76 42 callsubr
          162 20 10 168 hstem
          75 72 41 303 46 -35 callsubr
          -132 316 -107 callgsubr
          endchar
        </CharString>
        <CharString name="hookabovecomb">
          614 56 hstemhm
          -358 -26 callgsubr
          hintmask 00000000
          hintmask 10100000
          -293 507 -70 callgsubr
          hintmask 11010000
          -102 callgsubr
          hintmask 10100000
          21 callsubr
        </CharString>
        <CharString name="htakayahli">
          10 -15 74 callsubr
          hstemhm
          66 72 256 146 -72 -55 callgsubr
          hintmask 11101000
          461 572 rmoveto
          7 7 rlineto
          -103 -30 vlineto
          hintmask 11110000
          -31 -13 -16 -22 -26 18 -8 26 hvcurveto
          hintmask 11101000
          30 -298 hlineto
          -57 callsubr
          22 callsubr
          88 97 callgsubr
          -95 hlineto
          -88 -22 -44 -94 hvcurveto
          -214 vlineto
          -94 22 -45 -14 callgsubr
          45 94 hvcurveto
          538 vlineto
          29 -25 9 -12 -14 -10 -7 -8 -9 vhcurveto
          -65 -65 rlineto
          -6 -7 -8 -11 -14 vvcurveto
          -17 13 -16 20 15 14 9 8 8 vhcurveto
          endchar
        </CharString>
        <CharString name="hungarumlaut">
          -230 495 198 hstemhm
          19 175 -15 175 hintmask 00000000
          hintmask 11000000
          54 -5 callsubr
          hintmask 10100000
          -64 callsubr
        </CharString>
        <CharString name="hyphen">
          -127 194 73 hstem
          73 330 vstem
          359 267 rmoveto
          -93 callsubr
          endchar
        </CharString>
        <CharString name="i">
          -385 550 102 hstemhm
          48 81 callgsubr
          hintmask 00100000
          73 440 -89 callsubr
          hintmask 11000000
          36 110 -97 callgsubr
          endchar
        </CharString>
        <CharString name="iacute">
          -385 495 198 hstemhm
          73 72 -72 175 hintmask 00000000
          hintmask 01000000
          73 440 -89 callsubr
          hintmask 10100000
          35 55 rmoveto
          -60 callgsubr
        </CharString>
        <CharString name="iacyrillic">
          -8 -8 72 123 55 callsubr
          hstem
          85 72 291 72 vstem
          299 389 rmoveto
          149 -130 -149 hlineto
          -122 -20 11 61 54 41 4 101 hvcurveto
          149 -202 rmoveto
          -159 vlineto
          -16 11 -19 26 16 19 10 25 vhcurveto
          394 vlineto
          15 -8 24 -26 vhcurveto
          -154 hlineto
          -172 -75 -21 -116 -67 26 -37 64 -18 hvcurveto
          -18 -19 -13 -22 -7 -26 -4 -14 rcurveline
          -14 -4 -23 -43 -34 hhcurveto
          -14 -32 -2 -34 -22 16 -14 30 62 52 52 77 22 hvcurveto
          50 14 17 16 77 hhcurveto
          endchar
        </CharString>
        <CharString name="icircumflex">
          -385 529 168 hstemhm
          -42 303 -188 -55 callgsubr
          hintmask 00100000
          73 440 -89 callsubr
          hintmask 11000000
          -107 141 -107 callgsubr
          endchar
        </CharString>
        <CharString name="icyrillic">
          -385 550 102 hstemhm
          48 81 callgsubr
          hintmask 00100000
          73 440 -89 callsubr
          hintmask 11000000
          36 110 -97 callgsubr
          endchar
        </CharString>
        <CharString name="idieresis">
          -385 544 102 hstemhm
          -37 122 -12 72 -12 122 hintmask 00000000
          hintmask 00100000
          73 440 -89 callsubr
          hintmask 11010000
          -49 104 -104 callsubr
          endchar
        </CharString>
        <CharString name="iecyrillic">
          -36 callsubr
          hstem
          61 72 380 72 vstem
          595 283 rmoveto
          148 -86 30 -166 vhcurveto
          -29 -101 callsubr
          161 hlineto
          -96 callgsubr
          -154 -23 callsubr
          54 462 vlineto
          -252 154 rmoveto
          130 45 -8 -74 5 hvcurveto
          -390 hlineto
          70 4 36 12 141 hhcurveto
          endchar
        </CharString>
        <CharString name="igrave">
          -385 496 198 hstemhm
          -30 175 -72 -55 callgsubr
          hintmask 00100000
          73 440 -89 callsubr
          hintmask 11000000
          61 120 -98 callgsubr
          endchar
        </CharString>
        <CharString name="iicyrillic">
          43 21 -21 461 -20 hstem
          76 72 350 -46 callsubr
          endchar
        </CharString>
        <CharString name="iicyrillic_grave">
          43 0 14 427 20 34 198 hstem
          76 72 55 175 120 -46 callsubr
          -203 523 -98 callgsubr
          endchar
        </CharString>
        <CharString name="iishortcyrillic">
          43 0 14 427 20 36 72 hstem
          76 72 16 72 175 72 15 -46 callsubr
          -305 461 -71 callsubr
          endchar
        </CharString>
        <CharString name="ikayahli">
          -1 -15 72 208 72 67 72 hstem
          62 -11 callsubr
          536 124 rmoveto
          213 vlineto
          -31 callsubr
          hvcurveto
          -72 139 vlineto
          32 14 16 22 27 -23 7 -23 hvcurveto
          -67 17 hlineto
          75 callsubr
          -1 vlineto
          -402 -201 rlineto
          -28 vlineto
          16 callgsubr
          hvcurveto
          -72 151 rmoveto
          -169 vlineto
          -57 callsubr
          4 vlineto
          endchar
        </CharString>
        <CharString name="imacron">
          -385 544 73 hstemhm
          -56 330 -201 -55 callgsubr
          hintmask 11000000
          230 617 rmoveto
          -93 callsubr
          hintmask 00100000
          -157 -177 -89 callsubr
          endchar
        </CharString>
        <CharString name="infinity">
          310 145 72 204 72 hstem
          59 72 651 72 vstem
          670 493 rmoveto
          -71 -60 -46 -78 -83 hvcurveto
          79 -84 -60 45 -71 hhcurveto
          -81 -101 -68 -108 -101 101 -71 83 71 60 46 78 83 hvcurveto
          -79 84 60 -45 71 hhcurveto
          81 101 68 108 101 -101 71 -83 hvcurveto
          -423 -72 rmoveto
          32 49 -27 -75 78 hvcurveto
          -77 -80 -47 -25 -32 hhcurveto
          -64 -52 52 51 51 52 50 64 hvcurveto
          419 -205 rmoveto
          -32 -48 26 77 -79 hvcurveto
          79 83 46 22 30 hhcurveto
          64 52 -51 -51 -51 -52 -51 -64 hvcurveto
          endchar
        </CharString>
        <CharString name="integral">
          -249 -205 72 824 72 hstem
          141 72 vstem
          58 -133 rmoveto
          -39 -7 12 callsubr
          105 50 25 139 hvcurveto
          614 vlineto
          114 4 4 79 39 7 21 14 30 -22 7 -24 -105 -50 -25 -139 vhcurveto
          -614 vlineto
          -114 -4 -4 -79 vhcurveto
          endchar
        </CharString>
        <CharString name="iocyrillic">
          -36 callsubr
          61 102 hstem
          61 89 callgsubr
          39 72 vstem
          595 283 rmoveto
          148 -86 30 -166 vhcurveto
          -29 -101 callsubr
          161 hlineto
          -96 callgsubr
          -154 -23 callsubr
          54 462 vlineto
          -252 154 rmoveto
          130 45 -8 -74 5 hvcurveto
          -390 hlineto
          70 4 36 12 141 hhcurveto
          -71 133 -104 callsubr
          endchar
        </CharString>
        <CharString name="iogonek">
          -376 -204 70 684 102 hstemhm
          3 72 -19 81 callgsubr
          hintmask 11101000
          75 -90 rmoveto
          5 9 32 33 31 vhcurveto
          29 7 21 21 hvcurveto
          420 vlineto
          35 -22 8 -14 -14 -22 -8 -35 vhcurveto
          -400 vlineto
          -53 -55 -25 -46 -29 -70 callsubr
          42 640 rmoveto
          hintmask 11010000
          24 37 20 31 32 -38 19 -23 -27 -34 -20 -31 -32 38 -19 23 hvcurveto
          endchar
        </CharString>
        <CharString name="iota">
          -353 0 67 callgsubr
          vstem
          187 hmoveto
          11 callsubr
          -36 -9 10 36 hvcurveto
          308 vlineto
          26 -11 16 -25 -13 -23 -5 -37 vhcurveto
          -296 vlineto
          -89 22 -41 88 vhcurveto
          endchar
        </CharString>
        <CharString name="iotadieresis">
          -353 20 callgsubr
          56 102 hstemhm
          -28 122 -24 72 0 122 hintmask 00000000
          hintmask 11001000
          187 hmoveto
          11 callsubr
          -36 -9 10 36 hvcurveto
          308 vlineto
          26 -11 16 -25 -13 -23 -5 -37 vhcurveto
          -296 vlineto
          -89 22 -41 88 vhcurveto
          hintmask 00110100
          -147 524 -104 callsubr
          endchar
        </CharString>
        <CharString name="iotadieresistonos">
          -353 20 callgsubr
          27 102 0 224 hstemhm
          -38 122 -14 72 -60 73 -23 122 -119 -6 callsubr
          hintmask 0010100100000000
          23 495 -104 callsubr
          hintmask 0001000010000000
          71 callgsubr
          hintmask 0001001000000000
          -87 callgsubr
          hintmask 0001000010000000
          -69 callsubr
          hintmask 1100010000000000
          14 -821 rmoveto
          11 callsubr
          -36 -9 10 36 hvcurveto
          308 vlineto
          26 -11 16 -25 -13 -23 -5 -37 vhcurveto
          -296 vlineto
          -89 22 -41 88 vhcurveto
          endchar
        </CharString>
        <CharString name="iotatonos">
          -353 20 callgsubr
          55 224 hstemhm
          70 72 -62 73 -20 -55 callgsubr
          hintmask 11010000
          187 hmoveto
          11 callsubr
          -36 -9 10 36 hvcurveto
          308 vlineto
          26 -11 16 -25 -13 -23 -5 -37 vhcurveto
          -296 vlineto
          -89 22 -41 88 vhcurveto
          hintmask 00100100
          -9 747 -80 callsubr
          endchar
        </CharString>
        <CharString name="itilde">
          -385 544 -8 callgsubr
          -41 301 -187 -55 callgsubr
          hintmask 10100000
          62 582 -97 callsubr
          hintmask 01100000
          -42 callgsubr
          hintmask 10100000
          -93 callgsubr
          hintmask 01100000
          -98 callsubr
          hintmask 10100000
          -43 callsubr
          hintmask 01100000
          -86 callgsubr
          hintmask 00010000
          11 -142 -89 callsubr
          endchar
        </CharString>
        <CharString name="iucyrillic">
          126 64 callsubr
          75 72 46 76 326 72 vstem
          147 32 rmoveto
          170 46 -24 vlineto
          -150 94 -28 149 145 86 30 148 vhcurveto
          105 vlineto
          148 -86 30 -145 -149 -94 -28 -148 vhcurveto
          -11 -46 154 vlineto
          9 callsubr
          -396 vlineto
          -31 20 -8 15 28 9 20 19 vhcurveto
          289 40 rmoveto
          -121 -46 10 99 hvcurveto
          99 vlineto
          99 46 10 121 118 41 -10 -99 vhcurveto
          -99 vlineto
          -99 -41 -10 -118 vhcurveto
          endchar
        </CharString>
        <CharString name="j">
          -381 -175 72 551 20 82 102 hstemhm
          50 81 callgsubr
          hintmask 00110000
          111 550 -97 callgsubr
          hintmask 11001000
          36 -550 rmoveto
          -52 callsubr
          endchar
        </CharString>
        <CharString name="jcircumflex">
          -381 -175 72 551 20 61 168 hstemhm
          -43 303 -185 -55 callgsubr
          hintmask 11001000
          147 hmoveto
          -52 callsubr
          hintmask 00110000
          -182 581 -107 callgsubr
          endchar
        </CharString>
        <CharString name="jecyrillic">
          -381 -175 72 551 20 82 102 hstemhm
          50 81 callgsubr
          hintmask 00110000
          111 550 -97 callgsubr
          hintmask 11001000
          36 -550 rmoveto
          -52 callsubr
          endchar
        </CharString>
        <CharString name="k">
          -107 14 -21 473 -20 197 -20 hstem
          75 72 vstem
          482 27 rmoveto
          9 -4 14 -10 7 vhcurveto
          -249 206 175 140 rlineto
          15 11 1 13 5 vvcurveto
          20 -18 14 -17 -13 -12 -8 -6 -7 vhcurveto
          -196 -170 rlineto
          318 vlineto
          35 -22 8 -14 -14 -22 -8 -35 vhcurveto
          -568 vlineto
          -31 20 -8 15 17 20 8 34 vhcurveto
          177 vlineto
          19 19 251 -223 rlineto
          -6 7 11 -8 13 hhcurveto
          20 14 18 15 hvcurveto
          endchar
        </CharString>
        <CharString name="kacyrillic">
          5 -7 72 130 55 callsubr
          hstem
          75 72 252 76 cntrmask 11100000
          -44 callgsubr
          endchar
        </CharString>
        <CharString name="kakayahli">
          5 -15 72 353 72 hstemhm
          60 72 52 72 123 155 -72 -55 callgsubr
          hintmask 11110100
          256 -15 rmoveto
          291 vlineto
          86 128 rlineto
          75 -33 callgsubr
          -297 -38 vlineto
          hintmask 11111000
          -39 -6 -21 -14 -30 20 -7 25 hvcurveto
          hintmask 11110100
          110 53 callsubr
          -117 hlineto
          -53 -79 rlineto
          71 -10 -48 14 -35 hhcurveto
          -86 -15 -44 -77 -38 21 -7 14 30 7 20 25 41 6 8 23 14 9 -8 -35 hvcurveto
          -72 vlineto
          -61 -90 rlineto
          -46 -67 -17 -22 -63 vvcurveto
          -68 vlineto
          124 186 rmoveto
          -114 -52 vlineto
          22 1 16 10 15 vhcurveto
          endchar
        </CharString>
        <CharString name="kappa">
          -102 14 -21 475 -20 -42 callsubr
        </CharString>
        <CharString name="kcommaaccent">
          -107 -171 171 -7 22 431 20 157 20 hstemhm
          75 72 67 -6 callgsubr
          hintmask 10000100
          280 -141 rmoveto
          40 83 rlineto
          hintmask 10000010
          -101 callgsubr
          hintmask 01111000
          202 168 rmoveto
          9 -4 14 -10 7 vhcurveto
          -249 206 175 140 rlineto
          15 11 1 13 5 vvcurveto
          20 -18 14 -17 -13 -12 -8 -6 -7 vhcurveto
          -196 -170 rlineto
          318 vlineto
          35 -22 8 -14 -14 -22 -8 -35 vhcurveto
          -568 vlineto
          -31 20 -8 15 17 20 8 34 vhcurveto
          177 vlineto
          19 19 251 -223 rlineto
          -6 7 11 -8 13 hhcurveto
          20 14 18 15 hvcurveto
          endchar
        </CharString>
        <CharString name="kgreenlandic">
          -102 -7 21 434 20 -42 callsubr
        </CharString>
        <CharString name="khacyrillic">
          -45 452 20 hstem
          515 20 rmoveto
          18 -10 10 -2 2 vhcurveto
          -171 180 171 181 rlineto
          11 14 1 9 6 vvcurveto
          19 -19 13 -16 -13 -10 -3 -9 -9 vhcurveto
          -168 -185 -169 185 rlineto
          7 -7 -13 5 -13 hhcurveto
          -16 -19 -13 -19 -6 1 -9 11 -14 hvcurveto
          171 -181 -171 -180 rlineto
          -4 -4 -8 -11 -15 vvcurveto
          -19 20 -12 15 13 12 4 8 8 vhcurveto
          169 185 168 -185 rlineto
          -7 7 12 -5 13 hhcurveto
          15 20 12 19 hvcurveto
          endchar
        </CharString>
        <CharString name="khakayahli">
          1 -15 72 66 72 40 72 97 72 hstem
          64 -11 callsubr
          136 123 rmoveto
          67 hlineto
          38 8 21 14 22 -13 15 -33 hvcurveto
          -139 -71 hlineto
          16 callgsubr
          hvcurveto
          213 vlineto
          -31 callsubr
          hvcurveto
          -102 402 -129 vlineto
          -57 callsubr
          330 248 rmoveto
          -47 -330 47 vlineto
          75 callsubr
          endchar
        </CharString>
        <CharString name="kjecyrillic">
          5 -7 72 130 55 callsubr
          26 198 hstemhm
          75 72 89 175 -12 76 hintmask 00000000
          hintmask 11101010
          -44 callgsubr
          hintmask 00010100
          124 300 rmoveto
          -60 callgsubr
        </CharString>
        <CharString name="l">
          -309 0 72 571 -20 hstem
          91 72 vstem
          -30 callsubr
          endchar
        </CharString>
        <CharString name="lacute">
          -309 0 72 551 20 25 151 hstemhm
          76 152 -137 -55 callgsubr
          hintmask 11001000
          -30 callsubr
          hintmask 00110000
          -9 2 callgsubr
          endchar
        </CharString>
        <CharString name="lakayahli">
          11 -205 72 27 72 19 74 callsubr
          hstem
          66 55 callsubr
          128 72 vstem
          203 404 rmoveto
          37 28 -25 -25 hvcurveto
          -230 vlineto
          -103 65 -36 72 vhcurveto
          25 hlineto
          14 13 3 3 11 hvcurveto
          -74 vlineto
          -38 1 callsubr
          vhcurveto
          -240 hlineto
          -32 -11 6 21 -2 hvcurveto
          67 hlineto
          38 8 21 14 30 -22 7 -24 hvcurveto
          -139 -45 hlineto
          -95 22 -31 66 callgsubr
          hvcurveto
          401 vlineto
          123 -42 18 -75 -39 -7 -24 -14 -27 22 -7 24 36 9 -12 -38 vhcurveto
          -248 vlineto
          -39 -9 -10 -36 vhcurveto
          -18 hlineto
          -37 -28 25 24 hvcurveto
          231 vlineto
          104 -66 35 -71 vhcurveto
          -27 hlineto
          49 callgsubr
          hvcurveto
          -213 vlineto
          -122 42 -17 75 24 22 7 28 30 -22 7 -24 -36 -9 10 39 vhcurveto
          22 callsubr
          endchar
        </CharString>
        <CharString name="lambda">
          23 -6 73 497 73 hstem
          28 72 vstem
          433 78 rmoveto
          61 callsubr
          -26 24 26 -13 hvcurveto
          -217 436 rlineto
          52 -25 -54 32 -55 hhcurveto
          76 callsubr
          25 33 -20 -33 14 hvcurveto
          21 -47 -207 -424 rlineto
          -1 -3 -2 -6 -7 vvcurveto
          -19 18 -12 16 15 14 7 20 9 vhcurveto
          182 384 rlineto
          endchar
        </CharString>
        <CharString name="lcaron">
          -309 0 72 415 171 -35 20 hstemhm
          91 72 45 -6 callgsubr
          hintmask 10110000
          -30 callsubr
          hintmask 01001000
          73 517 rmoveto
          40 83 rlineto
          hintmask 01000100
          -101 callgsubr
          endchar
        </CharString>
        <CharString name="lcommaaccent">
          -309 94 callsubr
          91 66 -66 72 -72 113 hintmask 00000000
          hintmask 10010000
          157 -175 -77 callsubr
          hintmask 01101000
          51 175 rmoveto
          -26 callsubr
          endchar
        </CharString>
        <CharString name="less">
          -55 55 298 rmoveto
          364 -210 rlineto
          -7 10 9 -2 8 hhcurveto
          27 7 30 7 15 -10 9 -15 9 hvcurveto
          -315 184 315 182 rlineto
          9 4 16 15 17 vvcurveto
          20 -16 13 -19 -10 -9 -4 -4 -6 vhcurveto
          -365 -210 rlineto
          -15 -9 -7 -11 -13 vvcurveto
          -9 5 -15 17 -11 vhcurveto
          endchar
        </CharString>
        <CharString name="lessequal">
          -29 0 73 14 73 192 74 hstem
          446 90 rmoveto
          2 10 -3 8 hhcurveto
          29 7 22 13 19 -14 12 -16 7 hvcurveto
          -266 96 266 96 rlineto
          19 8 12 14 16 vvcurveto
          19 -15 17 -22 -9 -6 -2 -1 -4 vhcurveto
          -357 -129 rlineto
          -18 -6 -9 -17 -15 vvcurveto
          -22 17 -10 10 -5 vhcurveto
          14 -219 rmoveto
          355 -14 callsubr
          14 21 24 -17 14 -27 hvcurveto
          -355 95 callsubr
          endchar
        </CharString>
</ttFont>
